<?xml version="1.0" encoding="utf-8"?>
<!-- Generator: Adobe Illustrator 22.1.0, SVG Export Plug-In . SVG Version: 6.00 Build 0)  -->
<svg version="1.1" id="Layer_1" xmlns="http://www.w3.org/2000/svg" xmlns:xlink="http://www.w3.org/1999/xlink" x="0px" y="0px"
	 viewBox="0 0 620.2 600" style="enable-background:new 0 0 620.2 600;" xml:space="preserve">
<style type="text/css">
	.st0{fill:#4A555C;}
	.st1{fill:#00648C;}
	.st2{fill:#44A929;}
	.st3{fill:#A5C800;}
	.st4{fill:#D20000;}
	.st5{fill:#0096D2;}
	.st6{fill:#00A096;}
	.st7{fill:#00A0E4;}
</style>
<g>
	<g>
		<path class="st0" d="M564,588.5v-3.7l-3.3,1.8c-2.9,1.5-5.7,2.3-8.4,2.3c-2.8,0-5.1-0.8-6.8-2.5c-1.7-1.7-2.6-3.8-2.6-6.5
			c0-3.2,1.1-5.6,3.3-7.2c2.2-1.6,5-2.5,8.5-2.5h9.4v-1.9c0-4.1-2.2-6.1-6.5-6.1c-4.6,0-6.9,1.8-6.9,5.5h-7.1v-0.4
			c0-3.5,1.3-6.3,3.8-8.2c2.5-2,5.9-2.9,10.1-2.9c4.3,0,7.7,1,10.1,3.1c2.4,2.1,3.6,5,3.6,8.8v20.4H564z M564,575.4h-8.4
			c-3.6,0-5.4,1.4-5.4,4.2c0,1.1,0.3,2,1,2.6c0.7,0.6,1.6,0.9,2.8,0.9c1.7,0,3.5-0.5,5.5-1.6l4.6-2.5V575.4z"/>
		<path class="st0" d="M515.5,577c-1.4,0-2.2,0.7-2.2,2.1c0,1.3,0.7,2,2,2h12.3c7.6,0,11.4,2.9,11.4,8.7c0,3.3-1.3,5.8-4,7.5
			c-2.6,1.8-6.2,2.6-10.6,2.6c-9.4,0-14.1-4-14.1-12v-3.2c-2.1-1-3.1-2.8-3.1-5.7c0-1.6,0.4-3,1.2-4c0.8-1,1.8-1.7,3.1-2.1
			c-0.2-0.1-0.4-0.3-0.6-0.6c-0.3-0.3-0.6-0.9-1-2c-0.4-1-0.6-2.2-0.6-3.4c0-3.3,1.1-5.8,3.2-7.6c2.1-1.7,4.9-2.6,8.5-2.6h18.4v6.1
			h-4.5c1,0.8,1.6,2.3,1.6,4.3c0,3-1,5.4-3.1,7.1c-2.1,1.7-4.9,2.6-8.4,2.6H515.5z M523.8,571.7c4,0,6-1.6,6-4.7
			c0-3.1-1.8-4.6-5.4-4.6h-2.8c-1.8,0-3.2,0.4-4.2,1.1c-0.9,0.7-1.4,1.9-1.4,3.7c0,3,1.8,4.6,5.4,4.6H523.8z M516.9,586.5v1.3
			c0,2.3,0.6,4,1.7,5.1s3.1,1.7,5.8,1.7c5.1,0,7.7-1.5,7.7-4.5c0-2.4-1.8-3.6-5.4-3.6H516.9z"/>
		<path class="st0" d="M494.5,588.5v-20.8c0-1.3-0.4-2.4-1.1-3.3c-0.7-0.9-1.8-1.4-3.1-1.4c-1.2,0-2.6,0.5-4.2,1.4l-4.6,2.8v21.4
			h-7.3v-31.7h7.2v3.7l3.4-2c2.1-1.3,4.4-2,7-2c3.1,0,5.5,0.9,7.3,2.8c1.8,1.9,2.7,4.4,2.7,7.5v21.8H494.5z"/>
		<rect x="459" y="556.8" class="st0" width="7.5" height="31.7"/>
		<path class="st0" d="M466.9,548.2c0,1.1-0.4,1.9-1.1,2.5c-0.8,0.6-1.8,0.9-3,0.9c-1.2,0-2.2-0.3-3-0.9c-0.8-0.6-1.2-1.4-1.2-2.5
			v-1.3c0-1.1,0.4-2,1.2-2.6c0.8-0.6,1.8-0.9,3-0.9c1.2,0,2.2,0.3,3,0.9c0.8,0.6,1.1,1.5,1.1,2.6V548.2z"/>
		<path class="st0" d="M448.9,588.5c-3.8,0-6.7-0.9-8.9-2.8c-2.1-1.9-3.2-4.6-3.2-8.1V563H432v-6.2h4.8v-8.6h7.5v8.6h8.8v6.2h-8.8
			v14.2c0,1.8,0.4,3.1,1.3,3.9c0.8,0.8,2.2,1.1,4,1.1h3.7v6.3H448.9z"/>
		<rect x="419.4" y="556.8" class="st0" width="7.5" height="31.7"/>
		<path class="st0" d="M427.3,548.2c0,1.1-0.4,1.9-1.1,2.5c-0.8,0.6-1.8,0.9-3,0.9c-1.2,0-2.2-0.3-3-0.9c-0.8-0.6-1.2-1.4-1.2-2.5
			v-1.3c0-1.1,0.4-2,1.2-2.6c0.8-0.6,1.8-0.9,3-0.9c1.2,0,2.2,0.3,3,0.9c0.8,0.6,1.1,1.5,1.1,2.6V548.2z"/>
		<path class="st0" d="M396.2,588.5v-31.7h7.3v4.5l1.4-1.4c2.4-2.2,5-3.4,7.8-3.4h1.9v7.4h-1.8c-2.6,0-4.8,0.7-6.7,2.2l-2.5,2v20.3
			H396.2z"/>
		<path class="st0" d="M381.8,588.5v-3.7l-3.3,1.8c-2.9,1.5-5.7,2.3-8.4,2.3c-2.8,0-5.1-0.8-6.8-2.5c-1.7-1.7-2.6-3.8-2.6-6.5
			c0-3.2,1.1-5.6,3.3-7.2c2.2-1.6,5-2.5,8.5-2.5h9.4v-1.9c0-4.1-2.2-6.1-6.5-6.1c-4.6,0-6.9,1.8-6.9,5.5h-7.1v-0.4
			c0-3.5,1.3-6.3,3.8-8.2c2.5-2,5.9-2.9,10.1-2.9c4.3,0,7.7,1,10.1,3.1c2.4,2.1,3.6,5,3.6,8.8v20.4H381.8z M381.8,575.4h-8.4
			c-3.6,0-5.4,1.4-5.4,4.2c0,1.1,0.3,2,1,2.6c0.7,0.6,1.6,0.9,2.8,0.9c1.7,0,3.5-0.5,5.5-1.6l4.6-2.5V575.4z"/>
		<path class="st0" d="M347.1,588.5v-3.7l-3.4,2c-2.2,1.4-4.6,2-7,2c-3.1,0-5.5-0.9-7.3-2.8c-1.8-1.9-2.7-4.4-2.7-7.5v-21.8h7.3
			v20.9c0,1.4,0.4,2.5,1.1,3.4c0.8,0.8,1.8,1.3,3.1,1.3c1.2,0,2.6-0.5,4.2-1.4l4.6-2.7v-21.4h7.3v31.7H347.1z"/>
		<path class="st0" d="M312.2,599.6V585l-3.6,2c-2.3,1.2-4.7,1.9-7.1,1.9c-3.3,0-5.9-1-7.9-3c-2-2-3-4.6-3-7.8v-10.7
			c0-3.2,1-5.9,3.1-7.9c2-2,4.7-3.1,7.9-3.1c2.3,0,4.7,0.6,7,1.9l3.7,2v-3.4h7.1v42.8H312.2z M312.2,567l-5.1-2.8
			c-1.5-0.8-3-1.2-4.5-1.2c-1.5,0-2.7,0.5-3.6,1.4c-0.9,0.9-1.4,2.2-1.4,3.8v9c0,1.6,0.5,2.8,1.4,3.8c0.9,0.9,2.1,1.4,3.6,1.4
			s3-0.4,4.5-1.3l5.1-2.8V567z"/>
		<path class="st0" d="M276.9,588.5v-3.7l-3.3,1.8c-2.9,1.5-5.7,2.3-8.4,2.3c-2.8,0-5.1-0.8-6.8-2.5c-1.7-1.7-2.6-3.8-2.6-6.5
			c0-3.2,1.1-5.6,3.3-7.2c2.2-1.6,5-2.5,8.5-2.5h9.4v-1.9c0-4.1-2.2-6.1-6.5-6.1c-4.6,0-6.9,1.8-6.9,5.5h-7.1v-0.4
			c0-3.5,1.3-6.3,3.8-8.2c2.5-2,5.9-2.9,10.1-2.9c4.3,0,7.7,1,10.1,3.1c2.4,2.1,3.6,5,3.6,8.8v20.4H276.9z M276.9,575.4h-8.4
			c-3.6,0-5.4,1.4-5.4,4.2c0,1.1,0.3,2,1,2.6c0.7,0.6,1.6,0.9,2.8,0.9c1.7,0,3.5-0.5,5.5-1.6l4.6-2.5V575.4z"/>
		<polygon class="st0" points="235.4,588.5 235.4,550.8 222.6,550.8 222.6,543.7 256.3,543.7 256.3,550.8 243.7,550.8 243.7,588.5 
					"/>
		<path class="st0" d="M200.4,577c0,3.9-1.2,6.9-3.7,9c-2.5,2.1-5.8,3.1-10,3.1c-4.2,0-7.5-1.1-10-3.3c-2.5-2.2-3.7-5.2-3.7-9.1
			v-7.9c0-3.9,1.2-6.9,3.7-9.1c2.5-2.2,5.8-3.3,9.9-3.3c4.2,0,7.6,1.1,10,3.2c2.5,2.1,3.7,5.1,3.7,9v0.5h-7c0-4.3-2.2-6.4-6.7-6.4
			c-4.4,0-6.6,2.2-6.6,6.7v6.6c0,4.5,2.2,6.7,6.6,6.7c4.5,0,6.7-2.1,6.7-6.3h7V577z"/>
		<path class="st0" d="M166.7,578.5c0,3.2-1.3,5.8-3.8,7.7c-2.5,1.9-5.9,2.9-10.1,2.9c-4.2,0-7.6-1.1-10.1-3.3
			c-2.6-2.2-3.9-5.2-3.9-9v-7.5c0-4,1.3-7.1,3.9-9.5c2.6-2.3,6-3.5,10.1-3.5c4.2,0,7.6,1.2,10.1,3.5c2.5,2.3,3.8,5.5,3.8,9.6v5.6
			h-21.1v1.6c0,2.2,0.7,3.8,2,4.9c1.3,1.1,3,1.6,5.2,1.6c4.6,0,6.9-1.6,6.9-4.9h7V578.5z M159.9,569.3c0-2.2-0.6-4-1.9-5.2
			c-1.2-1.2-3-1.8-5.2-1.8c-2.2,0-4,0.6-5.3,1.8c-1.3,1.2-1.9,3-1.9,5.2v0.8h14.2V569.3z"/>
		<path class="st0" d="M130.6,588.5c-3.8,0-6.7-0.9-8.9-2.8c-2.1-1.9-3.2-4.6-3.2-8.1V563h-4.8v-6.2h4.8v-8.6h7.5v8.6h8.8v6.2h-8.8
			v14.2c0,1.8,0.4,3.1,1.3,3.9c0.8,0.8,2.2,1.1,4,1.1h3.7v6.3H130.6z"/>
		<path class="st0" d="M102.5,588.5v-3.7l-3.3,1.8c-2.9,1.5-5.7,2.3-8.4,2.3c-2.8,0-5.1-0.8-6.8-2.5c-1.7-1.7-2.6-3.8-2.6-6.5
			c0-3.2,1.1-5.6,3.3-7.2c2.2-1.6,5-2.5,8.5-2.5h9.4v-1.9c0-4.1-2.2-6.1-6.5-6.1c-4.6,0-6.9,1.8-6.9,5.5h-7.1v-0.4
			c0-3.5,1.3-6.3,3.8-8.2c2.5-2,5.9-2.9,10.1-2.9c4.3,0,7.7,1,10.1,3.1c2.4,2.1,3.6,5,3.6,8.8v20.4H102.5z M102.5,575.4h-8.4
			c-3.6,0-5.4,1.4-5.4,4.2c0,1.1,0.3,2,1,2.6c0.7,0.6,1.6,0.9,2.8,0.9c1.7,0,3.5-0.5,5.5-1.6l4.6-2.5V575.4z"/>
		<polygon class="st0" points="57.1,570 57.1,588.5 49,588.5 49,543.7 78.1,543.7 78.1,550.8 57.1,550.8 57.1,562.9 76.3,562.9 
			76.3,570 		"/>
	</g>
	<g>
		<path class="st1" d="M525.8,488.5c0-4.3-2.8-6.4-8.4-6.4c-2.6,0-4.5,0.5-5.9,1.4c-1.4,0.9-2.1,2.2-2.1,3.7c0,1.7,0.9,3,2.7,3.7
			c1.8,0.8,3.9,1.3,6.5,1.5c2.5,0.3,5.1,0.6,7.6,1.1c2.6,0.5,4.7,1.6,6.5,3.3c1.8,1.7,2.7,4.1,2.7,7.3c0,4-1.6,7.2-4.8,9.4
			c-3.2,2.3-7.5,3.4-13,3.4c-5.7,0-10.1-1.2-13.3-3.6c-3.2-2.4-4.7-5.7-4.7-9.9V503h9.5c0,4.3,2.9,6.4,8.6,6.4
			c2.7,0,4.7-0.5,6.2-1.4c1.5-0.9,2.2-2.2,2.2-3.7c0-1.3-0.6-2.3-1.9-3.1c-1.3-0.7-2.9-1.2-4.8-1.3c-1.9-0.2-4-0.4-6.2-0.9
			c-2.2-0.4-4.3-1-6.2-1.6c-1.9-0.7-3.5-1.8-4.8-3.6c-1.3-1.7-1.9-3.9-1.9-6.6c0-4,1.6-7.2,4.7-9.5s7.4-3.4,12.8-3.4
			c5.6,0,9.9,1.2,12.9,3.6s4.5,5.7,4.5,9.9v0.5H525.8z"/>
		<path class="st1" d="M482.1,516.3v-4.8l-4.3,2.3c-3.8,2-7.4,3-10.9,3c-3.7,0-6.6-1.1-8.9-3.2c-2.3-2.2-3.4-5-3.4-8.5
			c0-4.1,1.4-7.2,4.3-9.4c2.8-2.1,6.5-3.2,11-3.2h12.3v-2.4c0-5.3-2.8-7.9-8.4-7.9c-5.9,0-8.9,2.4-8.9,7.2h-9.2v-0.5
			c0-4.6,1.6-8.2,4.9-10.7c3.3-2.6,7.7-3.8,13.1-3.8c5.6,0,10,1.4,13.1,4.1c3.1,2.7,4.7,6.5,4.7,11.4v26.5H482.1z M482.1,499.3
			h-10.9c-4.7,0-7,1.8-7,5.4c0,1.5,0.4,2.6,1.3,3.4c0.9,0.8,2.1,1.2,3.6,1.2c2.2,0,4.6-0.7,7.1-2l5.9-3.2V499.3z"/>
		<path class="st1" d="M437.1,516.3v-28c0-3.4-1.5-5.1-4.4-5.1c-1.3,0-2.9,0.5-4.9,1.6l-5,3v28.4h-9.5v-27.9c0-3.4-1.4-5.1-4.3-5.1
			c-1.4,0-3,0.5-5,1.6l-4.9,3v28.4h-9.5v-41.2h9.3v4.3l3.7-2.2c2.8-1.7,5.7-2.5,8.7-2.5c4.8,0,8.1,1.9,9.8,5.6l4.5-2.7
			c3-1.9,6.2-2.8,9.5-2.8c3.6,0,6.4,1.1,8.4,3.3c2,2.2,3.1,5.3,3.1,9.2v29.1H437.1z"/>
		<path class="st1" d="M380.5,503.3c0,4.2-1.6,7.5-4.9,10c-3.3,2.5-7.7,3.7-13.1,3.7c-5.4,0-9.8-1.4-13.2-4.2c-3.4-2.8-5-6.7-5-11.7
			v-9.8c0-5.2,1.7-9.3,5.1-12.3c3.4-3,7.8-4.6,13.1-4.6c5.5,0,9.9,1.5,13.2,4.5s5,7.2,5,12.5v7.3h-27.4v2c0,2.8,0.8,4.9,2.5,6.3
			c1.7,1.4,3.9,2.1,6.8,2.1c5.9,0,8.9-2.1,8.9-6.3h9.1V503.3z M371.7,491.4c0-2.9-0.8-5.2-2.4-6.7c-1.6-1.6-3.9-2.3-6.7-2.3
			c-2.9,0-5.2,0.8-6.8,2.4c-1.6,1.6-2.5,3.8-2.5,6.8v1h18.5V491.4z"/>
		<path class="st1" d="M333.6,516.3c-4.9,0-8.7-1.2-11.5-3.6c-2.8-2.4-4.2-5.9-4.2-10.5v-19h-6.3v-8.1h6.3v-11.2h9.7v11.2H339v8.1
			h-11.4v18.5c0,2.3,0.5,4,1.6,5c1.1,1,2.8,1.5,5.2,1.5h4.8v8.2H333.6z"/>
		<path class="st1" d="M297.1,488.5c0-4.3-2.8-6.4-8.4-6.4c-2.6,0-4.5,0.5-5.9,1.4c-1.4,0.9-2.1,2.2-2.1,3.7c0,1.7,0.9,3,2.7,3.7
			c1.8,0.8,3.9,1.3,6.5,1.5c2.5,0.3,5.1,0.6,7.6,1.1c2.6,0.5,4.7,1.6,6.5,3.3c1.8,1.7,2.7,4.1,2.7,7.3c0,4-1.6,7.2-4.8,9.4
			c-3.2,2.3-7.5,3.4-13,3.4c-5.7,0-10.1-1.2-13.3-3.6s-4.7-5.7-4.7-9.9V503h9.5c0,4.3,2.9,6.4,8.6,6.4c2.7,0,4.7-0.5,6.2-1.4
			c1.5-0.9,2.2-2.2,2.2-3.7c0-1.3-0.6-2.3-1.9-3.1c-1.3-0.7-2.9-1.2-4.8-1.3c-1.9-0.2-4-0.4-6.2-0.9c-2.2-0.4-4.3-1-6.2-1.6
			c-1.9-0.7-3.5-1.8-4.8-3.6c-1.3-1.7-1.9-3.9-1.9-6.6c0-4,1.6-7.2,4.7-9.5c3.1-2.3,7.4-3.4,12.8-3.4c5.6,0,9.9,1.2,12.9,3.6
			s4.5,5.7,4.5,9.9v0.5H297.1z"/>
		<rect x="252.4" y="475.1" class="st1" width="9.7" height="41.2"/>
		<path class="st1" d="M262.7,464c0,1.4-0.5,2.5-1.5,3.3c-1,0.8-2.3,1.2-3.9,1.2c-1.6,0-2.9-0.4-3.9-1.2c-1-0.8-1.5-1.9-1.5-3.3
			v-1.7c0-1.5,0.5-2.6,1.5-3.4c1-0.8,2.3-1.2,3.9-1.2c1.6,0,2.9,0.4,3.9,1.2c1,0.8,1.5,1.9,1.5,3.4V464z"/>
		<path class="st1" d="M232.2,475.8c0-6.4-3.8-9.6-11.4-9.6c-3.6,0-6.4,0.7-8.3,2.2c-1.9,1.4-2.9,3.4-2.9,6c0,1.9,0.6,3.4,1.8,4.5
			c1.2,1.1,2.8,1.9,4.8,2.5c2,0.5,4.2,1,6.6,1.4c2.4,0.4,4.8,0.9,7.2,1.5c2.4,0.6,4.6,1.5,6.6,2.5c2,1,3.6,2.6,4.8,4.8
			c1.2,2.1,1.8,4.8,1.8,7.9c0,5.4-2,9.7-6.1,12.8c-4,3.1-9.5,4.7-16.5,4.7c-7.1,0-12.7-1.5-16.6-4.5c-3.9-3-5.9-7.5-5.9-13.5v-0.6
			h10.6c0,6.5,4,9.7,12,9.7c3.8,0,6.6-0.7,8.7-2.2c2-1.4,3.1-3.4,3.1-5.9c0-1.8-0.6-3.3-1.8-4.5c-1.2-1.1-2.8-2-4.8-2.5
			c-2-0.5-4.2-1-6.6-1.4c-2.4-0.4-4.8-0.9-7.2-1.5c-2.4-0.6-4.6-1.5-6.6-2.5c-2-1.1-3.6-2.7-4.8-4.8c-1.2-2.2-1.8-4.8-1.8-8
			c0-5.4,2-9.6,5.9-12.8c3.9-3.1,9.3-4.7,16-4.7c7,0,12.4,1.5,16.3,4.5c3.9,3,5.8,7.5,5.8,13.4v0.7H232.2z"/>
		<path class="st1" d="M167.6,503.3c0,4.2-1.6,7.5-4.9,10c-3.3,2.5-7.7,3.7-13.1,3.7c-5.4,0-9.8-1.4-13.2-4.2c-3.4-2.8-5-6.7-5-11.7
			v-9.8c0-5.2,1.7-9.3,5.1-12.3c3.4-3,7.8-4.6,13.1-4.6c5.5,0,9.9,1.5,13.2,4.5c3.3,3,5,7.2,5,12.5v7.3h-27.4v2
			c0,2.8,0.8,4.9,2.5,6.3c1.7,1.4,4,2.1,6.8,2.1c5.9,0,8.9-2.1,8.9-6.3h9.1V503.3z M158.8,491.4c0-2.9-0.8-5.2-2.4-6.7
			c-1.6-1.6-3.9-2.3-6.7-2.3c-2.9,0-5.2,0.8-6.8,2.4c-1.6,1.6-2.5,3.8-2.5,6.8v1h18.5V491.4z"/>
		<path class="st1" d="M113.1,516.3v-4.5l-4.8,2.6c-2.9,1.6-5.9,2.4-9.2,2.4c-4.2,0-7.6-1.3-10.2-3.9c-2.6-2.6-3.9-6-3.9-10.2v-13.8
			c0-4.2,1.3-7.6,4-10.2c2.7-2.7,6.1-4,10.3-4c3.2,0,6.2,0.8,9.1,2.4l4.7,2.6v-21.6h9.3v58.2H113.1z M113,488.4l-6.6-3.7
			c-1.9-1-3.9-1.6-5.8-1.6c-2,0-3.6,0.6-4.7,1.8c-1.2,1.2-1.8,2.9-1.8,4.9v11.7c0,2.1,0.6,3.7,1.8,5c1.2,1.2,2.7,1.8,4.7,1.8
			c1.8,0,3.8-0.5,5.8-1.6l6.6-3.6V488.4z"/>
		<path class="st1" d="M620.2,422.1c0,5.1-1.7,9.2-5.2,12.2c-3.4,3-7.9,4.6-13.5,4.6c-5.5,0-10-1.5-13.5-4.6
			c-3.4-3.1-5.2-7.1-5.2-12.2v-9c0-5.2,1.7-9.3,5.2-12.3c3.4-3,7.9-4.6,13.5-4.6c5.5,0,10,1.5,13.5,4.6c3.4,3.1,5.2,7.2,5.2,12.3
			V422.1z M611.1,414.1c0-3-0.9-5.4-2.6-7.1c-1.7-1.7-4.1-2.5-6.9-2.5c-2.9,0-5.2,0.8-6.9,2.5c-1.7,1.7-2.6,4.1-2.6,7.1v7.1
			c0,3,0.9,5.4,2.6,7.1c1.7,1.7,4.1,2.5,6.9,2.5c2.9,0,5.2-0.8,6.9-2.5c1.7-1.7,2.6-4.1,2.6-7.1V414.1z"/>
		<path class="st1" d="M572.3,438.1c-4.9,0-8.7-1.2-11.5-3.6s-4.2-5.9-4.2-10.5v-19h-6.3v-8.1h6.3v-11.2h9.7v11.2h11.4v8.1h-11.4
			v18.5c0,2.3,0.5,4,1.6,5c1.1,1,2.8,1.5,5.2,1.5h4.8v8.2H572.3z"/>
		<path class="st1" d="M535.3,438.1V411c0-1.7-0.5-3.2-1.4-4.3c-0.9-1.2-2.3-1.8-4.1-1.8c-1.6,0-3.4,0.6-5.4,1.8l-6,3.6v27.8H509
			v-41.2h9.4v4.9l4.4-2.7c2.7-1.7,5.8-2.6,9.2-2.7c4,0,7.2,1.2,9.5,3.7c2.3,2.5,3.5,5.7,3.5,9.7v28.3H535.3z"/>
		<path class="st1" d="M499.9,425.1c0,4.2-1.6,7.5-4.9,10c-3.3,2.5-7.7,3.7-13.1,3.7c-5.4,0-9.8-1.4-13.2-4.2c-3.4-2.8-5-6.7-5-11.7
			v-9.8c0-5.2,1.7-9.3,5.1-12.3c3.4-3,7.8-4.6,13.1-4.6c5.5,0,9.9,1.5,13.2,4.5c3.3,3,5,7.2,5,12.5v7.3h-27.4v2
			c0,2.8,0.8,4.9,2.5,6.3c1.7,1.4,4,2.1,6.8,2.1c5.9,0,8.9-2.1,8.9-6.3h9.1V425.1z M491,413.1c0-2.9-0.8-5.2-2.4-6.7
			s-3.9-2.3-6.7-2.3c-2.9,0-5.2,0.8-6.8,2.4c-1.6,1.6-2.5,3.8-2.5,6.8v1H491V413.1z"/>
		<path class="st1" d="M445.3,438.1v-28c0-3.4-1.5-5.1-4.4-5.1c-1.3,0-2.9,0.5-4.9,1.6l-5,3v28.4h-9.5v-27.9c0-3.4-1.4-5.1-4.3-5.1
			c-1.4,0-3,0.5-5,1.6l-4.9,3v28.4h-9.5v-41.2h9.3v4.3l3.7-2.2c2.8-1.7,5.7-2.5,8.7-2.5c4.8,0,8.1,1.9,9.8,5.6l4.5-2.7
			c3-1.9,6.2-2.8,9.5-2.8c3.6,0,6.4,1.1,8.4,3.3c2,2.2,3.1,5.3,3.1,9.2v29.1H445.3z"/>
		<rect x="378.1" y="396.9" class="st1" width="9.7" height="41.2"/>
		<path class="st1" d="M388.3,385.8c0,1.4-0.5,2.5-1.5,3.3c-1,0.8-2.3,1.2-3.9,1.2c-1.6,0-2.9-0.4-3.9-1.2c-1-0.8-1.5-1.9-1.5-3.3
			V384c0-1.5,0.5-2.6,1.5-3.4c1-0.8,2.3-1.2,3.9-1.2c1.6,0,2.9,0.4,3.9,1.2c1,0.8,1.5,1.9,1.5,3.4V385.8z"/>
		<polygon class="st1" points="346.8,438.1 332.6,396.9 342.9,396.9 352.4,427.1 362,396.9 371.9,396.9 357.5,438.1 		"/>
		<rect x="316.7" y="379.9" class="st1" width="9.8" height="58.2"/>
		<path class="st1" d="M307.7,422.1c0,5.1-1.7,9.2-5.2,12.2c-3.4,3-7.9,4.6-13.5,4.6c-5.5,0-10-1.5-13.5-4.6
			c-3.4-3.1-5.2-7.1-5.2-12.2v-9c0-5.2,1.7-9.3,5.2-12.3c3.4-3,7.9-4.6,13.5-4.6c5.5,0,10,1.5,13.5,4.6c3.4,3.1,5.2,7.2,5.2,12.3
			V422.1z M298.6,414.1c0-3-0.9-5.4-2.6-7.1c-1.7-1.7-4.1-2.5-6.9-2.5c-2.9,0-5.2,0.8-6.9,2.5c-1.7,1.7-2.6,4.1-2.6,7.1v7.1
			c0,3,0.9,5.4,2.6,7.1c1.7,1.7,4.1,2.5,6.9,2.5c2.9,0,5.2-0.8,6.9-2.5c1.7-1.7,2.6-4.1,2.6-7.1V414.1z"/>
		<polygon class="st1" points="241.8,438.1 227.5,396.9 237.9,396.9 247.4,427.1 256.9,396.9 266.9,396.9 252.5,438.1 		"/>
		<path class="st1" d="M212.9,438.1V411c0-1.7-0.5-3.2-1.4-4.3c-0.9-1.2-2.3-1.8-4.1-1.8c-1.6,0-3.4,0.6-5.4,1.8l-6,3.6v27.8h-9.5
			v-41.2h9.4v4.9l4.4-2.7c2.7-1.7,5.8-2.6,9.2-2.7c4,0,7.2,1.2,9.5,3.7c2.3,2.5,3.5,5.7,3.5,9.7v28.3H212.9z"/>
		<path class="st1" d="M177.5,425.1c0,4.2-1.6,7.5-4.9,10c-3.3,2.5-7.7,3.7-13.1,3.7c-5.4,0-9.8-1.4-13.2-4.2c-3.4-2.8-5-6.7-5-11.7
			v-9.8c0-5.2,1.7-9.3,5.1-12.3c3.4-3,7.8-4.6,13.1-4.6c5.5,0,9.9,1.5,13.2,4.5c3.3,3,5,7.2,5,12.5v7.3h-27.4v2
			c0,2.8,0.8,4.9,2.5,6.3c1.7,1.4,4,2.1,6.8,2.1c5.9,0,8.9-2.1,8.9-6.3h9.1V425.1z M168.6,413.1c0-2.9-0.8-5.2-2.4-6.7
			s-3.9-2.3-6.7-2.3c-2.9,0-5.2,0.8-6.8,2.4c-1.6,1.6-2.5,3.8-2.5,6.8v1h18.5V413.1z"/>
		<path class="st1" d="M124.1,410.2c0-4.3-2.8-6.4-8.4-6.4c-2.6,0-4.5,0.5-5.9,1.4c-1.4,0.9-2.1,2.2-2.1,3.7c0,1.7,0.9,3,2.7,3.7
			c1.8,0.8,3.9,1.3,6.5,1.5c2.5,0.3,5.1,0.6,7.6,1.1c2.6,0.5,4.7,1.6,6.5,3.3c1.8,1.7,2.7,4.1,2.7,7.3c0,4-1.6,7.2-4.8,9.4
			c-3.2,2.3-7.5,3.4-13,3.4c-5.7,0-10.1-1.2-13.3-3.6c-3.2-2.4-4.7-5.7-4.7-9.9v-0.5h9.5c0,4.3,2.9,6.4,8.6,6.4
			c2.7,0,4.7-0.5,6.2-1.4c1.5-0.9,2.2-2.2,2.2-3.7c0-1.3-0.6-2.3-1.9-3.1c-1.3-0.7-2.9-1.2-4.8-1.3c-1.9-0.2-4-0.4-6.2-0.9
			c-2.2-0.4-4.3-1-6.2-1.6c-1.9-0.7-3.5-1.8-4.8-3.6c-1.3-1.7-1.9-3.9-1.9-6.6c0-4,1.6-7.2,4.7-9.5c3.1-2.3,7.4-3.4,12.8-3.4
			c5.6,0,9.9,1.2,12.9,3.6c3,2.4,4.5,5.7,4.5,9.9v0.5H124.1z"/>
		<path class="st1" d="M90.1,425.1c0,4.2-1.6,7.5-4.9,10c-3.3,2.5-7.7,3.7-13.1,3.7c-5.4,0-9.8-1.4-13.2-4.2c-3.4-2.8-5-6.7-5-11.7
			v-9.8c0-5.2,1.7-9.3,5.1-12.3c3.4-3,7.8-4.6,13.1-4.6c5.5,0,9.9,1.5,13.2,4.5c3.3,3,5,7.2,5,12.5v7.3H62.8v2
			c0,2.8,0.8,4.9,2.5,6.3c1.7,1.4,4,2.1,6.8,2.1c5.9,0,8.9-2.1,8.9-6.3h9.1V425.1z M81.3,413.1c0-2.9-0.8-5.2-2.4-6.7
			s-3.9-2.3-6.7-2.3c-2.9,0-5.2,0.8-6.8,2.4c-1.6,1.6-2.5,3.8-2.5,6.8v1h18.5V413.1z"/>
		<path class="st1" d="M0,438.1v-58.2h19.9c7.5,0,13.6,2,18.4,6.1c4.8,4,7.2,10.3,7.2,18.9v8.3c0,4.4-0.7,8.2-2.1,11.5
			c-1.4,3.3-3.3,5.9-5.7,7.8c-2.4,1.9-5.1,3.3-8.1,4.2c-3,0.9-6.3,1.4-9.8,1.4H0z M34.9,404.9c0-10.6-5-16-15.1-16h-9.3v39.9h9.3
			c10.1,0,15.1-5.2,15.1-15.7V404.9z"/>
		<path class="st1" d="M477.4,346.9c0,4.2-1.6,7.5-4.9,10c-3.3,2.5-7.7,3.7-13.1,3.7c-5.4,0-9.8-1.4-13.2-4.2c-3.4-2.8-5-6.7-5-11.7
			v-9.8c0-5.2,1.7-9.3,5.1-12.3c3.4-3,7.8-4.6,13.1-4.6c5.5,0,9.9,1.5,13.2,4.5c3.3,3,5,7.2,5,12.5v7.3h-27.4v2
			c0,2.8,0.8,4.9,2.5,6.3c1.7,1.4,3.9,2.1,6.8,2.1c5.9,0,8.9-2.1,8.9-6.3h9.1V346.9z M468.5,334.9c0-2.9-0.8-5.2-2.4-6.7
			c-1.6-1.6-3.9-2.3-6.7-2.3c-2.9,0-5.2,0.8-6.8,2.4c-1.6,1.6-2.5,3.8-2.5,6.8v1h18.5V334.9z"/>
		<path class="st1" d="M410.5,346.9c0,4.2-1.6,7.5-4.9,10c-3.3,2.5-7.7,3.7-13.1,3.7c-5.4,0-9.8-1.4-13.2-4.2c-3.4-2.8-5-6.7-5-11.7
			v-9.8c0-5.2,1.7-9.3,5.1-12.3c3.4-3,7.8-4.6,13.1-4.6c5.5,0,9.9,1.5,13.2,4.5c3.3,3,5,7.2,5,12.5v7.3h-27.4v2
			c0,2.8,0.8,4.9,2.5,6.3c1.7,1.4,3.9,2.1,6.8,2.1c5.9,0,8.9-2.1,8.9-6.3h9.1V346.9z M401.6,334.9c0-2.9-0.8-5.2-2.4-6.7
			c-1.6-1.6-3.9-2.3-6.7-2.3c-2.9,0-5.2,0.8-6.8,2.4c-1.6,1.6-2.5,3.8-2.5,6.8v1h18.5V334.9z"/>
		<path class="st1" d="M357.1,332c0-4.3-2.8-6.4-8.4-6.4c-2.6,0-4.5,0.5-5.9,1.4c-1.4,0.9-2.1,2.2-2.1,3.7c0,1.7,0.9,3,2.7,3.7
			c1.8,0.8,3.9,1.3,6.5,1.5c2.5,0.3,5.1,0.6,7.6,1.1c2.6,0.5,4.7,1.6,6.5,3.3c1.8,1.7,2.7,4.1,2.7,7.3c0,4-1.6,7.2-4.8,9.4
			c-3.2,2.3-7.5,3.4-13,3.4c-5.7,0-10.1-1.2-13.3-3.6c-3.2-2.4-4.7-5.7-4.7-9.9v-0.5h9.5c0,4.3,2.9,6.4,8.6,6.4
			c2.7,0,4.7-0.5,6.2-1.4c1.5-0.9,2.2-2.2,2.2-3.7c0-1.3-0.6-2.3-1.9-3.1c-1.3-0.7-2.9-1.2-4.8-1.3c-1.9-0.2-4-0.4-6.2-0.9
			c-2.2-0.4-4.3-1-6.2-1.6c-1.9-0.7-3.5-1.8-4.8-3.6c-1.3-1.7-1.9-3.9-1.9-6.6c0-4,1.6-7.2,4.7-9.5c3.1-2.3,7.4-3.4,12.8-3.4
			c5.6,0,9.9,1.2,12.9,3.6c3,2.4,4.5,5.7,4.5,9.9v0.5H357.1z"/>
		<rect x="312.5" y="318.6" class="st1" width="9.7" height="41.2"/>
		<path class="st1" d="M322.7,307.5c0,1.4-0.5,2.5-1.5,3.3c-1,0.8-2.3,1.2-3.9,1.2c-1.6,0-2.9-0.4-3.9-1.2c-1-0.8-1.5-1.9-1.5-3.3
			v-1.7c0-1.5,0.5-2.6,1.5-3.4c1-0.8,2.3-1.2,3.9-1.2c1.6,0,2.9,0.4,3.9,1.2c1,0.8,1.5,1.9,1.5,3.4V307.5z"/>
		<rect x="292.7" y="301.7" class="st1" width="9.8" height="58.2"/>
		<path class="st1" d="M274,359.9v-4.8l-4.3,2.3c-3.8,2-7.4,3-10.9,3c-3.7,0-6.6-1.1-8.9-3.2c-2.3-2.2-3.4-5-3.4-8.5
			c0-4.1,1.4-7.2,4.3-9.4c2.8-2.1,6.5-3.2,11-3.2h12.3v-2.4c0-5.3-2.8-7.9-8.4-7.9c-5.9,0-8.9,2.4-8.9,7.2h-9.2v-0.5
			c0-4.6,1.6-8.2,4.9-10.7c3.3-2.6,7.7-3.8,13.1-3.8c5.6,0,10,1.4,13.1,4.1c3.1,2.7,4.7,6.5,4.7,11.4v26.5H274z M274,342.8H263
			c-4.7,0-7,1.8-7,5.4c0,1.5,0.4,2.6,1.3,3.4c0.9,0.8,2.1,1.2,3.6,1.2c2.2,0,4.6-0.7,7.1-2l5.9-3.2V342.8z"/>
		<polygon class="st1" points="259.1,313.1 267.5,301.7 279.5,301.7 269.5,313.1 		"/>
		<path class="st1" d="M228.9,359.9v-27.1c0-1.7-0.5-3.2-1.4-4.3c-0.9-1.2-2.3-1.8-4.1-1.8c-1.6,0-3.4,0.6-5.4,1.8l-6,3.6v27.8h-9.5
			v-41.2h9.4v4.9l4.4-2.7c2.7-1.7,5.8-2.6,9.2-2.7c4,0,7.2,1.2,9.5,3.7c2.3,2.5,3.5,5.7,3.5,9.7v28.3H228.9z"/>
		<path class="st1" d="M184.4,359.9l-3.8-11h-23l-3.7,11h-11.3l20.1-58.2h12.9l20.1,58.2H184.4z M169.2,312.9l-9.1,27.1h18.2
			L169.2,312.9z"/>
	</g>
	<g>
		<path class="st1" d="M331.1,251.9c0,5.8-4.7,10.5-10.5,10.5h-21c-5.8,0-10.5-4.7-10.5-10.5H173.6c0,11.6,9.4,21,21,21h230.9
			c11.6,0,21-9.4,21-21H331.1z"/>
		<path class="st1" d="M352.1,84H194.6c-5.8,0-10.5,4.7-10.5,10.5v146.9h10.5V99.7c0-2.9,2.3-5.2,5.2-5.2h152.2V84z"/>
		<rect x="425.5" y="105" class="st1" width="10.5" height="136.4"/>
		<path class="st1" d="M257.6,146.9v10.5c0,5.8-4.7,10.5-10.5,10.5v10.5c5.8,0,10.5,4.7,10.5,10.5v10.5c0,11.6,9.4,21,21,21h10.5
			v-10.5h-10.5c-5.8,0-10.5-4.7-10.5-10.5v-10.5c0-6.3-2.8-11.9-7.1-15.7c4.4-3.8,7.1-9.5,7.1-15.7v-10.5c0-5.8,4.7-10.5,10.5-10.5
			h10.5v-10.5h-10.5C267,125.9,257.6,135.3,257.6,146.9z"/>
		<path class="st1" d="M373.1,167.9c-5.8,0-10.5-4.7-10.5-10.5v-10.5c0-11.6-9.4-21-21-21h-10.5v10.5h10.5c5.8,0,10.5,4.7,10.5,10.5
			v10.5c0,6.3,2.8,11.9,7.1,15.7c-4.4,3.8-7.1,9.5-7.1,15.7v10.5c0,5.8-4.7,10.5-10.5,10.5h-10.5v10.5h10.5c11.6,0,21-9.4,21-21
			v-10.5c0-5.8,4.7-10.5,10.5-10.5L373.1,167.9L373.1,167.9z"/>
		<path class="st1" d="M367.8,73.5h26.2c2.9,0,5.2,2.3,5.2,5.2v21c0,2.9-2.3,5.2-5.2,5.2h-26.2c-2.9,0-5.2-2.3-5.2-5.2v-21
			C362.6,75.8,364.9,73.5,367.8,73.5z M367.8,81.3v15.7c0,1.4,1.2,2.6,2.6,2.6h21c1.4,0,2.6-1.2,2.6-2.6V81.3c0-1.4-1.2-2.6-2.6-2.6
			h-21C369,78.7,367.8,79.9,367.8,81.3z"/>
		<path class="st1" d="M431.8,94.5H414c-2.3,0-4.2-1.9-4.2-4.2V77.7c0-2.3,1.9-4.2,4.2-4.2h17.8c2.3,0,4.2,1.9,4.2,4.2v12.6
			C436,92.6,434.2,94.5,431.8,94.5z M431.3,87.6v-7.3c0-1.4-1.2-2.6-2.6-2.6h-11.5c-1.4,0-2.6,1.2-2.6,2.6v7.3
			c0,1.4,1.2,2.6,2.6,2.6h11.5C430.1,90.3,431.3,89.1,431.3,87.6z"/>
		<path class="st1" d="M354.7,63h-31.5c-4.3,0-7.9-3.5-7.9-7.9V28.9c0-4.3,3.5-7.9,7.9-7.9h31.5c4.3,0,7.9,3.5,7.9,7.9v26.2
			C362.6,59.4,359,63,354.7,63z M354.7,50.9V33.1c0-2.3-1.9-4.2-4.2-4.2h-23.1c-2.3,0-4.2,1.9-4.2,4.2v17.8c0,2.3,1.9,4.2,4.2,4.2
			h23.1C352.8,55.1,354.7,53.2,354.7,50.9z"/>
		<path class="st1" d="M436,63h-52.5c-5.8,0-10.5-4.7-10.5-10.5v-42c0-5.8,4.7-10.5,10.5-10.5H436c5.8,0,10.5,4.7,10.5,10.5v42
			C446.5,58.3,441.8,63,436,63z M437.3,48.5V14.4c0-2.9-2.3-5.2-5.2-5.2h-44.6c-2.9,0-5.2,2.3-5.2,5.2v34.1c0,2.9,2.3,5.2,5.2,5.2
			h44.6C435,53.8,437.3,51.4,437.3,48.5z"/>
	</g>
</g>
</svg>
