<?xml version="1.0" encoding="utf-8"?>
<!-- Generator: Adobe Illustrator 22.1.0, SVG Export Plug-In . SVG Version: 6.00 Build 0)  -->
<svg version="1.1" id="Layer_1" xmlns="http://www.w3.org/2000/svg" xmlns:xlink="http://www.w3.org/1999/xlink" x="0px" y="0px"
	 viewBox="0 0 714.8 600" style="enable-background:new 0 0 714.8 600;" xml:space="preserve">
<style type="text/css">
	.st0{fill:#4A555C;}
	.st1{fill:#00648C;}
	.st2{fill:#44A929;}
	.st3{fill:#A5C800;}
	.st4{fill:#D20000;}
	.st5{fill:#0096D2;}
	.st6{fill:#00A096;}
	.st7{fill:#00A0E4;}
</style>
<g>
	<g>
		<path class="st0" d="M705,584.3v-5l-4.5,2.5c-4,2.1-7.8,3.1-11.4,3.1c-3.8,0-7-1.1-9.4-3.4c-2.4-2.3-3.6-5.3-3.6-8.9
			c0-4.3,1.5-7.6,4.5-9.9c3-2.3,6.9-3.4,11.6-3.4h12.9v-2.6c0-5.5-3-8.3-8.9-8.3c-6.3,0-9.4,2.5-9.4,7.6h-9.7v-0.6
			c0-4.8,1.7-8.6,5.2-11.3c3.5-2.7,8.1-4,13.8-4c5.9,0,10.5,1.4,13.8,4.3s4.9,6.9,4.9,12v27.9H705z M705,566.3h-11.5
			c-4.9,0-7.4,1.9-7.4,5.7c0,1.5,0.5,2.7,1.4,3.6c0.9,0.9,2.2,1.3,3.8,1.3c2.3,0,4.8-0.7,7.5-2.1l6.3-3.4V566.3z"/>
		<path class="st0" d="M638.6,568.5c-2,0-3,1-3,2.9c0,1.8,0.9,2.7,2.8,2.7h16.8c10.4,0,15.6,4,15.6,11.9c0,4.4-1.8,7.9-5.4,10.3
			c-3.6,2.4-8.5,3.6-14.5,3.6c-12.9,0-19.4-5.5-19.4-16.5v-4.4c-2.9-1.3-4.3-3.9-4.3-7.7c0-2.3,0.5-4.1,1.6-5.5
			c1.1-1.4,2.5-2.4,4.2-2.9c-0.2-0.2-0.5-0.4-0.9-0.8c-0.4-0.4-0.8-1.3-1.4-2.7c-0.6-1.4-0.9-3-0.9-4.7c0-4.5,1.4-7.9,4.3-10.3
			c2.9-2.4,6.8-3.6,11.7-3.6h25.1v8.4h-6.2c1.4,1.2,2.1,3.1,2.1,5.9c0,4.1-1.4,7.4-4.2,9.8s-6.7,3.6-11.5,3.6H638.6z M649.9,561.3
			c5.5,0,8.2-2.1,8.2-6.4c0-4.2-2.5-6.3-7.4-6.3h-3.8c-2.5,0-4.4,0.5-5.7,1.4c-1.3,1-1.9,2.7-1.9,5.1c0,4.2,2.5,6.3,7.4,6.3H649.9z
			 M640.4,581.5v1.8c0,3.1,0.8,5.5,2.3,7c1.5,1.5,4.2,2.3,8,2.3c7,0,10.5-2.1,10.5-6.2c0-3.2-2.5-4.9-7.4-4.9H640.4z"/>
		<path class="st0" d="M609.8,584.3v-28.5c0-1.8-0.5-3.3-1.5-4.6c-1-1.2-2.4-1.9-4.3-1.9c-1.6,0-3.5,0.6-5.7,1.9L592,555v29.2h-10
			v-43.4h9.9v5.1l4.6-2.8c2.9-1.8,6.1-2.7,9.6-2.8c4.2,0,7.6,1.3,10,3.9c2.4,2.6,3.7,6,3.7,10.2v29.8H609.8z"/>
		<rect x="561.3" y="540.9" class="st0" width="10.2" height="43.4"/>
		<path class="st0" d="M572.1,529.2c0,1.5-0.5,2.6-1.6,3.5c-1,0.8-2.4,1.2-4.1,1.2c-1.6,0-3-0.4-4.1-1.2c-1.1-0.8-1.6-2-1.6-3.5
			v-1.8c0-1.5,0.5-2.7,1.6-3.5c1.1-0.8,2.4-1.2,4.1-1.2c1.7,0,3.1,0.4,4.1,1.2c1,0.8,1.6,2,1.6,3.5V529.2z"/>
		<path class="st0" d="M547.4,584.3c-5.2,0-9.2-1.3-12.2-3.8c-2.9-2.6-4.4-6.2-4.4-11.1v-20h-6.6v-8.5h6.6v-11.8H541v11.8h12v8.5
			h-12v19.4c0,2.5,0.6,4.2,1.7,5.3c1.2,1,3,1.6,5.4,1.6h5.1v8.7H547.4z"/>
		<rect x="507" y="540.9" class="st0" width="10.2" height="43.4"/>
		<path class="st0" d="M517.8,529.2c0,1.5-0.5,2.6-1.6,3.5c-1,0.8-2.4,1.2-4.1,1.2c-1.6,0-3-0.4-4.1-1.2c-1.1-0.8-1.6-2-1.6-3.5
			v-1.8c0-1.5,0.5-2.7,1.6-3.5c1.1-0.8,2.4-1.2,4.1-1.2c1.7,0,3.1,0.4,4.1,1.2c1,0.8,1.6,2,1.6,3.5V529.2z"/>
		<path class="st0" d="M475.3,584.3v-43.4h10v6.2l1.9-1.9c3.2-3.1,6.8-4.6,10.7-4.6h2.6v10.1H498c-3.5,0-6.6,1-9.1,3l-3.4,2.8v27.8
			H475.3z"/>
		<path class="st0" d="M455.6,584.3v-5l-4.5,2.5c-4,2.1-7.8,3.1-11.4,3.1c-3.8,0-7-1.1-9.4-3.4c-2.4-2.3-3.6-5.3-3.6-8.9
			c0-4.3,1.5-7.6,4.5-9.9c3-2.3,6.9-3.4,11.6-3.4h12.9v-2.6c0-5.5-3-8.3-8.9-8.3c-6.3,0-9.4,2.5-9.4,7.6h-9.7v-0.6
			c0-4.8,1.7-8.6,5.2-11.3c3.5-2.7,8.1-4,13.8-4c5.9,0,10.5,1.4,13.8,4.3c3.3,2.9,4.9,6.9,4.9,12v27.9H455.6z M455.6,566.3h-11.5
			c-4.9,0-7.4,1.9-7.4,5.7c0,1.5,0.5,2.7,1.4,3.6c0.9,0.9,2.2,1.3,3.8,1.3c2.3,0,4.8-0.7,7.5-2.1l6.3-3.4V566.3z"/>
		<path class="st0" d="M408.1,584.3v-5l-4.6,2.7c-3,1.9-6.2,2.8-9.6,2.8c-4.2,0-7.6-1.3-10-3.9c-2.4-2.6-3.7-6-3.7-10.2v-29.8h10
			v28.6c0,1.9,0.5,3.5,1.6,4.6c1,1.2,2.4,1.7,4.2,1.7c1.6,0,3.5-0.6,5.7-1.9l6.3-3.7v-29.3h10v43.4H408.1z"/>
		<path class="st0" d="M360.3,599.4v-19.9l-4.9,2.7c-3.2,1.7-6.4,2.6-9.7,2.6c-4.4,0-8-1.4-10.8-4.1c-2.7-2.7-4.1-6.3-4.1-10.7
			v-14.6c0-4.4,1.4-8.1,4.2-10.9c2.8-2.8,6.4-4.2,10.9-4.2c3.2,0,6.4,0.9,9.6,2.6l5,2.7v-4.7h9.7v58.6H360.3z M360.3,554.8l-6.9-3.9
			c-2-1.1-4.1-1.6-6.1-1.6c-2.1,0-3.7,0.6-5,1.9c-1.2,1.3-1.9,3-1.9,5.1v12.4c0,2.1,0.6,3.9,1.9,5.1c1.2,1.3,2.9,1.9,5,1.9
			c2.1,0,4.1-0.6,6.1-1.7l6.9-3.8V554.8z"/>
		<path class="st0" d="M311.9,584.3v-5l-4.5,2.5c-4,2.1-7.8,3.1-11.4,3.1c-3.8,0-7-1.1-9.4-3.4c-2.4-2.3-3.6-5.3-3.6-8.9
			c0-4.3,1.5-7.6,4.5-9.9c3-2.3,6.9-3.4,11.6-3.4H312v-2.6c0-5.5-3-8.3-8.9-8.3c-6.3,0-9.4,2.5-9.4,7.6H284v-0.6
			c0-4.8,1.7-8.6,5.2-11.3c3.5-2.7,8.1-4,13.8-4c5.9,0,10.5,1.4,13.8,4.3s4.9,6.9,4.9,12v27.9H311.9z M311.9,566.3h-11.5
			c-4.9,0-7.4,1.9-7.4,5.7c0,1.5,0.5,2.7,1.4,3.6c0.9,0.9,2.2,1.3,3.8,1.3c2.3,0,4.8-0.7,7.5-2.1l6.3-3.4V566.3z"/>
		<polygon class="st0" points="255.2,584.3 255.2,532.6 237.7,532.6 237.7,523 283.8,523 283.8,532.6 266.5,532.6 266.5,584.3 		"/>
		<path class="st0" d="M207.2,568.4c0,5.3-1.7,9.4-5.1,12.3c-3.4,2.9-8,4.3-13.7,4.3c-5.7,0-10.3-1.5-13.6-4.5
			c-3.4-3-5.1-7.2-5.1-12.5v-10.8c0-5.3,1.7-9.5,5.1-12.5c3.4-3,7.9-4.5,13.6-4.5c5.8,0,10.3,1.4,13.7,4.3c3.4,2.9,5.1,7,5.1,12.3
			v0.7h-9.6c0-5.8-3-8.7-9.1-8.7c-6,0-9,3.1-9,9.2v9.1c0,6.2,3,9.2,9,9.2c6.1,0,9.1-2.9,9.1-8.7h9.6V568.4z"/>
		<path class="st0" d="M161.1,570.6c0,4.4-1.7,7.9-5.2,10.5c-3.5,2.6-8.1,3.9-13.8,3.9c-5.7,0-10.3-1.5-13.9-4.4
			c-3.5-3-5.3-7.1-5.3-12.3V558c0-5.4,1.8-9.8,5.4-13c3.6-3.2,8.2-4.8,13.8-4.8c5.8,0,10.4,1.6,13.9,4.8c3.5,3.2,5.2,7.6,5.2,13.2
			v7.7h-28.8v2.1c0,3,0.9,5.2,2.7,6.7c1.8,1.5,4.2,2.2,7.1,2.2c6.3,0,9.4-2.2,9.4-6.7h9.6V570.6z M151.8,558c0-3.1-0.9-5.4-2.6-7.1
			c-1.7-1.6-4.1-2.5-7.1-2.5c-3.1,0-5.5,0.8-7.2,2.5c-1.7,1.7-2.6,4-2.6,7.1v1.1h19.4V558z"/>
		<path class="st0" d="M111.7,584.3c-5.2,0-9.2-1.3-12.2-3.8c-2.9-2.6-4.4-6.2-4.4-11.1v-20h-6.6v-8.5h6.6v-11.8h10.2v11.8h12v8.5
			h-12v19.4c0,2.5,0.6,4.2,1.7,5.3c1.2,1,3,1.6,5.4,1.6h5.1v8.7H111.7z"/>
		<path class="st0" d="M73.2,584.3v-5l-4.5,2.5c-4,2.1-7.8,3.1-11.4,3.1c-3.8,0-7-1.1-9.4-3.4c-2.4-2.3-3.6-5.3-3.6-8.9
			c0-4.3,1.5-7.6,4.5-9.9c3-2.3,6.9-3.4,11.6-3.4h12.9v-2.6c0-5.5-3-8.3-8.9-8.3c-6.3,0-9.4,2.5-9.4,7.6h-9.7v-0.6
			c0-4.8,1.7-8.6,5.2-11.3c3.5-2.7,8.1-4,13.8-4c5.9,0,10.5,1.4,13.8,4.3s4.9,6.9,4.9,12v27.9H73.2z M73.2,566.3H61.7
			c-4.9,0-7.4,1.9-7.4,5.7c0,1.5,0.5,2.7,1.4,3.6c0.9,0.9,2.2,1.3,3.8,1.3c2.3,0,4.8-0.7,7.5-2.1l6.3-3.4V566.3z"/>
		<polygon class="st0" points="11,558.9 11,584.3 0,584.3 0,523 39.8,523 39.8,532.7 11,532.7 11,549.2 37.3,549.2 37.3,558.9 		"/>
	</g>
	<g>
		<path class="st2" d="M648.6,465.3c0,6.5-2.2,11.6-6.5,15.5c-4.3,3.9-10,5.8-17,5.8c-7,0-12.7-1.9-17-5.8c-4.3-3.9-6.5-9-6.5-15.5
			v-11.4c0-6.5,2.2-11.7,6.5-15.6c4.3-3.9,10-5.8,17-5.8c7,0,12.7,1.9,17,5.8c4.3,3.9,6.5,9,6.5,15.6V465.3z M637.2,455.1
			c0-3.8-1.1-6.8-3.3-8.9c-2.2-2.1-5.1-3.2-8.7-3.2c-3.6,0-6.5,1.1-8.7,3.2s-3.3,5.1-3.3,8.9v9c0,3.8,1.1,6.8,3.3,8.9
			s5.1,3.2,8.7,3.2c3.6,0,6.5-1.1,8.7-3.2c2.2-2.1,3.3-5.1,3.3-8.9V455.1z"/>
		<rect x="577.7" y="433.3" class="st2" width="12.3" height="52.1"/>
		<path class="st2" d="M590.7,419.3c0,1.8-0.6,3.2-1.9,4.2c-1.3,1-2.9,1.5-4.9,1.5c-2,0-3.6-0.5-4.9-1.5c-1.3-1-1.9-2.4-1.9-4.2
			v-2.2c0-1.8,0.6-3.3,1.9-4.3c1.3-1,2.9-1.5,4.9-1.5c2,0,3.7,0.5,4.9,1.5c1.3,1,1.9,2.4,1.9,4.3V419.3z"/>
		<path class="st2" d="M566.6,466.5c0,6.4-2,11.3-6.1,14.7c-4.1,3.4-9.5,5.1-16.5,5.1c-6.9,0-12.3-1.8-16.4-5.4
			c-4.1-3.6-6.1-8.6-6.1-15V453c0-6.4,2-11.4,6.1-15c4.1-3.6,9.5-5.4,16.3-5.4c6.9,0,12.4,1.7,16.5,5.2c4.1,3.5,6.1,8.4,6.1,14.8
			v0.9H555c0-7-3.7-10.5-11-10.5c-7.2,0-10.8,3.7-10.8,11.1v10.9c0,7.4,3.6,11.1,10.8,11.1c7.3,0,11-3.5,11-10.4h11.6V466.5z"/>
		<path class="st2" d="M511.3,465.3c0,6.5-2.2,11.6-6.5,15.5c-4.3,3.9-10,5.8-17,5.8c-7,0-12.7-1.9-17-5.8c-4.3-3.9-6.5-9-6.5-15.5
			v-11.4c0-6.5,2.2-11.7,6.5-15.6c4.3-3.9,10-5.8,17-5.8c7,0,12.7,1.9,17,5.8c4.3,3.9,6.5,9,6.5,15.6V465.3z M499.9,455.1
			c0-3.8-1.1-6.8-3.3-8.9c-2.2-2.1-5.1-3.2-8.7-3.2c-3.6,0-6.5,1.1-8.7,3.2s-3.3,5.1-3.3,8.9v9c0,3.8,1.1,6.8,3.3,8.9
			s5.1,3.2,8.7,3.2c3.6,0,6.5-1.1,8.7-3.2c2.2-2.1,3.3-5.1,3.3-8.9V455.1z"/>
		<polygon class="st2" points="478.6,426.3 489.3,411.9 504.5,411.9 491.8,426.3 		"/>
		<path class="st2" d="M418.4,466.6c-2.4,0-3.6,1.2-3.6,3.5c0,2.2,1.1,3.3,3.4,3.3h20.2c12.5,0,18.7,4.8,18.7,14.3
			c0,5.3-2.2,9.5-6.5,12.4s-10.1,4.3-17.4,4.3c-15.5,0-23.2-6.6-23.2-19.8v-5.2c-3.4-1.6-5.1-4.7-5.1-9.3c0-2.7,0.6-4.9,1.9-6.6
			c1.3-1.7,3-2.9,5.1-3.5c-0.3-0.2-0.6-0.5-1-1c-0.4-0.5-1-1.5-1.7-3.3c-0.7-1.7-1-3.6-1-5.6c0-5.4,1.7-9.5,5.2-12.4
			c3.5-2.9,8.1-4.3,14-4.3h30.1v10.1H450c1.7,1.4,2.6,3.8,2.6,7.1c0,4.9-1.7,8.8-5.1,11.7c-3.4,2.9-8,4.3-13.8,4.3H418.4z
			 M432,457.9c6.6,0,9.9-2.6,9.9-7.7c0-5.1-3-7.6-8.9-7.6h-4.5c-3,0-5.3,0.6-6.8,1.7c-1.5,1.2-2.3,3.2-2.3,6.1c0,5,3,7.5,8.9,7.5
			H432z M420.6,482.1v2.2c0,3.8,0.9,6.5,2.8,8.4c1.8,1.8,5,2.7,9.6,2.7c8.4,0,12.7-2.5,12.7-7.4c0-3.9-3-5.8-8.9-5.8H420.6z"/>
		<path class="st2" d="M396.6,469c0,5.3-2.1,9.5-6.2,12.6c-4.2,3.1-9.7,4.7-16.6,4.7c-6.9,0-12.4-1.8-16.7-5.3
			c-4.3-3.6-6.4-8.5-6.4-14.7v-12.4c0-6.5,2.1-11.7,6.4-15.6c4.3-3.9,9.8-5.8,16.6-5.8c6.9,0,12.5,1.9,16.7,5.7
			c4.2,3.8,6.3,9.1,6.3,15.8v9.2h-34.6v2.6c0,3.6,1.1,6.2,3.2,8c2.1,1.8,5,2.7,8.5,2.7c7.5,0,11.3-2.7,11.3-8h11.5V469z
			 M385.4,453.9c0-3.7-1-6.5-3.1-8.5s-4.9-3-8.5-3c-3.7,0-6.6,1-8.6,3c-2.1,2-3.1,4.9-3.1,8.5v1.3h23.3V453.9z"/>
		<path class="st2" d="M327.6,485.4v-34.2c0-2.2-0.6-4-1.8-5.5c-1.2-1.5-2.9-2.2-5.1-2.2c-2,0-4.3,0.8-6.8,2.3l-7.6,4.5v35.1h-12
			v-52.1h11.9v6.1l5.5-3.4c3.4-2.1,7.3-3.2,11.6-3.4c5.1,0,9.1,1.5,12,4.6c2.9,3.1,4.4,7.2,4.4,12.3v35.8H327.6z"/>
		<path class="st2" d="M282.9,465.3c0,6.5-2.2,11.6-6.5,15.5c-4.3,3.9-10,5.8-17,5.8c-7,0-12.7-1.9-17-5.8c-4.3-3.9-6.5-9-6.5-15.5
			v-11.4c0-6.5,2.2-11.7,6.5-15.6c4.3-3.9,10-5.8,17-5.8c7,0,12.7,1.9,17,5.8c4.3,3.9,6.5,9,6.5,15.6V465.3z M271.5,455.1
			c0-3.8-1.1-6.8-3.3-8.9c-2.2-2.1-5.1-3.2-8.7-3.2c-3.6,0-6.5,1.1-8.7,3.2c-2.2,2.1-3.3,5.1-3.3,8.9v9c0,3.8,1.1,6.8,3.3,8.9
			c2.2,2.1,5.1,3.2,8.7,3.2c3.6,0,6.5-1.1,8.7-3.2c2.2-2.1,3.3-5.1,3.3-8.9V455.1z"/>
		<path class="st2" d="M199.1,485.4v-52.1h12v7.4l2.3-2.3c3.9-3.7,8.2-5.5,12.9-5.5h3.1v12.2h-3c-4.2,0-7.9,1.2-11,3.6l-4.1,3.4
			v33.4H199.1z"/>
		<path class="st2" d="M152.2,466.6c-2.4,0-3.6,1.2-3.6,3.5c0,2.2,1.1,3.3,3.4,3.3h20.2c12.5,0,18.7,4.8,18.7,14.3
			c0,5.3-2.2,9.5-6.5,12.4s-10.1,4.3-17.4,4.3c-15.5,0-23.2-6.6-23.2-19.8v-5.2c-3.4-1.6-5.1-4.7-5.1-9.3c0-2.7,0.6-4.9,1.9-6.6
			c1.3-1.7,3-2.9,5.1-3.5c-0.3-0.2-0.6-0.5-1-1c-0.4-0.5-1-1.5-1.7-3.3c-0.7-1.7-1-3.6-1-5.6c0-5.4,1.7-9.5,5.2-12.4
			c3.5-2.9,8.1-4.3,14-4.3h30.1v10.1h-7.4c1.7,1.4,2.6,3.8,2.6,7.1c0,4.9-1.7,8.8-5.1,11.7c-3.4,2.9-8,4.3-13.8,4.3H152.2z
			 M165.7,457.9c6.6,0,9.9-2.6,9.9-7.7c0-5.1-3-7.6-8.9-7.6h-4.5c-3,0-5.3,0.6-6.8,1.7c-1.5,1.2-2.3,3.2-2.3,6.1c0,5,3,7.5,8.9,7.5
			H165.7z M154.4,482.1v2.2c0,3.8,0.9,6.5,2.8,8.4s5,2.7,9.6,2.7c8.4,0,12.7-2.5,12.7-7.4c0-3.9-3-5.8-8.9-5.8H154.4z"/>
		<path class="st2" d="M118.9,485.4l-4.7-13.9H85.1l-4.6,13.9H66.2l25.4-73.5h16.3l25.4,73.5H118.9z M99.6,426l-11.5,34.2h23
			L99.6,426z"/>
	</g>
	<path class="st3" d="M443.6,86.2C262.2,200,242.5,330.4,242.5,330.4c86.2,0,301.7-43.1,301.7-330.4
		C170.6,0,170.6,316.1,170.6,373.5C258.7,124.1,443.6,86.2,443.6,86.2z"/>
</g>
</svg>
