<?xml version="1.0" encoding="utf-8"?>
<!-- Generator: Adobe Illustrator 22.1.0, SVG Export Plug-In . SVG Version: 6.00 Build 0)  -->
<svg version="1.1" id="Layer_1" xmlns="http://www.w3.org/2000/svg" xmlns:xlink="http://www.w3.org/1999/xlink" x="0px" y="0px"
	 viewBox="0 0 600.5 600" style="enable-background:new 0 0 600.5 600;" xml:space="preserve">
<style type="text/css">
	.st0{fill:#4A555C;}
	.st1{fill:#00648C;}
	.st2{fill:#44A929;}
	.st3{fill:#A5C800;}
	.st4{fill:#D20000;}
	.st5{fill:#0096D2;}
	.st6{fill:#00A096;}
	.st7{fill:#00A0E4;}
</style>
<g>
	<g>
		<path class="st0" d="M592.2,586.8v-4.2l-3.8,2.1c-3.3,1.8-6.5,2.6-9.6,2.6c-3.2,0-5.8-1-7.9-2.9c-2-1.9-3-4.4-3-7.5
			c0-3.6,1.3-6.4,3.8-8.3c2.5-1.9,5.8-2.8,9.7-2.8h10.9v-2.1c0-4.7-2.5-7-7.5-7c-5.3,0-7.9,2.1-7.9,6.4h-8.2v-0.5
			c0-4.1,1.5-7.2,4.4-9.5c2.9-2.3,6.8-3.4,11.6-3.4c5,0,8.8,1.2,11.6,3.6s4.1,5.8,4.1,10.1v23.5H592.2z M592.2,571.7h-9.7
			c-4.2,0-6.2,1.6-6.2,4.8c0,1.3,0.4,2.3,1.1,3c0.8,0.7,1.8,1.1,3.2,1.1c1.9,0,4-0.6,6.3-1.8l5.3-2.8V571.7z"/>
		<path class="st0" d="M536.5,573.6c-1.7,0-2.5,0.8-2.5,2.4c0,1.5,0.8,2.3,2.4,2.3h14.1c8.7,0,13.1,3.3,13.1,10
			c0,3.7-1.5,6.6-4.6,8.7c-3,2-7.1,3-12.2,3c-10.8,0-16.3-4.6-16.3-13.8v-3.7c-2.4-1.1-3.6-3.3-3.6-6.5c0-1.9,0.4-3.4,1.3-4.6
			c0.9-1.2,2.1-2,3.6-2.4c-0.2-0.1-0.4-0.4-0.7-0.7c-0.3-0.3-0.7-1.1-1.2-2.3c-0.5-1.2-0.7-2.5-0.7-3.9c0-3.8,1.2-6.7,3.6-8.7
			c2.4-2,5.7-3,9.8-3h21.1v7.1h-5.2c1.2,1,1.8,2.6,1.8,5c0,3.5-1.2,6.2-3.6,8.2c-2.4,2-5.6,3-9.7,3H536.5z M546,567.5
			c4.6,0,6.9-1.8,6.9-5.4c0-3.6-2.1-5.3-6.2-5.3h-3.2c-2.1,0-3.7,0.4-4.8,1.2c-1.1,0.8-1.6,2.2-1.6,4.3c0,3.5,2.1,5.3,6.2,5.3H546z
			 M538,584.4v1.5c0,2.6,0.6,4.6,1.9,5.8c1.3,1.3,3.5,1.9,6.7,1.9c5.9,0,8.9-1.7,8.9-5.2c0-2.7-2.1-4.1-6.2-4.1H538z"/>
		<path class="st0" d="M512.3,586.8v-23.9c0-1.5-0.4-2.8-1.2-3.8s-2-1.6-3.6-1.6c-1.4,0-3,0.5-4.8,1.6l-5.3,3.2v24.6h-8.4v-36.5h8.3
			v4.3l3.9-2.4c2.4-1.5,5.1-2.3,8.1-2.4c3.6,0,6.4,1.1,8.4,3.3c2.1,2.2,3.1,5,3.1,8.6v25.1H512.3z"/>
		<rect x="471.5" y="550.3" class="st0" width="8.6" height="36.5"/>
		<path class="st0" d="M480.6,540.5c0,1.2-0.4,2.2-1.3,2.9c-0.9,0.7-2,1-3.5,1c-1.4,0-2.5-0.3-3.4-1c-0.9-0.7-1.3-1.7-1.3-2.9V539
			c0-1.3,0.4-2.3,1.3-3c0.9-0.7,2-1,3.4-1c1.4,0,2.6,0.3,3.5,1c0.9,0.7,1.3,1.7,1.3,3V540.5z"/>
		<path class="st0" d="M459.8,586.8c-4.3,0-7.7-1.1-10.2-3.2c-2.5-2.1-3.7-5.2-3.7-9.3v-16.8h-5.5v-7.1h5.5v-9.9h8.6v9.9h10.1v7.1
			h-10.1v16.3c0,2.1,0.5,3.6,1.5,4.4c1,0.9,2.5,1.3,4.6,1.3h4.3v7.3H459.8z"/>
		<rect x="425.9" y="550.3" class="st0" width="8.6" height="36.5"/>
		<path class="st0" d="M435,540.5c0,1.2-0.4,2.2-1.3,2.9c-0.9,0.7-2,1-3.5,1c-1.4,0-2.5-0.3-3.4-1c-0.9-0.7-1.3-1.7-1.3-2.9V539
			c0-1.3,0.5-2.3,1.3-3c0.9-0.7,2-1,3.4-1c1.4,0,2.6,0.3,3.5,1c0.9,0.7,1.3,1.7,1.3,3V540.5z"/>
		<path class="st0" d="M399.3,586.8v-36.5h8.4v5.2l1.6-1.6c2.7-2.6,5.7-3.9,9-3.9h2.1v8.5h-2.1c-3,0-5.5,0.8-7.7,2.5l-2.8,2.4v23.4
			H399.3z"/>
		<path class="st0" d="M382.7,586.8v-4.2l-3.8,2.1c-3.3,1.8-6.5,2.6-9.6,2.6c-3.2,0-5.8-1-7.9-2.9c-2-1.9-3-4.4-3-7.5
			c0-3.6,1.3-6.4,3.8-8.3c2.5-1.9,5.8-2.8,9.7-2.8h10.9v-2.1c0-4.7-2.5-7-7.5-7c-5.3,0-7.9,2.1-7.9,6.4h-8.2v-0.5
			c0-4.1,1.5-7.2,4.4-9.5c2.9-2.3,6.8-3.4,11.6-3.4c5,0,8.8,1.2,11.6,3.6c2.7,2.4,4.1,5.8,4.1,10.1v23.5H382.7z M382.7,571.7h-9.7
			c-4.2,0-6.2,1.6-6.2,4.8c0,1.3,0.4,2.3,1.1,3c0.8,0.7,1.8,1.1,3.2,1.1c1.9,0,4-0.6,6.3-1.8l5.3-2.8V571.7z"/>
		<path class="st0" d="M342.8,586.8v-4.2l-3.9,2.3c-2.5,1.6-5.2,2.4-8.1,2.4c-3.6,0-6.4-1.1-8.4-3.3c-2.1-2.2-3.1-5-3.1-8.6v-25.1
			h8.4v24c0,1.6,0.4,2.9,1.3,3.9c0.9,1,2.1,1.5,3.5,1.5c1.4,0,3-0.5,4.8-1.6l5.3-3.1v-24.6h8.4v36.5H342.8z"/>
		<path class="st0" d="M302.6,599.5v-16.7l-4.2,2.3c-2.7,1.4-5.4,2.1-8.2,2.1c-3.7,0-6.8-1.2-9.1-3.5c-2.3-2.3-3.5-5.3-3.5-9v-12.2
			c0-3.7,1.2-6.8,3.5-9.1c2.4-2.4,5.4-3.5,9.1-3.5c2.7,0,5.4,0.7,8,2.1l4.2,2.3v-3.9h8.2v49.2H302.6z M302.6,562l-5.8-3.3
			c-1.7-0.9-3.4-1.4-5.1-1.4c-1.8,0-3.1,0.5-4.2,1.6c-1,1.1-1.6,2.5-1.6,4.3v10.4c0,1.8,0.5,3.2,1.6,4.3c1,1.1,2.4,1.6,4.2,1.6
			c1.8,0,3.5-0.5,5.1-1.5l5.8-3.2V562z"/>
		<path class="st0" d="M262,586.8v-4.2l-3.8,2.1c-3.3,1.8-6.5,2.6-9.6,2.6c-3.2,0-5.8-1-7.9-2.9c-2-1.9-3-4.4-3-7.5
			c0-3.6,1.3-6.4,3.8-8.3c2.5-1.9,5.8-2.8,9.7-2.8h10.9v-2.1c0-4.7-2.5-7-7.5-7c-5.3,0-7.9,2.1-7.9,6.4h-8.2v-0.5
			c0-4.1,1.5-7.2,4.4-9.5c2.9-2.3,6.8-3.4,11.6-3.4c5,0,8.8,1.2,11.6,3.6c2.7,2.4,4.1,5.8,4.1,10.1v23.5H262z M262,571.7h-9.7
			c-4.2,0-6.2,1.6-6.2,4.8c0,1.3,0.4,2.3,1.1,3c0.8,0.7,1.8,1.1,3.2,1.1c1.9,0,4-0.6,6.3-1.8l5.3-2.8V571.7z"/>
		<polygon class="st0" points="214.3,586.8 214.3,543.4 199.7,543.4 199.7,535.3 238.4,535.3 238.4,543.4 223.9,543.4 223.9,586.8 
					"/>
		<path class="st0" d="M174.1,573.5c0,4.5-1.4,7.9-4.3,10.3c-2.8,2.4-6.7,3.6-11.5,3.6c-4.8,0-8.6-1.3-11.5-3.8
			c-2.8-2.5-4.3-6-4.3-10.5v-9.1c0-4.5,1.4-8,4.3-10.5c2.9-2.5,6.7-3.8,11.4-3.8c4.8,0,8.7,1.2,11.5,3.6c2.8,2.4,4.3,5.9,4.3,10.3
			v0.6H166c0-4.9-2.6-7.3-7.7-7.3c-5,0-7.5,2.6-7.5,7.8v7.6c0,5.2,2.5,7.8,7.5,7.8c5.1,0,7.7-2.4,7.7-7.3h8.1V573.5z"/>
		<path class="st0" d="M135.3,575.3c0,3.7-1.5,6.6-4.4,8.8c-2.9,2.2-6.8,3.3-11.6,3.3c-4.8,0-8.7-1.2-11.7-3.7
			c-3-2.5-4.5-5.9-4.5-10.3v-8.7c0-4.6,1.5-8.2,4.5-10.9c3-2.7,6.9-4,11.6-4c4.8,0,8.7,1.3,11.7,4c2.9,2.7,4.4,6.4,4.4,11.1v6.4
			h-24.2v1.8c0,2.5,0.7,4.4,2.2,5.6c1.5,1.2,3.5,1.9,6,1.9c5.3,0,7.9-1.9,7.9-5.6h8V575.3z M127.5,564.7c0-2.6-0.7-4.6-2.1-6
			c-1.4-1.4-3.4-2.1-6-2.1c-2.6,0-4.6,0.7-6.1,2.1c-1.5,1.4-2.2,3.4-2.2,6v0.9h16.3V564.7z"/>
		<path class="st0" d="M93.8,586.8c-4.3,0-7.7-1.1-10.2-3.2c-2.5-2.1-3.7-5.2-3.7-9.3v-16.8h-5.5v-7.1h5.5v-9.9h8.6v9.9h10.1v7.1
			H88.5v16.3c0,2.1,0.5,3.6,1.5,4.4c1,0.9,2.5,1.3,4.6,1.3h4.3v7.3H93.8z"/>
		<path class="st0" d="M61.5,586.8v-4.2l-3.8,2.1c-3.3,1.8-6.5,2.6-9.6,2.6c-3.2,0-5.8-1-7.9-2.9c-2-1.9-3-4.4-3-7.5
			c0-3.6,1.3-6.4,3.8-8.3c2.5-1.9,5.8-2.8,9.7-2.8h10.9v-2.1c0-4.7-2.5-7-7.5-7c-5.3,0-7.9,2.1-7.9,6.4h-8.2v-0.5
			c0-4.1,1.5-7.2,4.4-9.5c2.9-2.3,6.8-3.4,11.6-3.4c5,0,8.8,1.2,11.6,3.6c2.7,2.4,4.1,5.8,4.1,10.1v23.5H61.5z M61.5,571.7h-9.7
			c-4.2,0-6.2,1.6-6.2,4.8c0,1.3,0.4,2.3,1.1,3c0.8,0.7,1.8,1.1,3.2,1.1c1.9,0,4-0.6,6.3-1.8l5.3-2.8V571.7z"/>
		<polygon class="st0" points="9.3,565.5 9.3,586.8 0,586.8 0,535.3 33.4,535.3 33.4,543.5 9.3,543.5 9.3,557.3 31.3,557.3 
			31.3,565.5 		"/>
	</g>
	<g>
		<rect x="534.4" y="436.8" class="st6" width="11.2" height="66.9"/>
		<path class="st6" d="M512.9,503.8v-5.5L508,501c-4.3,2.3-8.5,3.4-12.5,3.4c-4.2,0-7.6-1.2-10.2-3.7c-2.6-2.5-3.9-5.7-3.9-9.8
			c0-4.7,1.6-8.3,4.9-10.8c3.3-2.5,7.5-3.7,12.6-3.7H513v-2.8c0-6.1-3.2-9.1-9.7-9.1c-6.8,0-10.3,2.8-10.3,8.3h-10.6v-0.6
			c0-5.3,1.9-9.4,5.7-12.3c3.8-2.9,8.8-4.4,15.1-4.4c6.5,0,11.5,1.6,15.1,4.7s5.4,7.5,5.4,13.1v30.5H512.9z M512.9,484.2h-12.6
			c-5.4,0-8.1,2.1-8.1,6.2c0,1.7,0.5,3,1.5,3.9c1,0.9,2.4,1.4,4.2,1.4c2.5,0,5.2-0.8,8.2-2.3l6.8-3.7V484.2z"/>
		<rect x="460.5" y="456.4" class="st6" width="11.2" height="47.4"/>
		<path class="st6" d="M472.3,443.6c0,1.6-0.6,2.9-1.7,3.8c-1.1,0.9-2.6,1.3-4.5,1.3c-1.8,0-3.3-0.4-4.5-1.3
			c-1.2-0.9-1.8-2.2-1.8-3.8v-2c0-1.7,0.6-3,1.8-3.9c1.2-0.9,2.7-1.3,4.5-1.3c1.9,0,3.4,0.4,4.5,1.3c1.1,0.9,1.7,2.2,1.7,3.9V443.6z
			"/>
		<path class="st6" d="M425.9,503.8v-47.4h10.9v6.7l2.1-2.1c3.5-3.4,7.4-5,11.7-5h2.8v11.1h-2.7c-3.8,0-7.2,1.1-10,3.2l-3.7,3.1
			v30.4H425.9z"/>
		<path class="st6" d="M404.4,503.8v-5.5l-4.9,2.7c-4.3,2.3-8.5,3.4-12.5,3.4c-4.2,0-7.6-1.2-10.2-3.7c-2.6-2.5-3.9-5.7-3.9-9.8
			c0-4.7,1.6-8.3,4.9-10.8c3.3-2.5,7.5-3.7,12.6-3.7h14.1v-2.8c0-6.1-3.2-9.1-9.7-9.1c-6.8,0-10.3,2.8-10.3,8.3h-10.6v-0.6
			c0-5.3,1.9-9.4,5.7-12.3c3.8-2.9,8.8-4.4,15.1-4.4c6.5,0,11.5,1.6,15.1,4.7s5.4,7.5,5.4,13.1v30.5H404.4z M404.4,484.2h-12.6
			c-5.4,0-8.1,2.1-8.1,6.2c0,1.7,0.5,3,1.5,3.9c1,0.9,2.4,1.4,4.2,1.4c2.5,0,5.2-0.8,8.2-2.3l6.8-3.7V484.2z"/>
		<path class="st6" d="M354,471.7c0-4.9-3.2-7.4-9.6-7.4c-2.9,0-5.2,0.5-6.8,1.6c-1.6,1.1-2.4,2.5-2.4,4.2c0,2,1,3.4,3.1,4.3
			c2,0.9,4.5,1.5,7.4,1.8c2.9,0.3,5.8,0.7,8.8,1.3c2.9,0.6,5.4,1.8,7.5,3.8c2,2,3.1,4.8,3.1,8.4c0,4.6-1.8,8.2-5.5,10.8
			c-3.7,2.6-8.7,3.9-15,3.9c-6.5,0-11.6-1.4-15.2-4.1c-3.6-2.7-5.4-6.5-5.4-11.4v-0.5h11c0,4.9,3.3,7.4,9.9,7.4
			c3.1,0,5.4-0.5,7.2-1.6c1.7-1.1,2.6-2.5,2.6-4.2c0-1.5-0.7-2.7-2.2-3.5c-1.5-0.8-3.3-1.3-5.5-1.5c-2.2-0.2-4.6-0.5-7.2-1
			c-2.5-0.5-4.9-1.1-7.1-1.8c-2.2-0.7-4.1-2.1-5.5-4.1c-1.5-2-2.2-4.5-2.2-7.6c0-4.6,1.8-8.2,5.4-10.9s8.5-4,14.7-4
			c6.4,0,11.4,1.4,14.8,4.1c3.5,2.8,5.2,6.6,5.2,11.4v0.5H354z"/>
		<path class="st6" d="M314.9,488.8c0,4.8-1.9,8.6-5.7,11.5c-3.8,2.8-8.8,4.3-15.1,4.3c-6.2,0-11.3-1.6-15.2-4.9
			c-3.9-3.2-5.8-7.7-5.8-13.4v-11.2c0-5.9,1.9-10.7,5.8-14.2c3.9-3.5,8.9-5.3,15.1-5.3c6.3,0,11.3,1.7,15.2,5.2
			c3.8,3.5,5.7,8.3,5.7,14.4v8.4h-31.5v2.3c0,3.2,1,5.7,2.9,7.3c1.9,1.6,4.5,2.4,7.8,2.4c6.8,0,10.3-2.4,10.3-7.3h10.4V488.8z
			 M304.7,475.1c0-3.4-0.9-5.9-2.8-7.7c-1.9-1.8-4.4-2.7-7.7-2.7c-3.4,0-6,0.9-7.9,2.7c-1.9,1.8-2.8,4.4-2.8,7.8v1.2h21.2V475.1z"/>
		<path class="st6" d="M239.7,503.8v-47.4h10.9v6.7l2.1-2.1c3.5-3.4,7.4-5,11.7-5h2.8v11.1h-2.7c-3.8,0-7.2,1.1-10,3.2l-3.7,3.1
			v30.4H239.7z"/>
		<path class="st6" d="M186.4,520.3v-64H197v5.1l5.5-3c3.5-1.9,7-2.8,10.6-2.8c4.9,0,8.8,1.5,11.8,4.5c3,3,4.5,6.9,4.5,11.7v15.9
			c0,4.9-1.5,8.8-4.6,11.9c-3.1,3.1-7,4.6-12,4.6c-3.5,0-7-0.9-10.4-2.8l-5.4-3v21.8H186.4z M218.7,473.3c0-2.3-0.7-4.2-2-5.6
			c-1.3-1.4-3.1-2.1-5.4-2.1c-2.2,0-4.4,0.6-6.7,1.8l-7.5,4.2v16.9l7.5,4.1c2.2,1.3,4.4,1.9,6.7,1.9c2.2,0,4-0.7,5.4-2.1
			c1.3-1.4,2-3.3,2-5.6V473.3z"/>
		<path class="st6" d="M164.3,503.8v-32.2c0-3.9-1.7-5.8-5-5.8c-1.5,0-3.4,0.6-5.7,1.9l-5.8,3.5v32.7H137v-32.1
			c0-3.9-1.7-5.8-4.9-5.8c-1.6,0-3.5,0.6-5.8,1.8l-5.7,3.5v32.7h-10.9v-47.4h10.7v4.9l4.2-2.5c3.2-1.9,6.6-2.9,10-2.9
			c5.5,0,9.3,2.1,11.2,6.4l5.2-3.1c3.5-2.2,7.1-3.2,10.9-3.2c4.1,0,7.4,1.3,9.7,3.8c2.3,2.5,3.5,6.1,3.5,10.6v33.5H164.3z"/>
		<polygon class="st6" points="54.8,503.8 54.8,436.8 99.2,436.8 99.2,447.5 66.7,447.5 66.7,464.5 95.8,464.5 95.8,475.2 
			66.7,475.2 66.7,493.1 99.4,493.1 99.4,503.8 		"/>
		<path class="st6" d="M448.4,395.5c0,5.9-2,10.6-5.9,14.1c-4,3.5-9.1,5.3-15.5,5.3c-6.4,0-11.5-1.8-15.5-5.3
			c-4-3.5-5.9-8.2-5.9-14.1v-10.3c0-5.9,2-10.7,5.9-14.2c4-3.5,9.1-5.3,15.5-5.3c6.4,0,11.5,1.8,15.5,5.3c4,3.5,5.9,8.2,5.9,14.2
			V395.5z M437.9,386.2c0-3.5-1-6.2-3-8.1c-2-1.9-4.7-2.9-8-2.9c-3.3,0-6,1-8,2.9c-2,1.9-3,4.7-3,8.1v8.2c0,3.5,1,6.2,3,8.1
			c2,1.9,4.7,2.9,8,2.9c3.3,0,5.9-1,8-2.9c2-1.9,3-4.7,3-8.1V386.2z"/>
		<path class="st6" d="M385.1,413.8v-5.5l-4.9,2.7c-4.3,2.3-8.5,3.4-12.5,3.4c-4.2,0-7.6-1.2-10.2-3.7c-2.6-2.5-3.9-5.7-3.9-9.8
			c0-4.7,1.6-8.3,4.9-10.8c3.3-2.5,7.5-3.7,12.6-3.7h14.1v-2.8c0-6.1-3.2-9.1-9.7-9.1c-6.8,0-10.3,2.8-10.3,8.3h-10.6v-0.6
			c0-5.3,1.9-9.4,5.7-12.3c3.8-2.9,8.8-4.4,15.1-4.4c6.5,0,11.5,1.6,15.1,4.7s5.4,7.5,5.4,13.1v30.5H385.1z M385.1,394.2h-12.6
			c-5.4,0-8.1,2.1-8.1,6.2c0,1.7,0.5,3,1.5,3.9c1,0.9,2.4,1.4,4.2,1.4c2.5,0,5.2-0.8,8.2-2.3l6.8-3.7V394.2z"/>
		<path class="st6" d="M394.4,347.4c0,3.8-1,6.9-2.9,9.3s-4.6,3.6-8.1,3.6c-2,0-3.9-0.5-5.5-1.4c-1.6-0.9-3-1.8-4.3-2.7
			c-1.2-0.9-2.4-1.3-3.5-1.3c-2.4,0-3.6,1.7-3.6,5.2h-8.7v-0.6c0-3.8,1-6.9,2.9-9.2c1.9-2.4,4.6-3.6,8.1-3.6c2,0,3.9,0.4,5.4,1.3
			c1.6,0.9,3,1.8,4.2,2.7c1.2,0.9,2.4,1.3,3.5,1.3c2.5,0,3.7-1.7,3.7-5.1h8.7V347.4z"/>
		<path class="st6" d="M340.3,413.8c-5.6,0-10.1-1.4-13.3-4.2c-3.2-2.8-4.8-6.8-4.8-12.1v-21.9H315v-9.3h7.2v-12.9h11.2v12.9h13.1
			v9.3h-13.1v21.2c0,2.7,0.6,4.6,1.9,5.8c1.3,1.1,3.2,1.7,5.9,1.7h5.6v9.4H340.3z"/>
		<path class="st6" d="M298.3,381.8c0-4.9-3.2-7.4-9.6-7.4c-2.9,0-5.2,0.5-6.8,1.6c-1.6,1.1-2.4,2.5-2.4,4.2c0,2,1,3.4,3.1,4.3
			c2,0.9,4.5,1.5,7.4,1.8c2.9,0.3,5.8,0.7,8.8,1.3c2.9,0.6,5.4,1.8,7.5,3.8c2,2,3.1,4.8,3.1,8.4c0,4.6-1.8,8.2-5.5,10.8
			c-3.7,2.6-8.7,3.9-15,3.9c-6.5,0-11.6-1.4-15.2-4.1c-3.6-2.7-5.4-6.5-5.4-11.4v-0.5h11c0,4.9,3.3,7.4,9.9,7.4
			c3.1,0,5.4-0.5,7.2-1.6c1.7-1.1,2.6-2.5,2.6-4.2c0-1.5-0.7-2.7-2.2-3.5s-3.3-1.3-5.5-1.5c-2.2-0.2-4.6-0.5-7.2-1s-4.9-1.1-7.2-1.8
			c-2.2-0.7-4.1-2.1-5.5-4.1c-1.5-2-2.2-4.5-2.2-7.6c0-4.6,1.8-8.2,5.4-10.9c3.6-2.6,8.5-4,14.8-4c6.4,0,11.4,1.4,14.8,4.1
			c3.5,2.8,5.2,6.6,5.2,11.4v0.5H298.3z"/>
		<path class="st6" d="M259.1,398.9c0,4.8-1.9,8.6-5.7,11.5c-3.8,2.8-8.8,4.3-15.1,4.3c-6.2,0-11.3-1.6-15.2-4.9
			c-3.9-3.2-5.8-7.7-5.8-13.4v-11.2c0-5.9,1.9-10.7,5.8-14.2c3.9-3.5,8.9-5.3,15.1-5.3c6.3,0,11.4,1.7,15.2,5.2
			c3.8,3.5,5.7,8.3,5.7,14.4v8.4h-31.5v2.3c0,3.2,1,5.7,2.9,7.3c1.9,1.6,4.5,2.4,7.8,2.4c6.8,0,10.3-2.4,10.3-7.3h10.4V398.9z
			 M249,385.1c0-3.4-0.9-5.9-2.8-7.7c-1.9-1.8-4.4-2.7-7.7-2.7c-3.4,0-6,0.9-7.9,2.7c-1.9,1.8-2.8,4.4-2.8,7.8v1.2H249V385.1z"/>
		<path class="st6" d="M207.4,391c0,7.6-2.5,13.5-7.4,17.6c-4.9,4.1-11.6,6.2-20,6.2c-8.2,0-14.9-2.3-20.1-6.8
			c-5.2-4.6-7.8-11.5-7.8-20.7v-13.4c0-9.2,2.6-16.1,7.8-20.7c5.2-4.6,11.9-6.9,20.1-6.9c8.4,0,15.1,2.1,20,6.3
			c4.9,4.2,7.4,10.2,7.4,17.9v1.1h-12.1c0-4.9-1.3-8.6-4-11.1c-2.7-2.5-6.4-3.7-11.3-3.7c-10.6,0-15.9,6-15.9,17.9v12.2
			c0,11.9,5.3,17.8,15.9,17.8c5.1,0,9-1.2,11.6-3.6s3.9-5.9,3.9-10.5h-12.4v-9h24.3V391z"/>
	</g>
	<g>
		<rect x="396.8" y="120.7" class="st6" width="60.3" height="193.1"/>
		<rect x="312.3" y="156.9" class="st6" width="60.3" height="156.9"/>
		<rect x="227.8" y="193.1" class="st6" width="60.3" height="120.7"/>
		<rect x="143.3" y="229.3" class="st6" width="60.3" height="84.5"/>
		<polygon class="st7" points="457.1,36.2 360.6,132.8 288.2,60.3 167.5,181 143.3,156.9 143.3,120.7 167.5,144.8 288.2,24.1 
			360.6,96.6 457.1,0 		"/>
	</g>
</g>
</svg>
