<?xml version="1.0" encoding="utf-8"?>
<!-- Generator: Adobe Illustrator 22.1.0, SVG Export Plug-In . SVG Version: 6.00 Build 0)  -->
<svg version="1.1" id="Layer_1" xmlns="http://www.w3.org/2000/svg" xmlns:xlink="http://www.w3.org/1999/xlink" x="0px" y="0px"
	 viewBox="0 0 600.5 600" style="enable-background:new 0 0 600.5 600;" xml:space="preserve">
<style type="text/css">
	.st0{fill:#4A555C;}
	.st1{fill:#00648C;}
	.st2{fill:#44A929;}
	.st3{fill:#A5C800;}
	.st4{fill:#D20000;}
	.st5{fill:#0096D2;}
	.st6{fill:#00A096;}
	.st7{fill:#00A0E4;}
</style>
<g>
	<g>
		<path class="st0" d="M592.2,586.8v-4.2l-3.8,2.1c-3.3,1.8-6.5,2.6-9.6,2.6c-3.2,0-5.8-1-7.9-2.9c-2-1.9-3-4.4-3-7.5
			c0-3.6,1.3-6.4,3.8-8.3c2.5-1.9,5.8-2.8,9.7-2.8h10.9v-2.1c0-4.7-2.5-7-7.5-7c-5.3,0-7.9,2.1-7.9,6.4h-8.2v-0.5
			c0-4.1,1.5-7.2,4.4-9.5c2.9-2.3,6.8-3.4,11.6-3.4c5,0,8.8,1.2,11.6,3.6s4.1,5.8,4.1,10.1v23.5H592.2z M592.2,571.7h-9.7
			c-4.2,0-6.2,1.6-6.2,4.8c0,1.3,0.4,2.3,1.1,3c0.8,0.7,1.8,1.1,3.2,1.1c1.9,0,4-0.6,6.3-1.8l5.3-2.8V571.7z"/>
		<path class="st0" d="M536.5,573.6c-1.7,0-2.5,0.8-2.5,2.4c0,1.5,0.8,2.3,2.4,2.3h14.1c8.7,0,13.1,3.3,13.1,10
			c0,3.7-1.5,6.6-4.6,8.7c-3,2-7.1,3-12.2,3c-10.8,0-16.3-4.6-16.3-13.8v-3.7c-2.4-1.1-3.6-3.3-3.6-6.5c0-1.9,0.4-3.4,1.3-4.6
			c0.9-1.2,2.1-2,3.6-2.4c-0.2-0.1-0.4-0.4-0.7-0.7c-0.3-0.3-0.7-1.1-1.2-2.3c-0.5-1.2-0.7-2.5-0.7-3.9c0-3.8,1.2-6.7,3.6-8.7
			c2.4-2,5.7-3,9.8-3h21.1v7.1h-5.2c1.2,1,1.8,2.6,1.8,5c0,3.5-1.2,6.2-3.6,8.2c-2.4,2-5.6,3-9.7,3H536.5z M546,567.5
			c4.6,0,6.9-1.8,6.9-5.4c0-3.6-2.1-5.3-6.2-5.3h-3.2c-2.1,0-3.7,0.4-4.8,1.2c-1.1,0.8-1.6,2.2-1.6,4.3c0,3.5,2.1,5.3,6.2,5.3H546z
			 M538,584.4v1.5c0,2.6,0.6,4.6,1.9,5.8c1.3,1.3,3.5,1.9,6.7,1.9c5.9,0,8.9-1.7,8.9-5.2c0-2.7-2.1-4.1-6.2-4.1H538z"/>
		<path class="st0" d="M512.3,586.8v-23.9c0-1.5-0.4-2.8-1.2-3.8s-2-1.6-3.6-1.6c-1.4,0-3,0.5-4.8,1.6l-5.3,3.2v24.6h-8.4v-36.5h8.3
			v4.3l3.9-2.4c2.4-1.5,5.1-2.3,8.1-2.4c3.6,0,6.4,1.1,8.4,3.3c2.1,2.2,3.1,5,3.1,8.6v25.1H512.3z"/>
		<rect x="471.5" y="550.3" class="st0" width="8.6" height="36.5"/>
		<path class="st0" d="M480.6,540.5c0,1.2-0.4,2.2-1.3,2.9c-0.9,0.7-2,1-3.5,1c-1.4,0-2.5-0.3-3.4-1c-0.9-0.7-1.3-1.7-1.3-2.9V539
			c0-1.3,0.4-2.3,1.3-3c0.9-0.7,2-1,3.4-1c1.4,0,2.6,0.3,3.5,1c0.9,0.7,1.3,1.7,1.3,3V540.5z"/>
		<path class="st0" d="M459.8,586.8c-4.3,0-7.7-1.1-10.2-3.2c-2.5-2.1-3.7-5.2-3.7-9.3v-16.8h-5.5v-7.1h5.5v-9.9h8.6v9.9h10.1v7.1
			h-10.1v16.3c0,2.1,0.5,3.6,1.5,4.4c1,0.9,2.5,1.3,4.6,1.3h4.3v7.3H459.8z"/>
		<rect x="425.9" y="550.3" class="st0" width="8.6" height="36.5"/>
		<path class="st0" d="M435,540.5c0,1.2-0.4,2.2-1.3,2.9c-0.9,0.7-2,1-3.5,1c-1.4,0-2.5-0.3-3.4-1c-0.9-0.7-1.3-1.7-1.3-2.9V539
			c0-1.3,0.5-2.3,1.3-3c0.9-0.7,2-1,3.4-1c1.4,0,2.6,0.3,3.5,1c0.9,0.7,1.3,1.7,1.3,3V540.5z"/>
		<path class="st0" d="M399.3,586.8v-36.5h8.4v5.2l1.6-1.6c2.7-2.6,5.7-3.9,9-3.9h2.1v8.5h-2.1c-3,0-5.5,0.8-7.7,2.5l-2.8,2.4v23.4
			H399.3z"/>
		<path class="st0" d="M382.7,586.8v-4.2l-3.8,2.1c-3.3,1.8-6.5,2.6-9.6,2.6c-3.2,0-5.8-1-7.9-2.9c-2-1.9-3-4.4-3-7.5
			c0-3.6,1.3-6.4,3.8-8.3c2.5-1.9,5.8-2.8,9.7-2.8h10.9v-2.1c0-4.7-2.5-7-7.5-7c-5.3,0-7.9,2.1-7.9,6.4h-8.2v-0.5
			c0-4.1,1.5-7.2,4.4-9.5c2.9-2.3,6.8-3.4,11.6-3.4c5,0,8.8,1.2,11.6,3.6c2.7,2.4,4.1,5.8,4.1,10.1v23.5H382.7z M382.7,571.7h-9.7
			c-4.2,0-6.2,1.6-6.2,4.8c0,1.3,0.4,2.3,1.1,3c0.8,0.7,1.8,1.1,3.2,1.1c1.9,0,4-0.6,6.3-1.8l5.3-2.8V571.7z"/>
		<path class="st0" d="M342.8,586.8v-4.2l-3.9,2.3c-2.5,1.6-5.2,2.4-8.1,2.4c-3.6,0-6.4-1.1-8.4-3.3c-2.1-2.2-3.1-5-3.1-8.6v-25.1
			h8.4v24c0,1.6,0.4,2.9,1.3,3.9c0.9,1,2.1,1.5,3.5,1.5c1.4,0,3-0.5,4.8-1.6l5.3-3.1v-24.6h8.4v36.5H342.8z"/>
		<path class="st0" d="M302.6,599.5v-16.7l-4.2,2.3c-2.7,1.4-5.4,2.1-8.2,2.1c-3.7,0-6.8-1.2-9.1-3.5c-2.3-2.3-3.5-5.3-3.5-9v-12.2
			c0-3.7,1.2-6.8,3.5-9.1c2.4-2.4,5.4-3.5,9.1-3.5c2.7,0,5.4,0.7,8,2.1l4.2,2.3v-3.9h8.2v49.2H302.6z M302.6,562l-5.8-3.3
			c-1.7-0.9-3.4-1.4-5.1-1.4c-1.8,0-3.1,0.5-4.2,1.6c-1,1.1-1.6,2.5-1.6,4.3v10.4c0,1.8,0.5,3.2,1.6,4.3c1,1.1,2.4,1.6,4.2,1.6
			c1.8,0,3.5-0.5,5.1-1.5l5.8-3.2V562z"/>
		<path class="st0" d="M262,586.8v-4.2l-3.8,2.1c-3.3,1.8-6.5,2.6-9.6,2.6c-3.2,0-5.8-1-7.9-2.9c-2-1.9-3-4.4-3-7.5
			c0-3.6,1.3-6.4,3.8-8.3c2.5-1.9,5.8-2.8,9.7-2.8h10.9v-2.1c0-4.7-2.5-7-7.5-7c-5.3,0-7.9,2.1-7.9,6.4h-8.2v-0.5
			c0-4.1,1.5-7.2,4.4-9.5c2.9-2.3,6.8-3.4,11.6-3.4c5,0,8.8,1.2,11.6,3.6c2.7,2.4,4.1,5.8,4.1,10.1v23.5H262z M262,571.7h-9.7
			c-4.2,0-6.2,1.6-6.2,4.8c0,1.3,0.4,2.3,1.1,3c0.8,0.7,1.8,1.1,3.2,1.1c1.9,0,4-0.6,6.3-1.8l5.3-2.8V571.7z"/>
		<polygon class="st0" points="214.3,586.8 214.3,543.4 199.7,543.4 199.7,535.3 238.4,535.3 238.4,543.4 223.9,543.4 223.9,586.8 
					"/>
		<path class="st0" d="M174.1,573.5c0,4.5-1.4,7.9-4.3,10.3c-2.8,2.4-6.7,3.6-11.5,3.6c-4.8,0-8.6-1.3-11.5-3.8
			c-2.8-2.5-4.3-6-4.3-10.5v-9.1c0-4.5,1.4-8,4.3-10.5c2.9-2.5,6.7-3.8,11.4-3.8c4.8,0,8.7,1.2,11.5,3.6c2.8,2.4,4.3,5.9,4.3,10.3
			v0.6H166c0-4.9-2.6-7.3-7.7-7.3c-5,0-7.5,2.6-7.5,7.8v7.6c0,5.2,2.5,7.8,7.5,7.8c5.1,0,7.7-2.4,7.7-7.3h8.1V573.5z"/>
		<path class="st0" d="M135.3,575.3c0,3.7-1.5,6.6-4.4,8.8c-2.9,2.2-6.8,3.3-11.6,3.3c-4.8,0-8.7-1.2-11.7-3.7
			c-3-2.5-4.5-5.9-4.5-10.3v-8.7c0-4.6,1.5-8.2,4.5-10.9c3-2.7,6.9-4,11.6-4c4.8,0,8.7,1.3,11.7,4c2.9,2.7,4.4,6.4,4.4,11.1v6.4
			h-24.2v1.8c0,2.5,0.7,4.4,2.2,5.6c1.5,1.2,3.5,1.9,6,1.9c5.3,0,7.9-1.9,7.9-5.6h8V575.3z M127.5,564.7c0-2.6-0.7-4.6-2.1-6
			c-1.4-1.4-3.4-2.1-6-2.1c-2.6,0-4.6,0.7-6.1,2.1c-1.5,1.4-2.2,3.4-2.2,6v0.9h16.3V564.7z"/>
		<path class="st0" d="M93.8,586.8c-4.3,0-7.7-1.1-10.2-3.2c-2.5-2.1-3.7-5.2-3.7-9.3v-16.8h-5.5v-7.1h5.5v-9.9h8.6v9.9h10.1v7.1
			H88.5v16.3c0,2.1,0.5,3.6,1.5,4.4c1,0.9,2.5,1.3,4.6,1.3h4.3v7.3H93.8z"/>
		<path class="st0" d="M61.5,586.8v-4.2l-3.8,2.1c-3.3,1.8-6.5,2.6-9.6,2.6c-3.2,0-5.8-1-7.9-2.9c-2-1.9-3-4.4-3-7.5
			c0-3.6,1.3-6.4,3.8-8.3c2.5-1.9,5.8-2.8,9.7-2.8h10.9v-2.1c0-4.7-2.5-7-7.5-7c-5.3,0-7.9,2.1-7.9,6.4h-8.2v-0.5
			c0-4.1,1.5-7.2,4.4-9.5c2.9-2.3,6.8-3.4,11.6-3.4c5,0,8.8,1.2,11.6,3.6c2.7,2.4,4.1,5.8,4.1,10.1v23.5H61.5z M61.5,571.7h-9.7
			c-4.2,0-6.2,1.6-6.2,4.8c0,1.3,0.4,2.3,1.1,3c0.8,0.7,1.8,1.1,3.2,1.1c1.9,0,4-0.6,6.3-1.8l5.3-2.8V571.7z"/>
		<polygon class="st0" points="9.3,565.5 9.3,586.8 0,586.8 0,535.3 33.4,535.3 33.4,543.5 9.3,543.5 9.3,557.3 31.3,557.3 
			31.3,565.5 		"/>
	</g>
	<g>
		<rect x="482.9" y="436.8" class="st4" width="11.2" height="66.9"/>
		<path class="st4" d="M461.4,503.8v-5.5l-4.9,2.7c-4.3,2.3-8.5,3.4-12.5,3.4c-4.2,0-7.6-1.2-10.2-3.7c-2.6-2.5-3.9-5.7-3.9-9.8
			c0-4.7,1.6-8.3,4.9-10.8c3.3-2.5,7.5-3.7,12.6-3.7h14.1v-2.8c0-6.1-3.2-9.1-9.7-9.1c-6.8,0-10.3,2.8-10.3,8.3h-10.6v-0.6
			c0-5.3,1.9-9.4,5.7-12.3c3.8-2.9,8.8-4.4,15.1-4.4c6.5,0,11.5,1.6,15.1,4.7s5.4,7.5,5.4,13.1v30.5H461.4z M461.4,484.2h-12.6
			c-5.4,0-8.1,2.1-8.1,6.2c0,1.7,0.5,3,1.5,3.9c1,0.9,2.4,1.4,4.2,1.4c2.5,0,5.2-0.8,8.2-2.3l6.8-3.7V484.2z"/>
		<rect x="409" y="456.4" class="st4" width="11.2" height="47.4"/>
		<path class="st4" d="M420.8,443.6c0,1.6-0.6,2.9-1.7,3.8c-1.1,0.9-2.6,1.3-4.5,1.3c-1.8,0-3.3-0.4-4.5-1.3
			c-1.2-0.9-1.8-2.2-1.8-3.8v-2c0-1.7,0.6-3,1.8-3.9c1.2-0.9,2.7-1.3,4.5-1.3c1.9,0,3.4,0.4,4.5,1.3c1.1,0.9,1.7,2.2,1.7,3.9V443.6z
			"/>
		<path class="st4" d="M374.3,503.8v-47.4h10.9v6.7l2.1-2.1c3.5-3.4,7.4-5,11.7-5h2.8v11.1h-2.7c-3.8,0-7.2,1.1-10,3.2l-3.7,3.1
			v30.4H374.3z"/>
		<path class="st4" d="M359.3,503.8c-5.6,0-10.1-1.4-13.3-4.2c-3.2-2.8-4.8-6.8-4.8-12.1v-21.9h-7.2v-9.3h7.2v-12.9h11.2v12.9h13.1
			v9.3h-13.1v21.2c0,2.7,0.6,4.6,1.9,5.8c1.3,1.1,3.2,1.7,5.9,1.7h5.6v9.4H359.3z"/>
		<path class="st4" d="M317.3,471.7c0-4.9-3.2-7.4-9.6-7.4c-2.9,0-5.2,0.5-6.8,1.6c-1.6,1.1-2.4,2.5-2.4,4.2c0,2,1,3.4,3.1,4.3
			c2,0.9,4.5,1.5,7.4,1.8c2.9,0.3,5.8,0.7,8.8,1.3c2.9,0.6,5.4,1.8,7.5,3.8c2,2,3.1,4.8,3.1,8.4c0,4.6-1.8,8.2-5.5,10.8
			c-3.7,2.6-8.7,3.9-15,3.9c-6.5,0-11.6-1.4-15.2-4.1c-3.6-2.7-5.4-6.5-5.4-11.4v-0.5h11c0,4.9,3.3,7.4,9.9,7.4
			c3.1,0,5.4-0.5,7.2-1.6c1.7-1.1,2.6-2.5,2.6-4.2c0-1.5-0.7-2.7-2.2-3.5c-1.5-0.8-3.3-1.3-5.5-1.5c-2.2-0.2-4.6-0.5-7.2-1
			c-2.5-0.5-4.9-1.1-7.2-1.8c-2.2-0.7-4.1-2.1-5.5-4.1c-1.5-2-2.2-4.5-2.2-7.6c0-4.6,1.8-8.2,5.4-10.9c3.6-2.6,8.5-4,14.8-4
			c6.4,0,11.4,1.4,14.8,4.1c3.5,2.8,5.2,6.6,5.2,11.4v0.5H317.3z"/>
		<path class="st4" d="M266.5,503.8v-5.5l-5,3c-3.3,2-6.8,3.1-10.5,3.1c-4.6,0-8.3-1.4-10.9-4.2c-2.7-2.8-4-6.5-4-11.2v-32.6h11
			v31.2c0,2.1,0.6,3.8,1.7,5c1.1,1.3,2.7,1.9,4.6,1.9c1.8,0,3.9-0.7,6.2-2.1l6.9-4v-32h10.9v47.4H266.5z"/>
		<path class="st4" d="M214.3,503.8v-5.1l-5.5,3c-3.3,1.9-6.8,2.8-10.6,2.8c-4.9,0-8.8-1.5-11.8-4.5c-3-3-4.5-6.9-4.5-11.7v-15.9
			c0-4.8,1.5-8.7,4.6-11.8c3.1-3.1,7-4.6,11.9-4.6c3.7,0,7.1,0.9,10.4,2.8l5.4,3v-24.8H225v66.9H214.3z M214.3,471.6l-7.6-4.2
			c-2.2-1.2-4.4-1.8-6.7-1.8c-2.3,0-4.1,0.7-5.4,2.1c-1.3,1.4-2,3.3-2,5.6v13.5c0,2.4,0.7,4.3,2,5.7c1.3,1.4,3.2,2.1,5.4,2.1
			c2.1,0,4.3-0.6,6.7-1.9l7.6-4.1V471.6z"/>
		<path class="st4" d="M160.9,503.8v-31.1c0-2-0.5-3.6-1.6-5c-1.1-1.3-2.6-2-4.7-2c-1.8,0-3.9,0.7-6.2,2.1l-6.9,4.1v31.9h-10.9
			v-47.4h10.8v5.6l5-3.1c3.1-1.9,6.6-2.9,10.5-3.1c4.6,0,8.3,1.4,10.9,4.2c2.7,2.8,4,6.5,4,11.2v32.6H160.9z"/>
		<rect x="106.3" y="436.8" class="st4" width="12.3" height="66.9"/>
		<path class="st4" d="M496.8,395.5c0,5.9-2,10.6-5.9,14.1c-4,3.5-9.1,5.3-15.5,5.3c-6.4,0-11.5-1.8-15.5-5.3
			c-4-3.5-5.9-8.2-5.9-14.1v-10.3c0-5.9,2-10.7,5.9-14.2c4-3.5,9.1-5.3,15.5-5.3c6.4,0,11.5,1.8,15.5,5.3c4,3.5,5.9,8.2,5.9,14.2
			V395.5z M486.4,386.2c0-3.5-1-6.2-3-8.1c-2-1.9-4.7-2.9-8-2.9c-3.3,0-6,1-8,2.9c-2,1.9-3,4.7-3,8.1v8.2c0,3.5,1,6.2,3,8.1
			c2,1.9,4.7,2.9,8,2.9c3.3,0,6-1,8-2.9c2-1.9,3-4.7,3-8.1V386.2z"/>
		<path class="st4" d="M433.5,413.8v-5.5l-4.9,2.7c-4.3,2.3-8.5,3.4-12.5,3.4c-4.2,0-7.6-1.2-10.2-3.7c-2.6-2.5-3.9-5.7-3.9-9.8
			c0-4.7,1.6-8.3,4.9-10.8c3.3-2.5,7.5-3.7,12.6-3.7h14.1v-2.8c0-6.1-3.2-9.1-9.7-9.1c-6.8,0-10.3,2.8-10.3,8.3H403v-0.6
			c0-5.3,1.9-9.4,5.7-12.3c3.8-2.9,8.8-4.4,15.1-4.4c6.5,0,11.5,1.6,15.1,4.7s5.4,7.5,5.4,13.1v30.5H433.5z M433.5,394.2h-12.6
			c-5.4,0-8.1,2.1-8.1,6.2c0,1.7,0.5,3,1.5,3.9c1,0.9,2.4,1.4,4.2,1.4c2.5,0,5.2-0.8,8.2-2.3l6.8-3.7V394.2z"/>
		<path class="st4" d="M442.8,347.4c0,3.8-1,6.9-2.9,9.3s-4.6,3.6-8.1,3.6c-2,0-3.9-0.5-5.5-1.4c-1.6-0.9-3-1.8-4.3-2.7
			c-1.2-0.9-2.4-1.3-3.5-1.3c-2.4,0-3.6,1.7-3.6,5.2h-8.7v-0.6c0-3.8,1-6.9,2.9-9.2c1.9-2.4,4.6-3.6,8.1-3.6c2,0,3.9,0.4,5.4,1.3
			c1.6,0.9,3,1.8,4.2,2.7c1.2,0.9,2.4,1.3,3.5,1.3c2.5,0,3.7-1.7,3.7-5.1h8.7V347.4z"/>
		<path class="st4" d="M366.6,421.1l3.7-6.7c-5.4-0.5-9.7-2.3-12.8-5.5c-3.1-3.2-4.7-7.5-4.7-12.8v-11.8c0-5.8,1.9-10.4,5.6-13.7
			c3.7-3.3,8.7-4.9,14.8-4.9c6.3,0,11.3,1.6,15,4.7c3.7,3.1,5.5,7.6,5.5,13.4v0.8h-10.5c0-6.4-3.3-9.5-10-9.5
			c-6.5,0-9.8,3.4-9.8,10.1v9.9c0,6.7,3.3,10.1,9.8,10.1c6.7,0,10-3.1,10-9.4h10.5v0.8c0,5.2-1.5,9.4-4.5,12.4
			c-3,3.1-7.1,4.9-12.4,5.5l-1.8,3.1c2.3,0,4.1,0.5,5.4,1.6c1.3,1,1.9,2.6,1.9,4.5c0,2.3-0.9,4.2-2.7,5.6c-1.8,1.4-4.3,2.1-7.6,2.1
			c-3.2,0-5.6-0.7-7.3-2c-1.7-1.3-2.6-3.1-2.6-5.3v-0.2h6.7c0,1.5,1.1,2.2,3.3,2.2c2.2,0,3.2-0.8,3.2-2.5c0-1.7-1.5-2.5-4.6-2.5
			H366.6z"/>
		<path class="st4" d="M331.7,413.8v-5.5l-5,3c-3.3,2-6.8,3.1-10.5,3.1c-4.6,0-8.3-1.4-10.9-4.2c-2.7-2.8-4-6.5-4-11.2v-32.6h11
			v31.2c0,2.1,0.6,3.8,1.7,5c1.1,1.3,2.7,1.9,4.6,1.9c1.8,0,3.9-0.7,6.2-2.1l6.9-4v-32h10.9v47.4H331.7z"/>
		<path class="st4" d="M279.5,413.8v-5.1l-5.5,3c-3.3,1.9-6.8,2.8-10.6,2.8c-4.9,0-8.8-1.5-11.8-4.5c-3-3-4.5-6.9-4.5-11.7v-15.9
			c0-4.8,1.5-8.7,4.6-11.8c3.1-3.1,7-4.6,11.9-4.6c3.7,0,7.1,0.9,10.4,2.8l5.4,3v-24.8h10.7v66.9H279.5z M279.4,381.7l-7.6-4.2
			c-2.2-1.2-4.4-1.8-6.7-1.8c-2.3,0-4.1,0.7-5.4,2.1c-1.3,1.4-2,3.3-2,5.6v13.5c0,2.4,0.7,4.3,2,5.7c1.3,1.4,3.2,2.1,5.4,2.1
			c2.1,0,4.3-0.6,6.7-1.9l7.6-4.1V381.7z"/>
		<path class="st4" d="M237.8,395.5c0,5.9-2,10.6-5.9,14.1c-4,3.5-9.1,5.3-15.5,5.3c-6.4,0-11.5-1.8-15.5-5.3
			c-4-3.5-5.9-8.2-5.9-14.1v-10.3c0-5.9,2-10.7,5.9-14.2c4-3.5,9.1-5.3,15.5-5.3c6.4,0,11.5,1.8,15.5,5.3c4,3.5,5.9,8.2,5.9,14.2
			V395.5z M227.3,386.2c0-3.5-1-6.2-3-8.1c-2-1.9-4.7-2.9-8-2.9c-3.3,0-6,1-8,2.9c-2,1.9-3,4.7-3,8.1v8.2c0,3.5,1,6.2,3,8.1
			c2,1.9,4.7,2.9,8,2.9c3.3,0,6-1,8-2.9c2-1.9,3-4.7,3-8.1V386.2z"/>
		<path class="st4" d="M161.5,413.8v-47.4h10.9v6.7l2.1-2.1c3.5-3.4,7.4-5,11.7-5h2.8v11.1h-2.7c-3.8,0-7.2,1.1-10,3.2l-3.7,3.1
			v30.4H161.5z"/>
		<path class="st4" d="M103.7,413.8v-66.9h28.2c6.1,0,11.1,1.8,15.1,5.4c3.9,3.6,5.9,8.7,5.9,15.2c0,6.4-2.1,11.5-6.4,15.3
			s-9.3,5.7-15.2,5.7h-15.6v25.3H103.7z M130.5,378.3c3.2,0,5.7-1,7.6-2.9c1.9-1.9,2.9-4.6,2.9-7.9c0-3.3-0.9-5.8-2.7-7.6
			c-1.8-1.8-4.3-2.7-7.5-2.7h-15.2v21H130.5z"/>
	</g>
	<g>
		<path class="st4" d="M457.1,241.4v-24.1h-72.4V169h-24.1l-72.4-60.3v51.7l12.1,8.6h-12.1l-72.4-60.3v51.7l12.1,8.6h-12.1
			l-72.4-60.3v205.2h313.8v-24.1h-72.4v-12.1h72.4v-24.1h-72.4v-12.1H457.1z M215.8,283.6c0,3.3-2.7,6-6,6h-36.2c-3.3,0-6-2.7-6-6
			v-24.1c0-3.3,2.7-6,6-6h36.2c3.3,0,6,2.7,6,6V283.6z M215.8,223.3c0,3.3-2.7,6-6,6h-36.2c-3.3,0-6-2.7-6-6v-24.1c0-3.3,2.7-6,6-6
			h36.2c3.3,0,6,2.7,6,6V223.3z M288.2,283.6c0,3.3-2.7,6-6,6h-36.2c-3.3,0-6-2.7-6-6v-24.1c0-3.3,2.7-6,6-6h36.2c3.3,0,6,2.7,6,6
			V283.6z M288.2,223.3c0,3.3-2.7,6-6,6h-36.2c-3.3,0-6-2.7-6-6v-24.1c0-3.3,2.7-6,6-6h36.2c3.3,0,6,2.7,6,6V223.3z M360.6,283.6
			c0,3.3-2.7,6-6,6h-36.2c-3.3,0-6-2.7-6-6v-24.1c0-3.3,2.7-6,6-6h36.2c3.3,0,6,2.7,6,6V283.6z M360.6,223.3c0,3.3-2.7,6-6,6h-36.2
			c-3.3,0-6-2.7-6-6v-24.1c0-3.3,2.7-6,6-6h36.2c3.3,0,6,2.7,6,6V223.3z"/>
		<polygon class="st4" points="411.7,36.2 396.8,205.2 457.1,205.2 442.2,36.2 		"/>
		<polygon class="st4" points="370.2,60.3 360.6,156.9 396.8,156.9 387.1,60.3 		"/>
		<polygon class="st4" points="385.9,48.3 384.7,36.2 372.6,36.2 371.4,48.3 		"/>
		<polygon class="st4" points="441.2,24.1 439,0 414.9,0 412.8,24.1 		"/>
	</g>
</g>
</svg>
