<?xml version="1.0" encoding="utf-8"?>
<!-- Generator: Adobe Illustrator 22.1.0, SVG Export Plug-In . SVG Version: 6.00 Build 0)  -->
<svg version="1.1" id="Layer_1" xmlns="http://www.w3.org/2000/svg" xmlns:xlink="http://www.w3.org/1999/xlink" x="0px" y="0px"
	 viewBox="0 0 600 196.3" style="enable-background:new 0 0 600 196.3;" xml:space="preserve">
<style type="text/css">
	.st0{fill:#4A555C;}
	.st1{fill:#00A096;}
	.st2{fill:#00A0E6;}
	.st3{fill:#D20000;}
	.st4{fill:#00648C;}
	.st5{fill:#6EB41E;}
	.st6{fill:#A5C800;}
</style>
<g>
	<g>
		<path class="st0" d="M478.5,189.4v-2.2l-2,1.1c-1.7,0.9-3.4,1.4-5,1.4c-1.7,0-3-0.5-4.1-1.5c-1-1-1.6-2.3-1.6-3.9
			c0-1.9,0.7-3.3,2-4.3c1.3-1,3-1.5,5.1-1.5h5.7v-1.1c0-2.4-1.3-3.6-3.9-3.6c-2.7,0-4.1,1.1-4.1,3.3h-4.3v-0.3
			c0-2.1,0.8-3.8,2.3-4.9c1.5-1.2,3.5-1.8,6.1-1.8c2.6,0,4.6,0.6,6,1.9c1.4,1.2,2.1,3,2.1,5.3v12.2H478.5z M478.5,181.5h-5
			c-2.2,0-3.2,0.8-3.2,2.5c0,0.7,0.2,1.2,0.6,1.6c0.4,0.4,1,0.6,1.7,0.6c1,0,2.1-0.3,3.3-0.9l2.7-1.5V181.5z"/>
		<path class="st0" d="M449.4,182.5c-0.9,0-1.3,0.4-1.3,1.3c0,0.8,0.4,1.2,1.2,1.2h7.4c4.5,0,6.8,1.7,6.8,5.2c0,1.9-0.8,3.5-2.4,4.5
			c-1.6,1.1-3.7,1.6-6.3,1.6c-5.6,0-8.5-2.4-8.5-7.2v-1.9c-1.2-0.6-1.9-1.7-1.9-3.4c0-1,0.2-1.8,0.7-2.4c0.5-0.6,1.1-1,1.9-1.3
			c-0.1-0.1-0.2-0.2-0.4-0.4c-0.2-0.2-0.4-0.6-0.6-1.2c-0.3-0.6-0.4-1.3-0.4-2.1c0-2,0.6-3.5,1.9-4.5c1.3-1,3-1.6,5.1-1.6h11v3.7
			h-2.7c0.6,0.5,0.9,1.4,0.9,2.6c0,1.8-0.6,3.2-1.9,4.3c-1.2,1-2.9,1.6-5,1.6H449.4z M454.3,179.3c2.4,0,3.6-0.9,3.6-2.8
			c0-1.9-1.1-2.8-3.2-2.8H453c-1.1,0-1.9,0.2-2.5,0.6c-0.6,0.4-0.8,1.2-0.8,2.2c0,1.8,1.1,2.7,3.2,2.7H454.3z M450.2,188.2v0.8
			c0,1.4,0.3,2.4,1,3c0.7,0.7,1.8,1,3.5,1c3.1,0,4.6-0.9,4.6-2.7c0-1.4-1.1-2.1-3.2-2.1H450.2z"/>
		<path class="st0" d="M436.8,189.4v-12.5c0-0.8-0.2-1.5-0.6-2c-0.4-0.5-1.1-0.8-1.9-0.8c-0.7,0-1.6,0.3-2.5,0.8l-2.8,1.7v12.8h-4.4
			v-19h4.3v2.2l2-1.2c1.2-0.8,2.7-1.2,4.2-1.2c1.9,0,3.3,0.6,4.4,1.7s1.6,2.6,1.6,4.5v13.1H436.8z"/>
		<rect x="415.5" y="170.4" class="st0" width="4.5" height="19"/>
		<path class="st0" d="M420.3,165.3c0,0.6-0.2,1.2-0.7,1.5c-0.5,0.4-1.1,0.5-1.8,0.5c-0.7,0-1.3-0.2-1.8-0.5
			c-0.5-0.4-0.7-0.9-0.7-1.5v-0.8c0-0.7,0.2-1.2,0.7-1.6c0.5-0.4,1.1-0.5,1.8-0.5c0.7,0,1.3,0.2,1.8,0.5c0.5,0.4,0.7,0.9,0.7,1.6
			V165.3z"/>
		<path class="st0" d="M409.5,189.4c-2.3,0-4-0.6-5.3-1.7c-1.3-1.1-1.9-2.7-1.9-4.8v-8.8h-2.9v-3.7h2.9v-5.2h4.5v5.2h5.3v3.7h-5.3
			v8.5c0,1.1,0.3,1.8,0.8,2.3c0.5,0.5,1.3,0.7,2.4,0.7h2.2v3.8H409.5z"/>
		<rect x="391.8" y="170.4" class="st0" width="4.5" height="19"/>
		<path class="st0" d="M396.5,165.3c0,0.6-0.2,1.2-0.7,1.5c-0.5,0.4-1.1,0.5-1.8,0.5c-0.7,0-1.3-0.2-1.8-0.5
			c-0.5-0.4-0.7-0.9-0.7-1.5v-0.8c0-0.7,0.2-1.2,0.7-1.6c0.5-0.4,1.1-0.5,1.8-0.5c0.7,0,1.3,0.2,1.8,0.5c0.5,0.4,0.7,0.9,0.7,1.6
			V165.3z"/>
		<path class="st0" d="M377.9,189.4v-19h4.4v2.7l0.8-0.8c1.4-1.3,3-2,4.7-2h1.1v4.4h-1.1c-1.5,0-2.9,0.4-4,1.3l-1.5,1.2v12.2H377.9z
			"/>
		<path class="st0" d="M369.3,189.4v-2.2l-2,1.1c-1.7,0.9-3.4,1.4-5,1.4c-1.7,0-3-0.5-4.1-1.5c-1-1-1.6-2.3-1.6-3.9
			c0-1.9,0.7-3.3,2-4.3c1.3-1,3-1.5,5.1-1.5h5.7v-1.1c0-2.4-1.3-3.6-3.9-3.6c-2.7,0-4.1,1.1-4.1,3.3h-4.3v-0.3
			c0-2.1,0.8-3.8,2.3-4.9c1.5-1.2,3.5-1.8,6.1-1.8c2.6,0,4.6,0.6,6,1.9c1.4,1.2,2.1,3,2.1,5.3v12.2H369.3z M369.3,181.5h-5
			c-2.2,0-3.2,0.8-3.2,2.5c0,0.7,0.2,1.2,0.6,1.6c0.4,0.4,1,0.6,1.7,0.6c1,0,2.1-0.3,3.3-0.9l2.7-1.5V181.5z"/>
		<path class="st0" d="M348.5,189.4v-2.2l-2,1.2c-1.3,0.8-2.7,1.2-4.2,1.2c-1.9,0-3.3-0.6-4.4-1.7s-1.6-2.6-1.6-4.5v-13.1h4.4v12.5
			c0,0.8,0.2,1.5,0.7,2c0.5,0.5,1.1,0.8,1.8,0.8c0.7,0,1.5-0.3,2.5-0.8l2.8-1.6v-12.8h4.4v19H348.5z"/>
		<path class="st0" d="M327.5,196v-8.7l-2.2,1.2c-1.4,0.7-2.8,1.1-4.3,1.1c-1.9,0-3.5-0.6-4.7-1.8s-1.8-2.8-1.8-4.7v-6.4
			c0-1.9,0.6-3.5,1.8-4.8c1.2-1.2,2.8-1.8,4.8-1.8c1.4,0,2.8,0.4,4.2,1.1l2.2,1.2v-2.1h4.3V196H327.5z M327.5,176.5l-3-1.7
			c-0.9-0.5-1.8-0.7-2.7-0.7c-0.9,0-1.6,0.3-2.2,0.8c-0.5,0.6-0.8,1.3-0.8,2.3v5.4c0,0.9,0.3,1.7,0.8,2.3c0.5,0.6,1.3,0.8,2.2,0.8
			c0.9,0,1.8-0.3,2.7-0.8l3-1.7V176.5z"/>
		<path class="st0" d="M306.4,189.4v-2.2l-2,1.1c-1.7,0.9-3.4,1.4-5,1.4c-1.7,0-3-0.5-4.1-1.5c-1-1-1.6-2.3-1.6-3.9
			c0-1.9,0.7-3.3,2-4.3c1.3-1,3-1.5,5.1-1.5h5.7v-1.1c0-2.4-1.3-3.6-3.9-3.6c-2.7,0-4.1,1.1-4.1,3.3h-4.3v-0.3
			c0-2.1,0.8-3.8,2.3-4.9c1.5-1.2,3.5-1.8,6.1-1.8c2.6,0,4.6,0.6,6,1.9c1.4,1.2,2.1,3,2.1,5.3v12.2H306.4z M306.4,181.5h-5
			c-2.2,0-3.2,0.8-3.2,2.5c0,0.7,0.2,1.2,0.6,1.6c0.4,0.4,1,0.6,1.7,0.6c1,0,2.1-0.3,3.3-0.9l2.7-1.5V181.5z"/>
		<polygon class="st0" points="281.5,189.4 281.5,166.8 273.9,166.8 273.9,162.6 294.1,162.6 294.1,166.8 286.5,166.8 286.5,189.4 
					"/>
		<path class="st0" d="M260.6,182.5c0,2.3-0.7,4.1-2.2,5.4c-1.5,1.2-3.5,1.9-6,1.9c-2.5,0-4.5-0.7-6-2c-1.5-1.3-2.2-3.1-2.2-5.5
			v-4.7c0-2.3,0.7-4.2,2.2-5.5c1.5-1.3,3.5-2,5.9-2c2.5,0,4.5,0.6,6,1.9c1.5,1.3,2.2,3.1,2.2,5.4v0.3h-4.2c0-2.5-1.3-3.8-4-3.8
			c-2.6,0-3.9,1.3-3.9,4v4c0,2.7,1.3,4,3.9,4c2.7,0,4-1.3,4-3.8h4.2V182.5z"/>
		<path class="st0" d="M240.4,183.4c0,1.9-0.8,3.5-2.3,4.6c-1.5,1.1-3.5,1.7-6.1,1.7c-2.5,0-4.5-0.6-6.1-1.9
			c-1.6-1.3-2.3-3.1-2.3-5.4v-4.5c0-2.4,0.8-4.3,2.3-5.7c1.6-1.4,3.6-2.1,6.1-2.1c2.5,0,4.5,0.7,6.1,2.1c1.5,1.4,2.3,3.3,2.3,5.8
			v3.4h-12.6v0.9c0,1.3,0.4,2.3,1.2,2.9c0.8,0.6,1.8,1,3.1,1c2.7,0,4.1-1,4.1-2.9h4.2V183.4z M236.3,177.9c0-1.3-0.4-2.4-1.1-3.1
			c-0.7-0.7-1.8-1.1-3.1-1.1c-1.3,0-2.4,0.4-3.2,1.1c-0.8,0.7-1.1,1.8-1.1,3.1v0.5h8.5V177.9z"/>
		<path class="st0" d="M218.7,189.4c-2.3,0-4-0.6-5.3-1.7c-1.3-1.1-1.9-2.7-1.9-4.8v-8.8h-2.9v-3.7h2.9v-5.2h4.5v5.2h5.3v3.7H216
			v8.5c0,1.1,0.3,1.8,0.8,2.3c0.5,0.5,1.3,0.7,2.4,0.7h2.2v3.8H218.7z"/>
		<path class="st0" d="M201.9,189.4v-2.2l-2,1.1c-1.7,0.9-3.4,1.4-5,1.4c-1.7,0-3-0.5-4.1-1.5c-1-1-1.6-2.3-1.6-3.9
			c0-1.9,0.7-3.3,2-4.3c1.3-1,3-1.5,5.1-1.5h5.7v-1.1c0-2.4-1.3-3.6-3.9-3.6c-2.7,0-4.1,1.1-4.1,3.3h-4.3v-0.3
			c0-2.1,0.8-3.8,2.3-4.9c1.5-1.2,3.5-1.8,6.1-1.8c2.6,0,4.6,0.6,6,1.9c1.4,1.2,2.1,3,2.1,5.3v12.2H201.9z M201.9,181.5h-5
			c-2.2,0-3.2,0.8-3.2,2.5c0,0.7,0.2,1.2,0.6,1.6c0.4,0.4,1,0.6,1.7,0.6c1,0,2.1-0.3,3.3-0.9l2.7-1.5V181.5z"/>
		<polygon class="st0" points="174.7,178.3 174.7,189.4 169.9,189.4 169.9,162.6 187.3,162.6 187.3,166.8 174.7,166.8 174.7,174 
			186.2,174 186.2,178.3 		"/>
	</g>
	<g>
		<path class="st4" d="M475,125.9c0-3-1.9-4.4-5.8-4.4c-1.8,0-3.1,0.3-4.1,1c-1,0.6-1.5,1.5-1.5,2.5c0,1.2,0.6,2,1.8,2.6
			c1.2,0.5,2.7,0.9,4.5,1.1c1.7,0.2,3.5,0.4,5.3,0.8c1.8,0.3,3.3,1.1,4.5,2.3c1.2,1.2,1.8,2.9,1.8,5c0,2.8-1.1,4.9-3.3,6.5
			c-2.2,1.6-5.2,2.4-9,2.4c-3.9,0-7-0.8-9.2-2.5c-2.2-1.6-3.3-3.9-3.3-6.8v-0.3h6.6c0,3,2,4.4,5.9,4.4c1.8,0,3.3-0.3,4.3-1
			c1-0.6,1.5-1.5,1.5-2.5c0-0.9-0.4-1.6-1.3-2.1c-0.9-0.5-2-0.8-3.3-0.9c-1.3-0.1-2.8-0.3-4.3-0.6c-1.5-0.3-3-0.7-4.3-1.1
			c-1.3-0.5-2.4-1.3-3.3-2.5c-0.9-1.2-1.3-2.7-1.3-4.5c0-2.8,1.1-5,3.2-6.5c2.2-1.6,5.1-2.4,8.9-2.4c3.9,0,6.8,0.8,8.9,2.5
			s3.1,3.9,3.1,6.9v0.3H475z"/>
		<path class="st4" d="M444.9,145.1v-3.3l-3,1.6c-2.6,1.4-5.1,2.1-7.5,2.1c-2.5,0-4.6-0.7-6.1-2.2s-2.4-3.5-2.4-5.9
			c0-2.8,1-5,2.9-6.5c2-1.5,4.5-2.2,7.6-2.2h8.5V127c0-3.6-1.9-5.5-5.8-5.5c-4.1,0-6.2,1.7-6.2,5h-6.4v-0.4c0-3.2,1.1-5.6,3.4-7.4
			s5.3-2.7,9.1-2.7c3.9,0,6.9,0.9,9.1,2.8s3.2,4.5,3.2,7.9v18.3H444.9z M444.9,133.3h-7.6c-3.2,0-4.9,1.2-4.9,3.7
			c0,1,0.3,1.8,0.9,2.4c0.6,0.6,1.4,0.8,2.5,0.8c1.5,0,3.2-0.5,4.9-1.4l4.1-2.2V133.3z"/>
		<path class="st4" d="M413.7,145.1v-19.4c0-2.3-1-3.5-3-3.5c-0.9,0-2,0.4-3.4,1.1l-3.5,2.1v19.6h-6.5v-19.3c0-2.3-1-3.5-3-3.5
			c-0.9,0-2.1,0.4-3.5,1.1l-3.4,2.1v19.6h-6.5v-28.5h6.4v3l2.5-1.5c1.9-1.2,3.9-1.7,6-1.7c3.3,0,5.6,1.3,6.8,3.8l3.1-1.9
			c2.1-1.3,4.3-1.9,6.5-1.9c2.5,0,4.4,0.8,5.8,2.3c1.4,1.5,2.1,3.6,2.1,6.4v20.1H413.7z"/>
		<path class="st4" d="M374.6,136.2c0,2.9-1.1,5.2-3.4,6.9c-2.3,1.7-5.3,2.6-9.1,2.6c-3.7,0-6.8-1-9.1-2.9c-2.3-1.9-3.5-4.6-3.5-8.1
			v-6.8c0-3.6,1.2-6.4,3.5-8.5c2.3-2.1,5.4-3.2,9.1-3.2c3.8,0,6.8,1,9.1,3.1c2.3,2.1,3.4,5,3.4,8.7v5h-18.9v1.4
			c0,1.9,0.6,3.4,1.8,4.4c1.2,1,2.7,1.5,4.7,1.5c4.1,0,6.2-1.5,6.2-4.4h6.3V136.2z M368.5,127.9c0-2-0.6-3.6-1.7-4.7
			c-1.1-1.1-2.7-1.6-4.7-1.6c-2,0-3.6,0.5-4.7,1.6c-1.1,1.1-1.7,2.7-1.7,4.7v0.7h12.8V127.9z"/>
		<path class="st4" d="M342.2,145.1c-3.4,0-6-0.8-8-2.5c-1.9-1.7-2.9-4.1-2.9-7.3v-13.1H327v-5.6h4.3v-7.7h6.7v7.7h7.9v5.6H338V135
			c0,1.6,0.4,2.8,1.1,3.5c0.8,0.7,1.9,1,3.6,1h3.4v5.7H342.2z"/>
		<path class="st4" d="M316.9,125.9c0-3-1.9-4.4-5.8-4.4c-1.8,0-3.1,0.3-4.1,1c-1,0.6-1.5,1.5-1.5,2.5c0,1.2,0.6,2,1.8,2.6
			c1.2,0.5,2.7,0.9,4.5,1.1c1.7,0.2,3.5,0.4,5.3,0.8c1.8,0.3,3.3,1.1,4.5,2.3c1.2,1.2,1.8,2.9,1.8,5c0,2.8-1.1,4.9-3.3,6.5
			c-2.2,1.6-5.2,2.4-9,2.4c-3.9,0-7-0.8-9.2-2.5c-2.2-1.6-3.3-3.9-3.3-6.8v-0.3h6.6c0,3,2,4.4,5.9,4.4c1.8,0,3.3-0.3,4.3-1
			c1-0.6,1.5-1.5,1.5-2.5c0-0.9-0.4-1.6-1.3-2.1c-0.9-0.5-2-0.8-3.3-0.9c-1.3-0.1-2.8-0.3-4.3-0.6c-1.5-0.3-3-0.7-4.3-1.1
			c-1.3-0.5-2.4-1.3-3.3-2.5s-1.3-2.7-1.3-4.5c0-2.8,1.1-5,3.2-6.5c2.2-1.6,5.1-2.4,8.9-2.4c3.9,0,6.8,0.8,8.9,2.5
			c2.1,1.7,3.1,3.9,3.1,6.9v0.3H316.9z"/>
		<rect x="286" y="116.6" class="st4" width="6.7" height="28.5"/>
		<path class="st4" d="M293.1,109c0,1-0.3,1.7-1,2.3s-1.6,0.8-2.7,0.8c-1.1,0-2-0.3-2.7-0.8c-0.7-0.5-1.1-1.3-1.1-2.3v-1.2
			c0-1,0.4-1.8,1.1-2.3c0.7-0.5,1.6-0.8,2.7-0.8c1.1,0,2,0.3,2.7,0.8c0.7,0.5,1,1.3,1,2.3V109z"/>
		<path class="st4" d="M272.1,117.1c0-4.4-2.6-6.7-7.9-6.7c-2.5,0-4.4,0.5-5.7,1.5c-1.3,1-2,2.4-2,4.1c0,1.3,0.4,2.3,1.3,3.1
			c0.8,0.8,2,1.3,3.3,1.7c1.4,0.4,2.9,0.7,4.5,0.9c1.7,0.3,3.3,0.6,5,1.1c1.7,0.4,3.2,1,4.5,1.7c1.4,0.7,2.5,1.8,3.3,3.3
			c0.8,1.5,1.3,3.3,1.3,5.5c0,3.8-1.4,6.7-4.2,8.9c-2.8,2.2-6.6,3.2-11.4,3.2c-4.9,0-8.8-1-11.5-3.1c-2.7-2.1-4.1-5.2-4.1-9.3v-0.4
			h7.4c0,4.5,2.8,6.7,8.3,6.7c2.6,0,4.6-0.5,6-1.5c1.4-1,2.1-2.4,2.1-4.1c0-1.3-0.4-2.3-1.3-3.1c-0.8-0.8-2-1.4-3.3-1.7
			c-1.4-0.4-2.9-0.7-4.5-0.9c-1.7-0.3-3.3-0.6-5-1.1c-1.7-0.4-3.2-1-4.5-1.8c-1.4-0.7-2.5-1.9-3.3-3.4c-0.8-1.5-1.3-3.3-1.3-5.5
			c0-3.7,1.4-6.7,4.1-8.8c2.7-2.2,6.4-3.2,11.1-3.2c4.8,0,8.6,1,11.3,3.1c2.7,2.1,4,5.2,4,9.3v0.5H272.1z"/>
		<path class="st4" d="M227.4,136.2c0,2.9-1.1,5.2-3.4,6.9c-2.3,1.7-5.3,2.6-9.1,2.6c-3.7,0-6.8-1-9.1-2.9c-2.3-1.9-3.5-4.6-3.5-8.1
			v-6.8c0-3.6,1.2-6.4,3.5-8.5c2.3-2.1,5.4-3.2,9.1-3.2c3.8,0,6.8,1,9.1,3.1c2.3,2.1,3.4,5,3.4,8.7v5h-18.9v1.4
			c0,1.9,0.6,3.4,1.8,4.4c1.2,1,2.7,1.5,4.7,1.5c4.1,0,6.2-1.5,6.2-4.4h6.3V136.2z M221.3,127.9c0-2-0.6-3.6-1.7-4.7
			c-1.1-1.1-2.7-1.6-4.7-1.6c-2,0-3.6,0.5-4.7,1.6c-1.1,1.1-1.7,2.7-1.7,4.7v0.7h12.8V127.9z"/>
		<path class="st4" d="M189.7,145.1v-3.1l-3.3,1.8c-2,1.1-4.1,1.7-6.4,1.7c-2.9,0-5.3-0.9-7.1-2.7c-1.8-1.8-2.7-4.1-2.7-7.1v-9.6
			c0-2.9,0.9-5.2,2.8-7.1c1.8-1.8,4.2-2.8,7.1-2.8c2.2,0,4.3,0.6,6.3,1.7l3.2,1.8v-14.9h6.4v40.2H189.7z M189.7,125.8l-4.5-2.5
			c-1.3-0.7-2.7-1.1-4-1.1c-1.4,0-2.5,0.4-3.3,1.3c-0.8,0.8-1.2,2-1.2,3.4v8.1c0,1.4,0.4,2.6,1.2,3.4c0.8,0.8,1.9,1.3,3.3,1.3
			c1.3,0,2.6-0.4,4-1.1l4.5-2.5V125.8z"/>
		<path class="st4" d="M600,83.3c0,3.5-1.2,6.4-3.6,8.5c-2.4,2.1-5.5,3.2-9.3,3.2c-3.8,0-6.9-1.1-9.3-3.2c-2.4-2.1-3.6-4.9-3.6-8.5
			v-6.2c0-3.6,1.2-6.4,3.6-8.5c2.4-2.1,5.5-3.2,9.3-3.2c3.8,0,6.9,1.1,9.3,3.2c2.4,2.1,3.6,4.9,3.6,8.5V83.3z M593.7,77.7
			c0-2.1-0.6-3.7-1.8-4.9c-1.2-1.2-2.8-1.8-4.8-1.8c-2,0-3.6,0.6-4.8,1.8c-1.2,1.2-1.8,2.8-1.8,4.9v4.9c0,2.1,0.6,3.7,1.8,4.9
			c1.2,1.2,2.8,1.8,4.8,1.8c2,0,3.6-0.6,4.8-1.8c1.2-1.2,1.8-2.8,1.8-4.9V77.7z"/>
		<path class="st4" d="M566.9,94.3c-3.4,0-6-0.8-8-2.5c-1.9-1.7-2.9-4.1-2.9-7.3V71.4h-4.3v-5.6h4.3v-7.7h6.7v7.7h7.9v5.6h-7.9v12.8
			c0,1.6,0.4,2.8,1.1,3.5c0.8,0.7,1.9,1,3.6,1h3.4v5.7H566.9z"/>
		<path class="st4" d="M541.3,94.3V75.6c0-1.2-0.3-2.2-1-3s-1.6-1.2-2.8-1.2c-1.1,0-2.3,0.4-3.7,1.2l-4.2,2.5v19.2h-6.5V65.8h6.5
			v3.4l3-1.8c1.9-1.2,4-1.8,6.3-1.8c2.8,0,5,0.8,6.6,2.5c1.6,1.7,2.4,3.9,2.4,6.7v19.6H541.3z"/>
		<path class="st4" d="M516.8,85.4c0,2.9-1.1,5.2-3.4,6.9c-2.3,1.7-5.3,2.6-9.1,2.6c-3.7,0-6.8-1-9.1-2.9c-2.3-1.9-3.5-4.6-3.5-8.1
			v-6.8c0-3.6,1.2-6.4,3.5-8.5c2.3-2.1,5.4-3.2,9.1-3.2c3.8,0,6.8,1,9.1,3.1c2.3,2.1,3.4,5,3.4,8.7v5H498v1.4c0,1.9,0.6,3.4,1.8,4.4
			c1.2,1,2.7,1.5,4.7,1.5c4.1,0,6.2-1.5,6.2-4.4h6.3V85.4z M510.7,77.1c0-2-0.6-3.6-1.7-4.7c-1.1-1.1-2.7-1.6-4.7-1.6
			c-2,0-3.6,0.5-4.7,1.6c-1.1,1.1-1.7,2.7-1.7,4.7v0.7h12.8V77.1z"/>
		<path class="st4" d="M479.1,94.3V75c0-2.3-1-3.5-3-3.5c-0.9,0-2,0.4-3.4,1.1l-3.5,2.1v19.6h-6.5V75c0-2.3-1-3.5-3-3.5
			c-0.9,0-2.1,0.4-3.5,1.1l-3.4,2.1v19.6h-6.5V65.8h6.4v3l2.5-1.5c1.9-1.2,3.9-1.7,6-1.7c3.3,0,5.6,1.3,6.8,3.8l3.1-1.9
			c2.1-1.3,4.3-1.9,6.5-1.9c2.5,0,4.4,0.8,5.8,2.3c1.4,1.5,2.1,3.6,2.1,6.4v20.1H479.1z"/>
		<rect x="432.6" y="65.8" class="st4" width="6.7" height="28.5"/>
		<path class="st4" d="M439.7,58.2c0,1-0.3,1.7-1,2.3c-0.7,0.5-1.6,0.8-2.7,0.8c-1.1,0-2-0.3-2.7-0.8c-0.7-0.5-1.1-1.3-1.1-2.3V57
			c0-1,0.4-1.8,1.1-2.3c0.7-0.5,1.6-0.8,2.7-0.8c1.1,0,2,0.3,2.7,0.8c0.7,0.5,1,1.3,1,2.3V58.2z"/>
		<polygon class="st4" points="411,94.3 401.2,65.8 408.3,65.8 414.9,86.8 421.5,65.8 428.4,65.8 418.4,94.3 		"/>
		<rect x="390.2" y="54.1" class="st4" width="6.8" height="40.2"/>
		<path class="st4" d="M384,83.3c0,3.5-1.2,6.4-3.6,8.5c-2.4,2.1-5.5,3.2-9.3,3.2c-3.8,0-6.9-1.1-9.3-3.2c-2.4-2.1-3.6-4.9-3.6-8.5
			v-6.2c0-3.6,1.2-6.4,3.6-8.5c2.4-2.1,5.5-3.2,9.3-3.2c3.8,0,6.9,1.1,9.3,3.2c2.4,2.1,3.6,4.9,3.6,8.5V83.3z M377.7,77.7
			c0-2.1-0.6-3.7-1.8-4.9c-1.2-1.2-2.8-1.8-4.8-1.8c-2,0-3.6,0.6-4.8,1.8c-1.2,1.2-1.8,2.8-1.8,4.9v4.9c0,2.1,0.6,3.7,1.8,4.9
			c1.2,1.2,2.8,1.8,4.8,1.8c2,0,3.6-0.6,4.8-1.8c1.2-1.2,1.8-2.8,1.8-4.9V77.7z"/>
		<polygon class="st4" points="338.4,94.3 328.5,65.8 335.7,65.8 342.3,86.8 348.9,65.8 355.7,65.8 345.8,94.3 		"/>
		<path class="st4" d="M318.4,94.3V75.6c0-1.2-0.3-2.2-1-3s-1.6-1.2-2.8-1.2c-1.1,0-2.3,0.4-3.7,1.2l-4.2,2.5v19.2h-6.5V65.8h6.5
			v3.4l3-1.8c1.9-1.2,4-1.8,6.3-1.8c2.8,0,5,0.8,6.6,2.5c1.6,1.7,2.4,3.9,2.4,6.7v19.6H318.4z"/>
		<path class="st4" d="M293.9,85.4c0,2.9-1.1,5.2-3.4,6.9c-2.3,1.7-5.3,2.6-9.1,2.6c-3.7,0-6.8-1-9.1-2.9c-2.3-1.9-3.5-4.6-3.5-8.1
			v-6.8c0-3.6,1.2-6.4,3.5-8.5c2.3-2.1,5.4-3.2,9.1-3.2c3.8,0,6.8,1,9.1,3.1c2.3,2.1,3.4,5,3.4,8.7v5h-18.9v1.4
			c0,1.9,0.6,3.4,1.8,4.4c1.2,1,2.7,1.5,4.7,1.5c4.1,0,6.2-1.5,6.2-4.4h6.3V85.4z M287.8,77.1c0-2-0.6-3.6-1.7-4.7
			c-1.1-1.1-2.7-1.6-4.7-1.6c-2,0-3.6,0.5-4.7,1.6c-1.1,1.1-1.7,2.7-1.7,4.7v0.7h12.8V77.1z"/>
		<path class="st4" d="M257,75.1c0-3-1.9-4.4-5.8-4.4c-1.8,0-3.1,0.3-4.1,1s-1.5,1.5-1.5,2.5c0,1.2,0.6,2,1.8,2.6
			c1.2,0.5,2.7,0.9,4.5,1.1c1.7,0.2,3.5,0.4,5.3,0.8c1.8,0.3,3.3,1.1,4.5,2.3c1.2,1.2,1.8,2.9,1.8,5c0,2.8-1.1,4.9-3.3,6.5
			c-2.2,1.6-5.2,2.4-9,2.4c-3.9,0-7-0.8-9.2-2.5c-2.2-1.6-3.3-3.9-3.3-6.8v-0.3h6.6c0,3,2,4.4,5.9,4.4c1.8,0,3.3-0.3,4.3-1
			c1-0.6,1.5-1.5,1.5-2.5c0-0.9-0.4-1.6-1.3-2.1c-0.9-0.5-2-0.8-3.3-0.9c-1.3-0.1-2.8-0.3-4.3-0.6c-1.5-0.3-3-0.7-4.3-1.1
			c-1.3-0.5-2.4-1.3-3.3-2.5c-0.9-1.2-1.3-2.7-1.3-4.5c0-2.8,1.1-5,3.2-6.5c2.2-1.6,5.1-2.4,8.9-2.4c3.9,0,6.8,0.8,8.9,2.5
			s3.1,3.9,3.1,6.9v0.3H257z"/>
		<path class="st4" d="M233.5,85.4c0,2.9-1.1,5.2-3.4,6.9c-2.3,1.7-5.3,2.6-9.1,2.6c-3.7,0-6.8-1-9.1-2.9c-2.3-1.9-3.5-4.6-3.5-8.1
			v-6.8c0-3.6,1.2-6.4,3.5-8.5c2.3-2.1,5.4-3.2,9.1-3.2c3.8,0,6.8,1,9.1,3.1c2.3,2.1,3.4,5,3.4,8.7v5h-18.9v1.4
			c0,1.9,0.6,3.4,1.8,4.4c1.2,1,2.7,1.5,4.7,1.5c4.1,0,6.2-1.5,6.2-4.4h6.3V85.4z M227.4,77.1c0-2-0.6-3.6-1.7-4.7
			c-1.1-1.1-2.7-1.6-4.7-1.6c-2,0-3.6,0.5-4.7,1.6c-1.1,1.1-1.7,2.7-1.7,4.7v0.7h12.8V77.1z"/>
		<path class="st4" d="M171.2,94.3V54.1H185c5.2,0,9.4,1.4,12.7,4.2c3.3,2.8,4.9,7.1,4.9,13.1v5.7c0,3-0.5,5.7-1.4,8
			c-1,2.3-2.3,4.1-3.9,5.4c-1.7,1.3-3.6,2.3-5.6,2.9c-2.1,0.6-4.3,0.9-6.8,0.9H171.2z M195.3,71.4c0-7.4-3.5-11-10.4-11h-6.4V88h6.4
			c7,0,10.4-3.6,10.4-10.9V71.4z"/>
		<path class="st4" d="M400,34.6c0,2.9-1.1,5.2-3.4,6.9c-2.3,1.7-5.3,2.6-9.1,2.6c-3.7,0-6.8-1-9.1-2.9c-2.3-1.9-3.5-4.6-3.5-8.1
			v-6.8c0-3.6,1.2-6.4,3.5-8.5c2.3-2.1,5.4-3.2,9.1-3.2c3.8,0,6.8,1,9.1,3.1c2.3,2.1,3.4,5,3.4,8.7v5h-18.9v1.4
			c0,1.9,0.6,3.4,1.8,4.4c1.2,1,2.7,1.5,4.7,1.5c4.1,0,6.2-1.5,6.2-4.4h6.3V34.6z M393.9,26.3c0-2-0.6-3.6-1.7-4.7
			c-1.1-1.1-2.7-1.6-4.7-1.6c-2,0-3.6,0.5-4.7,1.6c-1.1,1.1-1.7,2.7-1.7,4.7V27h12.8V26.3z"/>
		<path class="st4" d="M353.8,34.6c0,2.9-1.1,5.2-3.4,6.9c-2.3,1.7-5.3,2.6-9.1,2.6c-3.7,0-6.8-1-9.1-2.9c-2.3-1.9-3.5-4.6-3.5-8.1
			v-6.8c0-3.6,1.2-6.4,3.5-8.5c2.3-2.1,5.4-3.2,9.1-3.2c3.8,0,6.8,1,9.1,3.1c2.3,2.1,3.4,5,3.4,8.7v5h-18.9v1.4
			c0,1.9,0.6,3.4,1.8,4.4c1.2,1,2.7,1.5,4.7,1.5c4.1,0,6.2-1.5,6.2-4.4h6.3V34.6z M347.7,26.3c0-2-0.6-3.6-1.7-4.7
			c-1.1-1.1-2.7-1.6-4.7-1.6c-2,0-3.6,0.5-4.7,1.6c-1.1,1.1-1.7,2.7-1.7,4.7V27h12.8V26.3z"/>
		<path class="st4" d="M316.9,24.3c0-3-1.9-4.4-5.8-4.4c-1.8,0-3.1,0.3-4.1,1c-1,0.6-1.5,1.5-1.5,2.5c0,1.2,0.6,2,1.8,2.6
			c1.2,0.5,2.7,0.9,4.5,1.1c1.7,0.2,3.5,0.4,5.3,0.8c1.8,0.3,3.3,1.1,4.5,2.3c1.2,1.2,1.8,2.9,1.8,5c0,2.8-1.1,4.9-3.3,6.5
			c-2.2,1.6-5.2,2.4-9,2.4c-3.9,0-7-0.8-9.2-2.5c-2.2-1.6-3.3-3.9-3.3-6.8v-0.3h6.6c0,3,2,4.4,5.9,4.4c1.8,0,3.3-0.3,4.3-1
			c1-0.6,1.5-1.5,1.5-2.5c0-0.9-0.4-1.6-1.3-2.1s-2-0.8-3.3-0.9c-1.3-0.1-2.8-0.3-4.3-0.6c-1.5-0.3-3-0.7-4.3-1.1
			c-1.3-0.5-2.4-1.3-3.3-2.5c-0.9-1.2-1.3-2.7-1.3-4.5c0-2.8,1.1-5,3.2-6.5c2.2-1.6,5.1-2.4,8.9-2.4c3.9,0,6.8,0.8,8.9,2.5
			c2.1,1.7,3.1,3.9,3.1,6.9v0.3H316.9z"/>
		<rect x="286" y="15" class="st4" width="6.7" height="28.5"/>
		<path class="st4" d="M293.1,7.4c0,1-0.3,1.7-1,2.3c-0.7,0.5-1.6,0.8-2.7,0.8c-1.1,0-2-0.3-2.7-0.8c-0.7-0.5-1.1-1.3-1.1-2.3V6.2
			c0-1,0.4-1.8,1.1-2.3c0.7-0.5,1.6-0.8,2.7-0.8c1.1,0,2,0.3,2.7,0.8s1,1.3,1,2.3V7.4z"/>
		<rect x="272.3" y="3.3" class="st4" width="6.8" height="40.2"/>
		<path class="st4" d="M259.4,43.5v-3.3l-3,1.6c-2.6,1.4-5.1,2.1-7.5,2.1c-2.5,0-4.6-0.7-6.1-2.2c-1.6-1.5-2.4-3.5-2.4-5.9
			c0-2.8,1-5,2.9-6.5c2-1.5,4.5-2.2,7.6-2.2h8.5v-1.7c0-3.6-1.9-5.5-5.8-5.5c-4.1,0-6.2,1.7-6.2,5h-6.4v-0.4c0-3.2,1.1-5.6,3.4-7.4
			c2.3-1.8,5.3-2.7,9.1-2.7c3.9,0,6.9,0.9,9.1,2.8s3.2,4.5,3.2,7.9v18.3H259.4z M259.4,31.7h-7.6c-3.2,0-4.9,1.2-4.9,3.7
			c0,1,0.3,1.8,0.9,2.4c0.6,0.6,1.4,0.8,2.5,0.8c1.5,0,3.2-0.5,4.9-1.4l4.1-2.2V31.7z"/>
		<polygon class="st4" points="249.1,11.2 254.9,3.3 263.3,3.3 256.3,11.2 		"/>
		<path class="st4" d="M228.3,43.5V24.8c0-1.2-0.3-2.2-1-3c-0.6-0.8-1.6-1.2-2.8-1.2c-1.1,0-2.3,0.4-3.7,1.2l-4.2,2.5v19.2h-6.5V15
			h6.5v3.4l3-1.8c1.9-1.2,4-1.8,6.3-1.8c2.8,0,5,0.8,6.6,2.5c1.6,1.7,2.4,3.9,2.4,6.7v19.6H228.3z"/>
		<path class="st4" d="M197.5,43.5l-2.6-7.6H179l-2.5,7.6h-7.8l13.9-40.2h8.9l13.9,40.2H197.5z M187,11l-6.3,18.7h12.6L187,11z"/>
	</g>
	<g>
		<path class="st4" d="M85.8,137.2c0,3.2-2.6,5.7-5.7,5.7H68.6c-3.2,0-5.7-2.6-5.7-5.7H0c0,6.3,5.1,11.4,11.4,11.4h125.8
			c6.3,0,11.4-5.1,11.4-11.4H85.8z"/>
		<path class="st4" d="M97.2,45.7H11.4c-3.2,0-5.7,2.6-5.7,5.7v80h5.7V54.3c0-1.6,1.3-2.9,2.9-2.9h82.9V45.7z"/>
		<rect x="137.2" y="57.2" class="st4" width="5.7" height="74.3"/>
		<path class="st4" d="M45.7,80v5.7c0,3.2-2.6,5.7-5.7,5.7v5.7c3.2,0,5.7,2.6,5.7,5.7v5.7c0,6.3,5.1,11.4,11.4,11.4h5.7v-5.7h-5.7
			c-3.2,0-5.7-2.6-5.7-5.7v-5.7c0-3.4-1.5-6.5-3.9-8.6c2.4-2.1,3.9-5.2,3.9-8.6V80c0-3.2,2.6-5.7,5.7-5.7h5.7v-5.7h-5.7
			C50.9,68.6,45.7,73.7,45.7,80z"/>
		<path class="st4" d="M108.6,91.5c-3.2,0-5.7-2.6-5.7-5.7V80c0-6.3-5.1-11.4-11.4-11.4h-5.7v5.7h5.7c3.2,0,5.7,2.6,5.7,5.7v5.7
			c0,3.4,1.5,6.5,3.9,8.6c-2.4,2.1-3.9,5.2-3.9,8.6v5.7c0,3.2-2.6,5.7-5.7,5.7h-5.7v5.7h5.7c6.3,0,11.4-5.1,11.4-11.4v-5.7
			c0-3.2,2.6-5.7,5.7-5.7L108.6,91.5L108.6,91.5z"/>
		<path class="st4" d="M105.8,40h14.3c1.6,0,2.9,1.3,2.9,2.9v11.4c0,1.6-1.3,2.9-2.9,2.9h-14.3c-1.6,0-2.9-1.3-2.9-2.9V42.9
			C102.9,41.3,104.2,40,105.8,40z M105.8,44.3v8.6c0,0.8,0.6,1.4,1.4,1.4h11.4c0.8,0,1.4-0.6,1.4-1.4v-8.6c0-0.8-0.6-1.4-1.4-1.4
			h-11.4C106.4,42.9,105.8,43.5,105.8,44.3z"/>
		<path class="st4" d="M140.6,51.5h-9.7c-1.3,0-2.3-1-2.3-2.3v-6.9c0-1.3,1-2.3,2.3-2.3h9.7c1.3,0,2.3,1,2.3,2.3v6.9
			C142.9,50.4,141.9,51.5,140.6,51.5z M140.4,47.7v-4c0-0.8-0.6-1.4-1.4-1.4h-6.3c-0.8,0-1.4,0.6-1.4,1.4v4c0,0.8,0.6,1.4,1.4,1.4
			h6.3C139.7,49.2,140.4,48.5,140.4,47.7z"/>
		<path class="st4" d="M98.6,34.3H81.5c-2.4,0-4.3-1.9-4.3-4.3V15.7c0-2.4,1.9-4.3,4.3-4.3h17.2c2.4,0,4.3,1.9,4.3,4.3V30
			C102.9,32.4,101,34.3,98.6,34.3z M98.6,27.7V18c0-1.3-1-2.3-2.3-2.3H83.8c-1.3,0-2.3,1-2.3,2.3v9.7c0,1.3,1,2.3,2.3,2.3h12.6
			C97.6,30,98.6,29,98.6,27.7z"/>
		<path class="st4" d="M142.9,34.3h-28.6c-3.2,0-5.7-2.6-5.7-5.7V5.7c0-3.2,2.6-5.7,5.7-5.7h28.6c3.2,0,5.7,2.6,5.7,5.7v22.9
			C148.6,31.7,146.1,34.3,142.9,34.3z M143.6,26.4V7.9c0-1.6-1.3-2.9-2.9-2.9h-24.3c-1.6,0-2.9,1.3-2.9,2.9v18.6
			c0,1.6,1.3,2.9,2.9,2.9h24.3C142.4,29.3,143.6,28,143.6,26.4z"/>
	</g>
</g>
</svg>
