<?xml version="1.0" encoding="utf-8"?>
<!-- Generator: Adobe Illustrator 22.1.0, SVG Export Plug-In . SVG Version: 6.00 Build 0)  -->
<svg version="1.1" id="Layer_1" xmlns="http://www.w3.org/2000/svg" xmlns:xlink="http://www.w3.org/1999/xlink" x="0px" y="0px"
	 viewBox="0 0 600 183" style="enable-background:new 0 0 600 183;" xml:space="preserve">
<style type="text/css">
	.st0{fill:#4A555C;}
	.st1{fill:#00A096;}
	.st2{fill:#00A0E6;}
	.st3{fill:#D20000;}
	.st4{fill:#00648C;}
	.st5{fill:#6EB41E;}
	.st6{fill:#A5C800;}
</style>
<g>
	<g>
		<path class="st0" d="M589,139.4v-2.7l-2.4,1.3c-2.1,1.1-4.2,1.7-6.2,1.7c-2.1,0-3.8-0.6-5-1.8c-1.3-1.2-1.9-2.8-1.9-4.8
			c0-2.3,0.8-4.1,2.4-5.3c1.6-1.2,3.7-1.8,6.2-1.8h7v-1.4c0-3-1.6-4.5-4.8-4.5c-3.4,0-5.1,1.4-5.1,4.1H574v-0.3
			c0-2.6,0.9-4.6,2.8-6.1c1.9-1.5,4.4-2.2,7.5-2.2c3.2,0,5.7,0.8,7.4,2.3c1.8,1.5,2.6,3.7,2.6,6.5v15H589z M589,129.8h-6.2
			c-2.7,0-4,1-4,3.1c0,0.8,0.2,1.5,0.7,1.9c0.5,0.5,1.2,0.7,2.1,0.7c1.2,0,2.6-0.4,4-1.2l3.4-1.8V129.8z"/>
		<path class="st0" d="M553.3,131c-1.1,0-1.6,0.5-1.6,1.6c0,1,0.5,1.5,1.5,1.5h9.1c5.6,0,8.4,2.1,8.4,6.4c0,2.4-1,4.2-2.9,5.5
			s-4.6,2-7.8,2c-7,0-10.4-3-10.4-8.9v-2.4c-1.5-0.7-2.3-2.1-2.3-4.2c0-1.2,0.3-2.2,0.9-3c0.6-0.8,1.3-1.3,2.3-1.6
			c-0.1-0.1-0.3-0.2-0.5-0.4c-0.2-0.2-0.4-0.7-0.8-1.5c-0.3-0.8-0.5-1.6-0.5-2.5c0-2.4,0.8-4.3,2.3-5.6c1.6-1.3,3.6-1.9,6.3-1.9
			h13.5v4.5h-3.3c0.8,0.6,1.2,1.7,1.2,3.2c0,2.2-0.8,4-2.3,5.3c-1.5,1.3-3.6,1.9-6.2,1.9H553.3z M559.3,127c3,0,4.4-1.2,4.4-3.5
			c0-2.3-1.3-3.4-4-3.4h-2c-1.4,0-2.4,0.3-3.1,0.8c-0.7,0.5-1,1.4-1,2.7c0,2.2,1.3,3.4,4,3.4H559.3z M554.2,137.9v1
			c0,1.7,0.4,2.9,1.2,3.8c0.8,0.8,2.3,1.2,4.3,1.2c3.8,0,5.7-1.1,5.7-3.3c0-1.7-1.3-2.6-4-2.6H554.2z"/>
		<path class="st0" d="M537.7,139.4v-15.4c0-1-0.3-1.8-0.8-2.5c-0.5-0.7-1.3-1-2.3-1c-0.9,0-1.9,0.3-3.1,1l-3.4,2v15.8h-5.4V116h5.3
			v2.8l2.5-1.5c1.5-0.9,3.3-1.5,5.2-1.5c2.3,0,4.1,0.7,5.4,2.1c1.3,1.4,2,3.2,2,5.5v16.1H537.7z"/>
		<rect x="511.6" y="116" class="st0" width="5.5" height="23.4"/>
		<path class="st0" d="M517.4,109.7c0,0.8-0.3,1.4-0.8,1.9c-0.6,0.4-1.3,0.7-2.2,0.7c-0.9,0-1.6-0.2-2.2-0.7
			c-0.6-0.4-0.9-1.1-0.9-1.9v-1c0-0.8,0.3-1.5,0.9-1.9c0.6-0.4,1.3-0.7,2.2-0.7c0.9,0,1.7,0.2,2.2,0.7s0.8,1.1,0.8,1.9V109.7z"/>
		<path class="st0" d="M504.1,139.4c-2.8,0-5-0.7-6.5-2.1c-1.6-1.4-2.4-3.4-2.4-6v-10.8h-3.6V116h3.6v-6.3h5.5v6.3h6.5v4.6h-6.5
			v10.5c0,1.3,0.3,2.3,0.9,2.8c0.6,0.6,1.6,0.8,2.9,0.8h2.8v4.7H504.1z"/>
		<rect x="482.3" y="116" class="st0" width="5.5" height="23.4"/>
		<path class="st0" d="M488.2,109.7c0,0.8-0.3,1.4-0.8,1.9c-0.6,0.4-1.3,0.7-2.2,0.7c-0.9,0-1.6-0.2-2.2-0.7
			c-0.6-0.4-0.9-1.1-0.9-1.9v-1c0-0.8,0.3-1.5,0.9-1.9c0.6-0.4,1.3-0.7,2.2-0.7c0.9,0,1.7,0.2,2.2,0.7c0.6,0.4,0.8,1.1,0.8,1.9
			V109.7z"/>
		<path class="st0" d="M465.2,139.4V116h5.4v3.3l1-1c1.7-1.7,3.7-2.5,5.8-2.5h1.4v5.5h-1.3c-1.9,0-3.5,0.5-4.9,1.6l-1.8,1.5v15
			H465.2z"/>
		<path class="st0" d="M454.6,139.4v-2.7l-2.4,1.3c-2.1,1.1-4.2,1.7-6.2,1.7c-2.1,0-3.8-0.6-5-1.8c-1.3-1.2-1.9-2.8-1.9-4.8
			c0-2.3,0.8-4.1,2.4-5.3c1.6-1.2,3.7-1.8,6.2-1.8h7v-1.4c0-3-1.6-4.5-4.8-4.5c-3.4,0-5.1,1.4-5.1,4.1h-5.2v-0.3
			c0-2.6,0.9-4.6,2.8-6.1c1.9-1.5,4.4-2.2,7.5-2.2c3.2,0,5.7,0.8,7.4,2.3c1.8,1.5,2.6,3.7,2.6,6.5v15H454.6z M454.6,129.8h-6.2
			c-2.7,0-4,1-4,3.1c0,0.8,0.2,1.5,0.7,1.9c0.5,0.5,1.2,0.7,2.1,0.7c1.2,0,2.6-0.4,4-1.2l3.4-1.8V129.8z"/>
		<path class="st0" d="M429,139.4v-2.7l-2.5,1.5c-1.6,1-3.4,1.5-5.2,1.5c-2.3,0-4.1-0.7-5.4-2.1c-1.3-1.4-2-3.2-2-5.5V116h5.4v15.4
			c0,1,0.3,1.9,0.8,2.5c0.6,0.6,1.3,0.9,2.3,0.9c0.9,0,1.9-0.3,3.1-1l3.4-2V116h5.4v23.4H429z"/>
		<path class="st0" d="M403.2,147.6v-10.7l-2.7,1.5c-1.7,0.9-3.5,1.4-5.2,1.4c-2.4,0-4.3-0.7-5.8-2.2c-1.5-1.5-2.2-3.4-2.2-5.8v-7.9
			c0-2.4,0.8-4.4,2.3-5.9c1.5-1.5,3.5-2.3,5.9-2.3c1.7,0,3.4,0.5,5.1,1.4l2.7,1.5V116h5.2v31.6H403.2z M403.2,123.5l-3.7-2.1
			c-1.1-0.6-2.2-0.9-3.3-0.9c-1.1,0-2,0.3-2.7,1c-0.7,0.7-1,1.6-1,2.8v6.7c0,1.2,0.3,2.1,1,2.8c0.7,0.7,1.6,1,2.7,1
			c1.1,0,2.2-0.3,3.3-0.9l3.7-2V123.5z"/>
		<path class="st0" d="M377.2,139.4v-2.7l-2.4,1.3c-2.1,1.1-4.2,1.7-6.2,1.7c-2.1,0-3.8-0.6-5-1.8c-1.3-1.2-1.9-2.8-1.9-4.8
			c0-2.3,0.8-4.1,2.4-5.3c1.6-1.2,3.7-1.8,6.2-1.8h7v-1.4c0-3-1.6-4.5-4.8-4.5c-3.4,0-5.1,1.4-5.1,4.1h-5.2v-0.3
			c0-2.6,0.9-4.6,2.8-6.1c1.9-1.5,4.4-2.2,7.5-2.2c3.2,0,5.7,0.8,7.4,2.3c1.8,1.5,2.6,3.7,2.6,6.5v15H377.2z M377.2,129.8H371
			c-2.7,0-4,1-4,3.1c0,0.8,0.2,1.5,0.7,1.9c0.5,0.5,1.2,0.7,2.1,0.7c1.2,0,2.6-0.4,4-1.2l3.4-1.8V129.8z"/>
		<polygon class="st0" points="346.6,139.4 346.6,111.6 337.2,111.6 337.2,106.4 362.1,106.4 362.1,111.6 352.7,111.6 352.7,139.4 
					"/>
		<path class="st0" d="M320.8,130.9c0,2.9-0.9,5.1-2.7,6.6c-1.8,1.5-4.3,2.3-7.4,2.3c-3.1,0-5.5-0.8-7.3-2.4
			c-1.8-1.6-2.7-3.9-2.7-6.7v-5.8c0-2.9,0.9-5.1,2.8-6.7c1.8-1.6,4.3-2.4,7.3-2.4c3.1,0,5.6,0.8,7.4,2.3c1.8,1.6,2.7,3.8,2.7,6.6
			v0.4h-5.2c0-3.1-1.6-4.7-4.9-4.7c-3.2,0-4.8,1.7-4.8,5v4.9c0,3.3,1.6,5,4.8,5c3.3,0,4.9-1.6,4.9-4.7h5.2V130.9z"/>
		<path class="st0" d="M295.9,132.1c0,2.4-0.9,4.3-2.8,5.7c-1.9,1.4-4.4,2.1-7.5,2.1c-3.1,0-5.6-0.8-7.5-2.4
			c-1.9-1.6-2.9-3.8-2.9-6.6v-5.5c0-2.9,1-5.3,2.9-7c1.9-1.7,4.4-2.6,7.5-2.6c3.1,0,5.6,0.9,7.5,2.6c1.9,1.7,2.8,4.1,2.8,7.1v4.1
			h-15.5v1.2c0,1.6,0.5,2.8,1.4,3.6c1,0.8,2.2,1.2,3.8,1.2c3.4,0,5.1-1.2,5.1-3.6h5.1V132.1z M290.9,125.3c0-1.7-0.5-2.9-1.4-3.8
			c-0.9-0.9-2.2-1.3-3.8-1.3c-1.7,0-3,0.5-3.9,1.4s-1.4,2.2-1.4,3.8v0.6h10.5V125.3z"/>
		<path class="st0" d="M269.3,139.4c-2.8,0-5-0.7-6.5-2.1c-1.6-1.4-2.4-3.4-2.4-6v-10.8h-3.6V116h3.6v-6.3h5.5v6.3h6.5v4.6h-6.5
			v10.5c0,1.3,0.3,2.3,0.9,2.8c0.6,0.6,1.6,0.8,2.9,0.8h2.8v4.7H269.3z"/>
		<path class="st0" d="M248.6,139.4v-2.7l-2.4,1.3c-2.1,1.1-4.2,1.7-6.2,1.7c-2.1,0-3.8-0.6-5-1.8c-1.3-1.2-1.9-2.8-1.9-4.8
			c0-2.3,0.8-4.1,2.4-5.3c1.6-1.2,3.7-1.8,6.2-1.8h7v-1.4c0-3-1.6-4.5-4.8-4.5c-3.4,0-5.1,1.4-5.1,4.1h-5.2v-0.3
			c0-2.6,0.9-4.6,2.8-6.1c1.9-1.5,4.4-2.2,7.5-2.2c3.2,0,5.7,0.8,7.4,2.3c1.8,1.5,2.6,3.7,2.6,6.5v15H248.6z M248.6,129.8h-6.2
			c-2.7,0-4,1-4,3.1c0,0.8,0.2,1.5,0.7,1.9c0.5,0.5,1.2,0.7,2.1,0.7c1.2,0,2.6-0.4,4-1.2l3.4-1.8V129.8z"/>
		<polygon class="st0" points="215.1,125.8 215.1,139.4 209.1,139.4 209.1,106.4 230.6,106.4 230.6,111.6 215.1,111.6 215.1,120.5 
			229.2,120.5 229.2,125.8 		"/>
	</g>
	<g>
		<path class="st5" d="M600,71.4c0,4.4-1.5,7.8-4.4,10.4c-2.9,2.6-6.7,3.9-11.5,3.9c-4.7,0-8.5-1.3-11.5-3.9
			c-2.9-2.6-4.4-6.1-4.4-10.4v-7.7c0-4.4,1.5-7.9,4.4-10.5c2.9-2.6,6.7-3.9,11.5-3.9c4.7,0,8.5,1.3,11.5,3.9
			c2.9,2.6,4.4,6.1,4.4,10.5V71.4z M592.3,64.5c0-2.6-0.7-4.6-2.2-6c-1.5-1.4-3.5-2.2-5.9-2.2c-2.4,0-4.4,0.7-5.9,2.2
			c-1.5,1.4-2.2,3.5-2.2,6v6.1c0,2.6,0.7,4.6,2.2,6c1.5,1.4,3.5,2.2,5.9,2.2c2.4,0,4.4-0.7,5.9-2.2c1.5-1.4,2.2-3.5,2.2-6V64.5z"/>
		<rect x="552.3" y="49.9" class="st5" width="8.3" height="35.1"/>
		<path class="st5" d="M561,40.4c0,1.2-0.4,2.1-1.3,2.8s-2,1-3.3,1c-1.3,0-2.4-0.3-3.3-1c-0.9-0.7-1.3-1.6-1.3-2.8V39
			c0-1.2,0.4-2.2,1.3-2.9c0.9-0.7,2-1,3.3-1c1.4,0,2.5,0.3,3.3,1s1.3,1.6,1.3,2.9V40.4z"/>
		<path class="st5" d="M544.7,72.2c0,4.3-1.4,7.6-4.1,9.9c-2.7,2.3-6.4,3.5-11.1,3.5c-4.6,0-8.3-1.2-11-3.6s-4.1-5.8-4.1-10.1v-8.7
			c0-4.3,1.4-7.7,4.1-10.1c2.8-2.4,6.4-3.7,11-3.7c4.7,0,8.4,1.2,11.1,3.5s4.1,5.6,4.1,10v0.6H537c0-4.7-2.5-7.1-7.4-7.1
			c-4.8,0-7.3,2.5-7.3,7.5v7.3c0,5,2.4,7.5,7.3,7.5c4.9,0,7.4-2.3,7.4-7h7.8V72.2z"/>
		<path class="st5" d="M507.5,71.4c0,4.4-1.5,7.8-4.4,10.4s-6.7,3.9-11.5,3.9c-4.7,0-8.5-1.3-11.5-3.9s-4.4-6.1-4.4-10.4v-7.7
			c0-4.4,1.5-7.9,4.4-10.5c2.9-2.6,6.7-3.9,11.5-3.9c4.7,0,8.5,1.3,11.5,3.9c2.9,2.6,4.4,6.1,4.4,10.5V71.4z M499.8,64.5
			c0-2.6-0.7-4.6-2.2-6c-1.5-1.4-3.5-2.2-5.9-2.2c-2.4,0-4.4,0.7-5.9,2.2c-1.5,1.4-2.2,3.5-2.2,6v6.1c0,2.6,0.7,4.6,2.2,6
			c1.5,1.4,3.5,2.2,5.9,2.2c2.4,0,4.4-0.7,5.9-2.2c1.5-1.4,2.2-3.5,2.2-6V64.5z"/>
		<polygon class="st5" points="485.5,45.1 492.7,35.4 502.9,35.4 494.3,45.1 		"/>
		<path class="st5" d="M444.9,72.2c-1.6,0-2.4,0.8-2.4,2.3c0,1.5,0.8,2.2,2.3,2.2h13.6c8.4,0,12.6,3.2,12.6,9.7
			c0,3.6-1.5,6.4-4.4,8.3s-6.8,2.9-11.7,2.9c-10.4,0-15.6-4.4-15.6-13.3v-3.5c-2.3-1.1-3.5-3.2-3.5-6.3c0-1.8,0.4-3.3,1.3-4.5
			c0.9-1.2,2-1.9,3.4-2.3c-0.2-0.1-0.4-0.4-0.7-0.7s-0.7-1-1.1-2.2s-0.7-2.4-0.7-3.8c0-3.6,1.2-6.4,3.5-8.4c2.3-1.9,5.5-2.9,9.4-2.9
			h20.3v6.8h-5c1.2,0.9,1.7,2.5,1.7,4.8c0,3.3-1.1,6-3.4,7.9c-2.3,1.9-5.4,2.9-9.3,2.9H444.9z M454.1,66.4c4.4,0,6.7-1.7,6.7-5.2
			c0-3.4-2-5.1-6-5.1h-3.1c-2,0-3.6,0.4-4.6,1.2c-1,0.8-1.5,2.1-1.5,4.1c0,3.4,2,5.1,6,5.1H454.1z M446.4,82.7v1.5
			c0,2.5,0.6,4.4,1.9,5.6c1.2,1.2,3.4,1.8,6.5,1.8c5.7,0,8.5-1.7,8.5-5c0-2.6-2-3.9-6-3.9H446.4z"/>
		<path class="st5" d="M430.2,73.9c0,3.6-1.4,6.4-4.2,8.5c-2.8,2.1-6.5,3.2-11.2,3.2c-4.6,0-8.4-1.2-11.2-3.6
			c-2.9-2.4-4.3-5.7-4.3-9.9v-8.3c0-4.4,1.4-7.9,4.3-10.5c2.9-2.6,6.6-3.9,11.2-3.9c4.7,0,8.4,1.3,11.2,3.9
			c2.8,2.6,4.2,6.1,4.2,10.7V70H407v1.7c0,2.4,0.7,4.2,2.2,5.4c1.4,1.2,3.4,1.8,5.8,1.8c5.1,0,7.6-1.8,7.6-5.4h7.7V73.9z
			 M422.7,63.7c0-2.5-0.7-4.4-2.1-5.7c-1.4-1.3-3.3-2-5.7-2c-2.5,0-4.4,0.7-5.8,2c-1.4,1.4-2.1,3.3-2.1,5.8v0.9h15.7V63.7z"/>
		<path class="st5" d="M383.8,85v-23c0-1.5-0.4-2.7-1.2-3.7s-2-1.5-3.5-1.5c-1.3,0-2.9,0.5-4.6,1.5l-5.1,3.1V85h-8.1V49.9h8V54
			l3.7-2.3c2.3-1.4,4.9-2.2,7.8-2.3c3.4,0,6.1,1,8.1,3.1c2,2.1,3,4.8,3,8.3V85H383.8z"/>
		<path class="st5" d="M353.7,71.4c0,4.4-1.5,7.8-4.4,10.4s-6.7,3.9-11.5,3.9c-4.7,0-8.5-1.3-11.5-3.9c-2.9-2.6-4.4-6.1-4.4-10.4
			v-7.7c0-4.4,1.5-7.9,4.4-10.5c2.9-2.6,6.7-3.9,11.5-3.9c4.7,0,8.5,1.3,11.5,3.9c2.9,2.6,4.4,6.1,4.4,10.5V71.4z M346,64.5
			c0-2.6-0.7-4.6-2.2-6c-1.5-1.4-3.5-2.2-5.9-2.2c-2.4,0-4.4,0.7-5.9,2.2c-1.5,1.4-2.2,3.5-2.2,6v6.1c0,2.6,0.7,4.6,2.2,6
			c1.5,1.4,3.5,2.2,5.9,2.2c2.4,0,4.4-0.7,5.9-2.2c1.5-1.4,2.2-3.5,2.2-6V64.5z"/>
		<path class="st5" d="M297.2,85V49.9h8.1v5l1.5-1.5c2.6-2.5,5.5-3.7,8.7-3.7h2.1v8.2h-2c-2.8,0-5.3,0.8-7.4,2.4l-2.7,2.3V85H297.2z
			"/>
		<path class="st5" d="M265.6,72.2c-1.6,0-2.4,0.8-2.4,2.3c0,1.5,0.8,2.2,2.3,2.2H279c8.4,0,12.6,3.2,12.6,9.7
			c0,3.6-1.5,6.4-4.4,8.3s-6.8,2.9-11.7,2.9c-10.4,0-15.6-4.4-15.6-13.3v-3.5c-2.3-1.1-3.5-3.2-3.5-6.3c0-1.8,0.4-3.3,1.3-4.5
			c0.9-1.2,2-1.9,3.4-2.3c-0.2-0.1-0.4-0.4-0.7-0.7s-0.7-1-1.1-2.2s-0.7-2.4-0.7-3.8c0-3.6,1.2-6.4,3.5-8.4c2.3-1.9,5.5-2.9,9.4-2.9
			h20.3v6.8h-5c1.2,0.9,1.7,2.5,1.7,4.8c0,3.3-1.1,6-3.4,7.9c-2.3,1.9-5.4,2.9-9.3,2.9H265.6z M274.7,66.4c4.4,0,6.7-1.7,6.7-5.2
			c0-3.4-2-5.1-6-5.1h-3.1c-2,0-3.6,0.4-4.6,1.2c-1,0.8-1.5,2.1-1.5,4.1c0,3.4,2,5.1,6,5.1H274.7z M267.1,82.7v1.5
			c0,2.5,0.6,4.4,1.9,5.6c1.2,1.2,3.4,1.8,6.5,1.8c5.7,0,8.5-1.7,8.5-5c0-2.6-2-3.9-6-3.9H267.1z"/>
		<path class="st5" d="M243.2,85l-3.2-9.4h-19.6l-3.1,9.4h-9.6l17.1-49.5h11L252.9,85H243.2z M230.2,44.9l-7.7,23H238L230.2,44.9z"
			/>
	</g>
	<path class="st6" d="M133.7,42.2C44.8,98,35.2,161.9,35.2,161.9C77.4,161.9,183,140.8,183,0C0,0,0,154.8,0,183
		C43.2,60.8,133.7,42.2,133.7,42.2z"/>
</g>
</svg>
