<?xml version="1.0" encoding="utf-8"?>
<!-- Generator: Adobe Illustrator 22.1.0, SVG Export Plug-In . SVG Version: 6.00 Build 0)  -->
<svg version="1.1" id="Layer_1" xmlns="http://www.w3.org/2000/svg" xmlns:xlink="http://www.w3.org/1999/xlink" x="0px" y="0px"
	 viewBox="0 0 600 184.7" style="enable-background:new 0 0 600 184.7;" xml:space="preserve">
<style type="text/css">
	.st0{fill:#4A555C;}
	.st1{fill:#00A096;}
	.st2{fill:#00A0E6;}
	.st3{fill:#D20000;}
	.st4{fill:#00648C;}
	.st5{fill:#6EB41E;}
	.st6{fill:#A5C800;}
</style>
<g>
	<g>
		<path class="st0" d="M594.7,172.4v-2.7l-2.5,1.3c-2.2,1.1-4.2,1.7-6.2,1.7c-2.1,0-3.8-0.6-5.1-1.9c-1.3-1.2-1.9-2.9-1.9-4.9
			c0-2.4,0.8-4.2,2.4-5.4c1.6-1.2,3.7-1.8,6.3-1.8h7v-1.4c0-3-1.6-4.5-4.8-4.5c-3.4,0-5.1,1.4-5.1,4.1h-5.3v-0.3
			c0-2.6,0.9-4.7,2.8-6.1c1.9-1.5,4.4-2.2,7.5-2.2c3.2,0,5.7,0.8,7.5,2.3c1.8,1.6,2.7,3.7,2.7,6.5v15.2H594.7z M594.7,162.6h-6.3
			c-2.7,0-4,1-4,3.1c0,0.8,0.2,1.5,0.7,1.9c0.5,0.5,1.2,0.7,2.1,0.7c1.3,0,2.6-0.4,4.1-1.2l3.4-1.8V162.6z"/>
		<path class="st0" d="M558.6,163.8c-1.1,0-1.6,0.5-1.6,1.6c0,1,0.5,1.5,1.5,1.5h9.1c5.6,0,8.5,2.2,8.5,6.5c0,2.4-1,4.3-3,5.6
			s-4.6,2-7.9,2c-7,0-10.5-3-10.5-9v-2.4c-1.6-0.7-2.3-2.1-2.3-4.2c0-1.2,0.3-2.2,0.9-3c0.6-0.8,1.4-1.3,2.3-1.6
			c-0.1-0.1-0.3-0.2-0.5-0.4c-0.2-0.2-0.4-0.7-0.8-1.5c-0.3-0.8-0.5-1.6-0.5-2.6c0-2.5,0.8-4.3,2.4-5.6c1.6-1.3,3.7-1.9,6.3-1.9
			h13.7v4.6h-3.4c0.8,0.6,1.2,1.7,1.2,3.2c0,2.2-0.8,4-2.3,5.3c-1.5,1.3-3.6,1.9-6.3,1.9H558.6z M564.7,159.9c3,0,4.5-1.2,4.5-3.5
			c0-2.3-1.3-3.5-4-3.5h-2.1c-1.4,0-2.4,0.3-3.1,0.8c-0.7,0.5-1,1.4-1,2.8c0,2.3,1.3,3.4,4,3.4H564.7z M559.5,170.9v1
			c0,1.7,0.4,3,1.3,3.8c0.8,0.8,2.3,1.2,4.3,1.2c3.8,0,5.7-1.1,5.7-3.4c0-1.8-1.3-2.6-4-2.6H559.5z"/>
		<path class="st0" d="M542.9,172.4v-15.5c0-1-0.3-1.8-0.8-2.5c-0.5-0.7-1.3-1-2.3-1c-0.9,0-1.9,0.3-3.1,1l-3.4,2.1v15.9h-5.4v-23.6
			h5.4v2.8l2.5-1.5c1.6-1,3.3-1.5,5.2-1.5c2.3,0,4.1,0.7,5.4,2.1s2,3.3,2,5.6v16.2H542.9z"/>
		<rect x="516.5" y="148.8" class="st0" width="5.6" height="23.6"/>
		<path class="st0" d="M522.3,142.4c0,0.8-0.3,1.4-0.9,1.9c-0.6,0.4-1.3,0.7-2.2,0.7c-0.9,0-1.6-0.2-2.2-0.7
			c-0.6-0.4-0.9-1.1-0.9-1.9v-1c0-0.8,0.3-1.5,0.9-1.9c0.6-0.4,1.3-0.7,2.2-0.7c0.9,0,1.7,0.2,2.2,0.7s0.9,1.1,0.9,1.9V142.4z"/>
		<path class="st0" d="M508.9,172.4c-2.8,0-5-0.7-6.6-2.1c-1.6-1.4-2.4-3.4-2.4-6v-10.9h-3.6v-4.6h3.6v-6.4h5.6v6.4h6.5v4.6h-6.5
			V164c0,1.3,0.3,2.3,0.9,2.9c0.6,0.6,1.6,0.9,3,0.9h2.8v4.7H508.9z"/>
		<rect x="486.9" y="148.8" class="st0" width="5.6" height="23.6"/>
		<path class="st0" d="M492.8,142.4c0,0.8-0.3,1.4-0.9,1.9c-0.6,0.4-1.3,0.7-2.2,0.7c-0.9,0-1.6-0.2-2.2-0.7
			c-0.6-0.4-0.9-1.1-0.9-1.9v-1c0-0.8,0.3-1.5,0.9-1.9c0.6-0.4,1.3-0.7,2.2-0.7c0.9,0,1.7,0.2,2.2,0.7s0.9,1.1,0.9,1.9V142.4z"/>
		<path class="st0" d="M469.7,172.4v-23.6h5.4v3.4l1-1c1.8-1.7,3.7-2.5,5.8-2.5h1.4v5.5H482c-1.9,0-3.6,0.5-5,1.6l-1.8,1.5v15.1
			H469.7z"/>
		<path class="st0" d="M459,172.4v-2.7l-2.5,1.3c-2.2,1.1-4.2,1.7-6.2,1.7c-2.1,0-3.8-0.6-5.1-1.9c-1.3-1.2-1.9-2.9-1.9-4.9
			c0-2.4,0.8-4.2,2.4-5.4c1.6-1.2,3.7-1.8,6.3-1.8h7v-1.4c0-3-1.6-4.5-4.8-4.5c-3.4,0-5.1,1.4-5.1,4.1h-5.3v-0.3
			c0-2.6,0.9-4.7,2.8-6.1c1.9-1.5,4.4-2.2,7.5-2.2c3.2,0,5.7,0.8,7.5,2.3c1.8,1.6,2.7,3.7,2.7,6.5v15.2H459z M459,162.6h-6.3
			c-2.7,0-4,1-4,3.1c0,0.8,0.2,1.5,0.7,1.9c0.5,0.5,1.2,0.7,2.1,0.7c1.3,0,2.6-0.4,4.1-1.2l3.4-1.8V162.6z"/>
		<path class="st0" d="M433.1,172.4v-2.7l-2.5,1.5c-1.6,1-3.4,1.5-5.2,1.5c-2.3,0-4.1-0.7-5.4-2.1s-2-3.3-2-5.6v-16.2h5.5v15.6
			c0,1,0.3,1.9,0.9,2.5c0.6,0.6,1.3,0.9,2.3,0.9c0.9,0,1.9-0.3,3.1-1l3.5-2v-16h5.4v23.6H433.1z"/>
		<path class="st0" d="M407.1,180.6v-10.8l-2.7,1.5c-1.7,0.9-3.5,1.4-5.3,1.4c-2.4,0-4.4-0.7-5.9-2.2s-2.2-3.4-2.2-5.8v-7.9
			c0-2.4,0.8-4.4,2.3-5.9c1.5-1.5,3.5-2.3,5.9-2.3c1.7,0,3.5,0.5,5.2,1.4l2.7,1.5v-2.6h5.3v31.9H407.1z M407.1,156.4l-3.8-2.1
			c-1.1-0.6-2.2-0.9-3.3-0.9c-1.1,0-2,0.4-2.7,1.1c-0.7,0.7-1,1.6-1,2.8v6.7c0,1.2,0.3,2.1,1,2.8c0.7,0.7,1.6,1.1,2.7,1.1
			c1.1,0,2.2-0.3,3.3-0.9l3.8-2.1V156.4z"/>
		<path class="st0" d="M380.8,172.4v-2.7l-2.5,1.3c-2.2,1.1-4.2,1.7-6.2,1.7c-2.1,0-3.8-0.6-5.1-1.9c-1.3-1.2-1.9-2.9-1.9-4.9
			c0-2.4,0.8-4.2,2.4-5.4c1.6-1.2,3.7-1.8,6.3-1.8h7v-1.4c0-3-1.6-4.5-4.8-4.5c-3.4,0-5.1,1.4-5.1,4.1h-5.3v-0.3
			c0-2.6,0.9-4.7,2.8-6.1c1.9-1.5,4.4-2.2,7.5-2.2c3.2,0,5.7,0.8,7.5,2.3c1.8,1.6,2.7,3.7,2.7,6.5v15.2H380.8z M380.8,162.6h-6.3
			c-2.7,0-4,1-4,3.1c0,0.8,0.2,1.5,0.7,1.9c0.5,0.5,1.2,0.7,2.1,0.7c1.3,0,2.6-0.4,4.1-1.2l3.4-1.8V162.6z"/>
		<polygon class="st0" points="349.9,172.4 349.9,144.3 340.4,144.3 340.4,139.1 365.5,139.1 365.5,144.3 356.1,144.3 356.1,172.4 
					"/>
		<path class="st0" d="M323.9,163.8c0,2.9-0.9,5.1-2.8,6.7c-1.8,1.6-4.3,2.3-7.5,2.3c-3.1,0-5.6-0.8-7.4-2.4
			c-1.8-1.6-2.8-3.9-2.8-6.8v-5.9c0-2.9,0.9-5.2,2.8-6.8c1.9-1.6,4.3-2.5,7.4-2.5c3.1,0,5.6,0.8,7.5,2.4c1.8,1.6,2.8,3.8,2.8,6.7
			v0.4h-5.2c0-3.2-1.7-4.8-5-4.8c-3.3,0-4.9,1.7-4.9,5v4.9c0,3.3,1.6,5,4.9,5c3.3,0,5-1.6,5-4.7h5.2V163.8z"/>
		<path class="st0" d="M298.8,165c0,2.4-0.9,4.3-2.8,5.7c-1.9,1.4-4.4,2.1-7.5,2.1c-3.1,0-5.6-0.8-7.6-2.4c-1.9-1.6-2.9-3.8-2.9-6.7
			v-5.6c0-3,1-5.3,2.9-7.1c1.9-1.7,4.5-2.6,7.5-2.6c3.1,0,5.7,0.9,7.6,2.6c1.9,1.7,2.8,4.1,2.8,7.2v4.2h-15.7v1.2
			c0,1.6,0.5,2.8,1.5,3.6c1,0.8,2.3,1.2,3.9,1.2c3.4,0,5.1-1.2,5.1-3.6h5.2V165z M293.7,158.1c0-1.7-0.5-3-1.4-3.9
			c-0.9-0.9-2.2-1.3-3.9-1.3c-1.7,0-3,0.5-3.9,1.4s-1.4,2.2-1.4,3.9v0.6h10.6V158.1z"/>
		<path class="st0" d="M271.9,172.4c-2.8,0-5-0.7-6.6-2.1c-1.6-1.4-2.4-3.4-2.4-6v-10.9h-3.6v-4.6h3.6v-6.4h5.6v6.4h6.5v4.6h-6.5
			V164c0,1.3,0.3,2.3,0.9,2.9c0.6,0.6,1.6,0.9,3,0.9h2.8v4.7H271.9z"/>
		<path class="st0" d="M250.9,172.4v-2.7l-2.5,1.3c-2.2,1.1-4.2,1.7-6.2,1.7c-2.1,0-3.8-0.6-5.1-1.9c-1.3-1.2-1.9-2.9-1.9-4.9
			c0-2.4,0.8-4.2,2.4-5.4c1.6-1.2,3.7-1.8,6.3-1.8h7v-1.4c0-3-1.6-4.5-4.8-4.5c-3.4,0-5.1,1.4-5.1,4.1h-5.3v-0.3
			c0-2.6,0.9-4.7,2.8-6.1c1.9-1.5,4.4-2.2,7.5-2.2c3.2,0,5.7,0.8,7.5,2.3c1.8,1.6,2.7,3.7,2.7,6.5v15.2H250.9z M250.9,162.6h-6.3
			c-2.7,0-4,1-4,3.1c0,0.8,0.2,1.5,0.7,1.9c0.5,0.5,1.2,0.7,2.1,0.7c1.3,0,2.6-0.4,4.1-1.2l3.4-1.8V162.6z"/>
		<polygon class="st0" points="217.1,158.6 217.1,172.4 211.1,172.4 211.1,139.1 232.8,139.1 232.8,144.3 217.1,144.3 217.1,153.3 
			231.4,153.3 231.4,158.6 		"/>
	</g>
	<g>
		<rect x="571.3" y="67.4" class="st1" width="8.4" height="50"/>
		<path class="st1" d="M555.2,117.4v-4.1l-3.7,2c-3.2,1.7-6.3,2.6-9.3,2.6c-3.1,0-5.7-0.9-7.6-2.8s-2.9-4.3-2.9-7.3
			c0-3.5,1.2-6.2,3.7-8.1c2.4-1.8,5.6-2.8,9.4-2.8h10.6v-2.1c0-4.5-2.4-6.8-7.3-6.8c-5.1,0-7.7,2.1-7.7,6.2h-7.9v-0.5
			c0-3.9,1.4-7,4.2-9.2c2.8-2.2,6.6-3.3,11.3-3.3c4.8,0,8.6,1.2,11.3,3.5s4,5.6,4,9.8v22.8H555.2z M555.2,102.8h-9.4
			c-4,0-6.1,1.5-6.1,4.6c0,1.3,0.4,2.2,1.1,2.9c0.7,0.7,1.8,1,3.1,1c1.9,0,3.9-0.6,6.1-1.7l5.1-2.8V102.8z"/>
		<rect x="516" y="82" class="st1" width="8.3" height="35.4"/>
		<path class="st1" d="M524.8,72.4c0,1.2-0.4,2.2-1.3,2.8c-0.9,0.7-2,1-3.4,1c-1.3,0-2.5-0.3-3.3-1c-0.9-0.7-1.3-1.6-1.3-2.8V71
			c0-1.3,0.4-2.2,1.3-2.9c0.9-0.7,2-1,3.3-1c1.4,0,2.5,0.3,3.4,1c0.9,0.7,1.3,1.6,1.3,2.9V72.4z"/>
		<path class="st1" d="M490.1,117.4V82h8.1v5l1.5-1.5c2.6-2.5,5.6-3.8,8.7-3.8h2.1V90h-2c-2.9,0-5.4,0.8-7.5,2.4l-2.8,2.3v22.7
			H490.1z"/>
		<path class="st1" d="M474.1,117.4v-4.1l-3.7,2c-3.2,1.7-6.3,2.6-9.3,2.6c-3.1,0-5.7-0.9-7.6-2.8s-2.9-4.3-2.9-7.3
			c0-3.5,1.2-6.2,3.7-8.1c2.4-1.8,5.6-2.8,9.4-2.8h10.6v-2.1c0-4.5-2.4-6.8-7.3-6.8c-5.1,0-7.7,2.1-7.7,6.2h-7.9v-0.5
			c0-3.9,1.4-7,4.2-9.2s6.6-3.3,11.3-3.3c4.8,0,8.6,1.2,11.3,3.5s4,5.6,4,9.8v22.8H474.1z M474.1,102.8h-9.4c-4,0-6.1,1.5-6.1,4.6
			c0,1.3,0.4,2.2,1.1,2.9c0.7,0.7,1.8,1,3.1,1c1.9,0,3.9-0.6,6.1-1.7l5.1-2.8V102.8z"/>
		<path class="st1" d="M436.4,93.5c0-3.7-2.4-5.5-7.2-5.5c-2.2,0-3.9,0.4-5.1,1.2c-1.2,0.8-1.8,1.9-1.8,3.2c0,1.5,0.8,2.5,2.3,3.2
			c1.5,0.7,3.4,1.1,5.5,1.3c2.2,0.2,4.4,0.5,6.6,1c2.2,0.4,4.1,1.4,5.6,2.9c1.5,1.5,2.3,3.6,2.3,6.3c0,3.5-1.4,6.2-4.1,8.1
			c-2.8,2-6.5,2.9-11.2,2.9c-4.9,0-8.7-1-11.4-3.1c-2.7-2-4.1-4.9-4.1-8.5V106h8.2c0,3.7,2.5,5.5,7.4,5.5c2.3,0,4.1-0.4,5.3-1.2
			c1.3-0.8,1.9-1.9,1.9-3.2c0-1.1-0.5-2-1.6-2.6c-1.1-0.6-2.5-1-4.1-1.1c-1.7-0.1-3.4-0.4-5.3-0.7c-1.9-0.4-3.7-0.8-5.3-1.4
			c-1.7-0.6-3-1.6-4.1-3.1c-1.1-1.5-1.6-3.4-1.6-5.6c0-3.5,1.3-6.2,4-8.1c2.7-2,6.4-3,11-3c4.8,0,8.5,1,11.1,3.1
			c2.6,2.1,3.9,4.9,3.9,8.5v0.4H436.4z"/>
		<path class="st1" d="M407.2,106.3c0,3.6-1.4,6.4-4.2,8.6c-2.8,2.1-6.6,3.2-11.3,3.2c-4.7,0-8.4-1.2-11.3-3.6
			c-2.9-2.4-4.3-5.8-4.3-10V96c0-4.4,1.5-8,4.4-10.6c2.9-2.6,6.7-3.9,11.3-3.9c4.7,0,8.5,1.3,11.3,3.9c2.8,2.6,4.3,6.2,4.3,10.8v6.3
			h-23.5v1.7c0,2.4,0.7,4.2,2.2,5.4c1.5,1.2,3.4,1.8,5.8,1.8c5.1,0,7.7-1.8,7.7-5.4h7.8V106.3z M399.6,96c0-2.5-0.7-4.4-2.1-5.8
			c-1.4-1.3-3.3-2-5.8-2c-2.5,0-4.5,0.7-5.9,2c-1.4,1.4-2.1,3.3-2.1,5.8v0.9h15.9V96z"/>
		<path class="st1" d="M351,117.4V82h8.1v5l1.5-1.5c2.6-2.5,5.6-3.8,8.7-3.8h2.1V90h-2c-2.9,0-5.4,0.8-7.5,2.4l-2.8,2.3v22.7H351z"
			/>
		<path class="st1" d="M311.1,129.8V82h7.9v3.8l4.1-2.2c2.6-1.4,5.2-2.1,7.9-2.1c3.6,0,6.6,1.1,8.8,3.4c2.3,2.2,3.4,5.2,3.4,8.7
			v11.9c0,3.6-1.1,6.6-3.4,8.9c-2.3,2.3-5.3,3.4-8.9,3.4c-2.6,0-5.2-0.7-7.8-2.1l-4-2.2v16.3H311.1z M335.3,94.6
			c0-1.7-0.5-3.1-1.5-4.2s-2.3-1.6-4-1.6s-3.3,0.4-5,1.3l-5.6,3.2V106l5.6,3.1c1.6,0.9,3.3,1.4,5,1.4c1.7,0,3-0.5,4-1.6
			s1.5-2.5,1.5-4.2V94.6z"/>
		<path class="st1" d="M294.7,117.4V93.3c0-2.9-1.3-4.4-3.8-4.4c-1.1,0-2.5,0.5-4.2,1.4l-4.3,2.6v24.4h-8.1v-24
			c0-2.9-1.2-4.4-3.7-4.4c-1.2,0-2.6,0.4-4.3,1.3L262,93v24.4h-8.1V82h8v3.7l3.2-1.9c2.4-1.4,4.9-2.2,7.5-2.2c4.1,0,6.9,1.6,8.4,4.8
			l3.9-2.4c2.6-1.6,5.3-2.4,8.1-2.4c3.1,0,5.5,0.9,7.3,2.8c1.7,1.9,2.6,4.5,2.6,7.9v25H294.7z"/>
		<polygon class="st1" points="212.8,117.4 212.8,67.4 246,67.4 246,75.3 221.8,75.3 221.8,88.1 243.5,88.1 243.5,96 221.8,96 
			221.8,109.4 246.2,109.4 246.2,117.4 		"/>
		<path class="st1" d="M433.4,40.6c0,4.4-1.5,7.9-4.4,10.5s-6.8,3.9-11.6,3.9c-4.7,0-8.6-1.3-11.6-3.9s-4.4-6.1-4.4-10.5v-7.7
			c0-4.4,1.5-8,4.4-10.6c3-2.6,6.8-3.9,11.6-3.9c4.8,0,8.6,1.3,11.6,3.9c3,2.6,4.4,6.1,4.4,10.6V40.6z M425.6,33.6
			c0-2.6-0.8-4.6-2.3-6.1c-1.5-1.5-3.5-2.2-5.9-2.2c-2.5,0-4.4,0.7-5.9,2.2c-1.5,1.5-2.3,3.5-2.3,6.1v6.1c0,2.6,0.8,4.6,2.3,6.1
			c1.5,1.5,3.5,2.2,5.9,2.2c2.5,0,4.4-0.7,5.9-2.2c1.5-1.5,2.3-3.5,2.3-6.1V33.6z"/>
		<path class="st1" d="M386.1,54.3v-4.1l-3.7,2c-3.2,1.7-6.3,2.6-9.3,2.6c-3.1,0-5.7-0.9-7.6-2.8c-1.9-1.9-2.9-4.3-2.9-7.3
			c0-3.5,1.2-6.2,3.7-8.1c2.4-1.8,5.6-2.8,9.4-2.8h10.6v-2.1c0-4.5-2.4-6.8-7.3-6.8c-5.1,0-7.7,2.1-7.7,6.2h-7.9v-0.5
			c0-3.9,1.4-7,4.2-9.2s6.6-3.3,11.3-3.3c4.8,0,8.6,1.2,11.3,3.5s4,5.6,4,9.8v22.8H386.1z M386.1,39.6h-9.4c-4,0-6.1,1.5-6.1,4.6
			c0,1.3,0.4,2.2,1.1,2.9c0.7,0.7,1.8,1,3.1,1c1.9,0,3.9-0.6,6.1-1.7l5.1-2.8V39.6z"/>
		<path class="st1" d="M393.1,4.7c0,2.9-0.7,5.2-2.2,7c-1.4,1.8-3.5,2.7-6.1,2.7c-1.5,0-2.9-0.3-4.1-1c-1.2-0.7-2.3-1.4-3.2-2.1
			c-0.9-0.7-1.8-1-2.6-1c-1.8,0-2.7,1.3-2.7,3.9h-6.5v-0.5c0-2.8,0.7-5.1,2.2-6.9c1.4-1.8,3.4-2.7,6-2.7c1.5,0,2.9,0.3,4.1,1
			c1.2,0.7,2.2,1.3,3.2,2c0.9,0.7,1.8,1,2.6,1c1.8,0,2.8-1.3,2.8-3.8h6.5V4.7z"/>
		<path class="st1" d="M352.6,54.3c-4.2,0-7.5-1-9.9-3.1c-2.4-2.1-3.6-5.1-3.6-9V25.8h-5.4v-6.9h5.4V9.2h8.3v9.6h9.8v6.9h-9.8v15.9
			c0,2,0.5,3.5,1.4,4.3c0.9,0.9,2.4,1.3,4.4,1.3h4.2v7.1H352.6z"/>
		<path class="st1" d="M321.2,30.3c0-3.7-2.4-5.5-7.2-5.5c-2.2,0-3.9,0.4-5.1,1.2c-1.2,0.8-1.8,1.9-1.8,3.2c0,1.5,0.8,2.5,2.3,3.2
			c1.5,0.7,3.4,1.1,5.5,1.3c2.2,0.2,4.4,0.5,6.6,1s4.1,1.4,5.6,2.9c1.5,1.5,2.3,3.6,2.3,6.3c0,3.5-1.4,6.2-4.1,8.1
			c-2.8,2-6.5,2.9-11.2,2.9c-4.9,0-8.7-1-11.4-3.1c-2.7-2-4.1-4.9-4.1-8.5v-0.4h8.2c0,3.7,2.5,5.5,7.4,5.5c2.3,0,4.1-0.4,5.3-1.2
			c1.3-0.8,1.9-1.9,1.9-3.2c0-1.1-0.5-2-1.6-2.6c-1.1-0.6-2.5-1-4.1-1.1c-1.7-0.1-3.4-0.4-5.3-0.7c-1.9-0.4-3.7-0.8-5.3-1.4
			c-1.7-0.6-3-1.6-4.1-3.1c-1.1-1.5-1.6-3.4-1.6-5.6c0-3.5,1.3-6.2,4-8.1c2.7-2,6.4-3,11-3c4.8,0,8.5,1,11.1,3.1
			c2.6,2.1,3.9,4.9,3.9,8.5v0.4H321.2z"/>
		<path class="st1" d="M292,43.1c0,3.6-1.4,6.4-4.2,8.6c-2.8,2.1-6.6,3.2-11.3,3.2c-4.7,0-8.4-1.2-11.3-3.6c-2.9-2.4-4.3-5.8-4.3-10
			v-8.4c0-4.4,1.5-8,4.4-10.6c2.9-2.6,6.7-3.9,11.3-3.9c4.7,0,8.5,1.3,11.3,3.9c2.8,2.6,4.3,6.2,4.3,10.8v6.3h-23.5V41
			c0,2.4,0.7,4.2,2.2,5.4c1.5,1.2,3.4,1.8,5.8,1.8c5.1,0,7.7-1.8,7.7-5.4h7.8V43.1z M284.4,32.8c0-2.5-0.7-4.4-2.1-5.8
			c-1.4-1.3-3.3-2-5.8-2c-2.5,0-4.5,0.7-5.9,2c-1.4,1.4-2.1,3.3-2.1,5.8v0.9h15.9V32.8z"/>
		<path class="st1" d="M253.3,37.2c0,5.7-1.8,10.1-5.5,13.2c-3.7,3.1-8.6,4.6-14.9,4.6c-6.1,0-11.2-1.7-15.1-5.1
			c-3.9-3.4-5.8-8.6-5.8-15.5v-10c0-6.9,2-12.1,5.8-15.5c3.9-3.4,8.9-5.1,15.1-5.1c6.3,0,11.2,1.6,14.9,4.7
			c3.7,3.1,5.5,7.6,5.5,13.4v0.8h-9c0-3.7-1-6.4-3-8.3s-4.8-2.8-8.4-2.8C225,11.6,221,16,221,25v9.1c0,8.9,4,13.3,11.9,13.3
			c3.8,0,6.7-0.9,8.6-2.7c1.9-1.8,2.9-4.4,2.9-7.8h-9.3v-6.7h18.2V37.2z"/>
	</g>
	<g>
		<rect x="149.2" y="71.1" class="st1" width="35.5" height="113.7"/>
		<rect x="99.5" y="92.4" class="st1" width="35.5" height="92.4"/>
		<rect x="49.7" y="113.7" class="st1" width="35.5" height="71.1"/>
		<rect y="135" class="st1" width="35.5" height="49.7"/>
		<polygon class="st2" points="184.7,21.3 127.9,78.2 85.3,35.5 14.2,106.6 0,92.4 0,71.1 14.2,85.3 85.3,14.2 127.9,56.8 184.7,0 
					"/>
	</g>
</g>
</svg>
