<?xml version="1.0" encoding="utf-8"?>
<!-- Generator: Adobe Illustrator 22.1.0, SVG Export Plug-In . SVG Version: 6.00 Build 0)  -->
<svg version="1.1" id="Layer_1" xmlns="http://www.w3.org/2000/svg" xmlns:xlink="http://www.w3.org/1999/xlink" x="0px" y="0px"
	 viewBox="0 0 600 184.8" style="enable-background:new 0 0 600 184.8;" xml:space="preserve">
<style type="text/css">
	.st0{fill:#4A555C;}
	.st1{fill:#00A096;}
	.st2{fill:#00A0E6;}
	.st3{fill:#D20000;}
	.st4{fill:#00648C;}
	.st5{fill:#6EB41E;}
	.st6{fill:#A5C800;}
</style>
<g>
	<g>
		<path class="st0" d="M594.7,172.3v-2.7l-2.5,1.3c-2.2,1.1-4.2,1.7-6.2,1.7c-2.1,0-3.8-0.6-5.1-1.9c-1.3-1.2-1.9-2.9-1.9-4.9
			c0-2.4,0.8-4.2,2.4-5.4c1.6-1.2,3.7-1.8,6.3-1.8h7v-1.4c0-3-1.6-4.5-4.8-4.5c-3.4,0-5.1,1.4-5.1,4.1h-5.3v-0.3
			c0-2.6,0.9-4.7,2.8-6.1c1.9-1.5,4.4-2.2,7.5-2.2c3.2,0,5.7,0.8,7.5,2.3c1.8,1.6,2.7,3.7,2.7,6.5v15.2H594.7z M594.7,162.5h-6.3
			c-2.7,0-4,1-4,3.1c0,0.8,0.2,1.5,0.7,1.9c0.5,0.5,1.2,0.7,2.1,0.7c1.3,0,2.6-0.4,4.1-1.2l3.4-1.8V162.5z"/>
		<path class="st0" d="M558.6,163.7c-1.1,0-1.6,0.5-1.6,1.6c0,1,0.5,1.5,1.5,1.5h9.1c5.6,0,8.5,2.2,8.5,6.5c0,2.4-1,4.3-3,5.6
			c-2,1.3-4.6,2-7.9,2c-7,0-10.5-3-10.5-9v-2.4c-1.6-0.7-2.3-2.1-2.3-4.2c0-1.2,0.3-2.2,0.9-3c0.6-0.8,1.4-1.3,2.3-1.6
			c-0.1-0.1-0.3-0.2-0.5-0.4c-0.2-0.2-0.4-0.7-0.8-1.5c-0.3-0.8-0.5-1.6-0.5-2.6c0-2.5,0.8-4.3,2.4-5.6c1.6-1.3,3.7-1.9,6.3-1.9
			h13.7v4.6h-3.4c0.8,0.6,1.2,1.7,1.2,3.2c0,2.2-0.8,4-2.3,5.3c-1.5,1.3-3.6,1.9-6.3,1.9H558.6z M564.7,159.8c3,0,4.5-1.2,4.5-3.5
			c0-2.3-1.3-3.5-4-3.5h-2.1c-1.4,0-2.4,0.3-3.1,0.8c-0.7,0.5-1,1.4-1,2.8c0,2.3,1.3,3.4,4,3.4H564.7z M559.5,170.7v1
			c0,1.7,0.4,3,1.3,3.8c0.8,0.8,2.3,1.2,4.3,1.2c3.8,0,5.7-1.1,5.7-3.4c0-1.8-1.3-2.6-4-2.6H559.5z"/>
		<path class="st0" d="M542.9,172.3v-15.5c0-1-0.3-1.8-0.8-2.5c-0.5-0.7-1.3-1-2.3-1c-0.9,0-1.9,0.3-3.1,1l-3.4,2.1v15.9h-5.4v-23.6
			h5.4v2.8l2.5-1.5c1.6-1,3.3-1.5,5.2-1.5c2.3,0,4.1,0.7,5.4,2.1c1.3,1.4,2,3.3,2,5.6v16.2H542.9z"/>
		<rect x="516.5" y="148.7" class="st0" width="5.6" height="23.6"/>
		<path class="st0" d="M522.3,142.3c0,0.8-0.3,1.4-0.9,1.9c-0.6,0.4-1.3,0.7-2.2,0.7c-0.9,0-1.6-0.2-2.2-0.7
			c-0.6-0.4-0.9-1.1-0.9-1.9v-1c0-0.8,0.3-1.5,0.9-1.9c0.6-0.4,1.3-0.7,2.2-0.7c0.9,0,1.7,0.2,2.2,0.7s0.9,1.1,0.9,1.9V142.3z"/>
		<path class="st0" d="M508.9,172.3c-2.8,0-5-0.7-6.6-2.1c-1.6-1.4-2.4-3.4-2.4-6v-10.9h-3.6v-4.6h3.6v-6.4h5.6v6.4h6.5v4.6h-6.5
			v10.6c0,1.3,0.3,2.3,0.9,2.9c0.6,0.6,1.6,0.9,3,0.9h2.8v4.7H508.9z"/>
		<rect x="486.9" y="148.7" class="st0" width="5.6" height="23.6"/>
		<path class="st0" d="M492.8,142.3c0,0.8-0.3,1.4-0.9,1.9c-0.6,0.4-1.3,0.7-2.2,0.7c-0.9,0-1.6-0.2-2.2-0.7
			c-0.6-0.4-0.9-1.1-0.9-1.9v-1c0-0.8,0.3-1.5,0.9-1.9c0.6-0.4,1.3-0.7,2.2-0.7c0.9,0,1.7,0.2,2.2,0.7c0.6,0.4,0.9,1.1,0.9,1.9
			V142.3z"/>
		<path class="st0" d="M469.7,172.3v-23.6h5.4v3.4l1-1c1.8-1.7,3.7-2.5,5.8-2.5h1.4v5.5H482c-1.9,0-3.6,0.5-5,1.6l-1.8,1.5v15.1
			H469.7z"/>
		<path class="st0" d="M459,172.3v-2.7l-2.5,1.3c-2.2,1.1-4.2,1.7-6.2,1.7c-2.1,0-3.8-0.6-5.1-1.9c-1.3-1.2-1.9-2.9-1.9-4.9
			c0-2.4,0.8-4.2,2.4-5.4c1.6-1.2,3.7-1.8,6.3-1.8h7v-1.4c0-3-1.6-4.5-4.8-4.5c-3.4,0-5.1,1.4-5.1,4.1h-5.3v-0.3
			c0-2.6,0.9-4.7,2.8-6.1c1.9-1.5,4.4-2.2,7.5-2.2c3.2,0,5.7,0.8,7.5,2.3c1.8,1.6,2.7,3.7,2.7,6.5v15.2H459z M459,162.5h-6.3
			c-2.7,0-4,1-4,3.1c0,0.8,0.2,1.5,0.7,1.9c0.5,0.5,1.2,0.7,2.1,0.7c1.3,0,2.6-0.4,4.1-1.2l3.4-1.8V162.5z"/>
		<path class="st0" d="M433.1,172.3v-2.7l-2.5,1.5c-1.6,1-3.4,1.5-5.2,1.5c-2.3,0-4.1-0.7-5.4-2.1c-1.3-1.4-2-3.3-2-5.6v-16.2h5.5
			v15.6c0,1,0.3,1.9,0.9,2.5c0.6,0.6,1.3,0.9,2.3,0.9c0.9,0,1.9-0.3,3.1-1l3.5-2v-16h5.4v23.6H433.1z"/>
		<path class="st0" d="M407.1,180.5v-10.8l-2.7,1.5c-1.7,0.9-3.5,1.4-5.3,1.4c-2.4,0-4.4-0.7-5.9-2.2s-2.2-3.4-2.2-5.8v-7.9
			c0-2.4,0.8-4.4,2.3-5.9c1.5-1.5,3.5-2.3,5.9-2.3c1.7,0,3.5,0.5,5.2,1.4l2.7,1.5v-2.6h5.3v31.9H407.1z M407.1,156.2l-3.8-2.1
			c-1.1-0.6-2.2-0.9-3.3-0.9c-1.1,0-2,0.4-2.7,1.1c-0.7,0.7-1,1.6-1,2.8v6.7c0,1.2,0.3,2.1,1,2.8c0.7,0.7,1.6,1.1,2.7,1.1
			c1.1,0,2.2-0.3,3.3-0.9l3.8-2.1V156.2z"/>
		<path class="st0" d="M380.8,172.3v-2.7l-2.5,1.3c-2.2,1.1-4.2,1.7-6.2,1.7c-2.1,0-3.8-0.6-5.1-1.9c-1.3-1.2-1.9-2.9-1.9-4.9
			c0-2.4,0.8-4.2,2.4-5.4c1.6-1.2,3.7-1.8,6.3-1.8h7v-1.4c0-3-1.6-4.5-4.8-4.5c-3.4,0-5.1,1.4-5.1,4.1h-5.3v-0.3
			c0-2.6,0.9-4.7,2.8-6.1c1.9-1.5,4.4-2.2,7.5-2.2c3.2,0,5.7,0.8,7.5,2.3c1.8,1.6,2.7,3.7,2.7,6.5v15.2H380.8z M380.8,162.5h-6.3
			c-2.7,0-4,1-4,3.1c0,0.8,0.2,1.5,0.7,1.9c0.5,0.5,1.2,0.7,2.1,0.7c1.3,0,2.6-0.4,4.1-1.2l3.4-1.8V162.5z"/>
		<polygon class="st0" points="349.9,172.3 349.9,144.2 340.4,144.2 340.4,138.9 365.5,138.9 365.5,144.2 356.1,144.2 356.1,172.3 
					"/>
		<path class="st0" d="M323.9,163.7c0,2.9-0.9,5.1-2.8,6.7c-1.8,1.6-4.3,2.3-7.5,2.3c-3.1,0-5.6-0.8-7.4-2.4
			c-1.8-1.6-2.8-3.9-2.8-6.8v-5.9c0-2.9,0.9-5.2,2.8-6.8c1.9-1.6,4.3-2.5,7.4-2.5c3.1,0,5.6,0.8,7.5,2.4c1.8,1.6,2.8,3.8,2.8,6.7
			v0.4h-5.2c0-3.2-1.7-4.8-5-4.8c-3.3,0-4.9,1.7-4.9,5v4.9c0,3.3,1.6,5,4.9,5c3.3,0,5-1.6,5-4.7h5.2V163.7z"/>
		<path class="st0" d="M298.8,164.8c0,2.4-0.9,4.3-2.8,5.7c-1.9,1.4-4.4,2.1-7.5,2.1c-3.1,0-5.6-0.8-7.6-2.4
			c-1.9-1.6-2.9-3.8-2.9-6.7V158c0-3,1-5.3,2.9-7.1c1.9-1.7,4.5-2.6,7.5-2.6c3.1,0,5.7,0.9,7.6,2.6c1.9,1.7,2.8,4.1,2.8,7.2v4.2
			h-15.7v1.2c0,1.6,0.5,2.8,1.5,3.6c1,0.8,2.3,1.2,3.9,1.2c3.4,0,5.1-1.2,5.1-3.6h5.2V164.8z M293.7,158c0-1.7-0.5-3-1.4-3.9
			c-0.9-0.9-2.2-1.3-3.9-1.3c-1.7,0-3,0.5-3.9,1.4c-0.9,0.9-1.4,2.2-1.4,3.9v0.6h10.6V158z"/>
		<path class="st0" d="M271.9,172.3c-2.8,0-5-0.7-6.6-2.1c-1.6-1.4-2.4-3.4-2.4-6v-10.9h-3.6v-4.6h3.6v-6.4h5.6v6.4h6.5v4.6h-6.5
			v10.6c0,1.3,0.3,2.3,0.9,2.9c0.6,0.6,1.6,0.9,3,0.9h2.8v4.7H271.9z"/>
		<path class="st0" d="M250.9,172.3v-2.7l-2.5,1.3c-2.2,1.1-4.2,1.7-6.2,1.7c-2.1,0-3.8-0.6-5.1-1.9c-1.3-1.2-1.9-2.9-1.9-4.9
			c0-2.4,0.8-4.2,2.4-5.4c1.6-1.2,3.7-1.8,6.3-1.8h7v-1.4c0-3-1.6-4.5-4.8-4.5c-3.4,0-5.1,1.4-5.1,4.1h-5.3v-0.3
			c0-2.6,0.9-4.7,2.8-6.1c1.9-1.5,4.4-2.2,7.5-2.2c3.2,0,5.7,0.8,7.5,2.3c1.8,1.6,2.7,3.7,2.7,6.5v15.2H250.9z M250.9,162.5h-6.3
			c-2.7,0-4,1-4,3.1c0,0.8,0.2,1.5,0.7,1.9c0.5,0.5,1.2,0.7,2.1,0.7c1.3,0,2.6-0.4,4.1-1.2l3.4-1.8V162.5z"/>
		<polygon class="st0" points="217.1,158.5 217.1,172.3 211.1,172.3 211.1,138.9 232.8,138.9 232.8,144.2 217.1,144.2 217.1,153.2 
			231.4,153.2 231.4,158.5 		"/>
	</g>
	<g>
		<rect x="494.2" y="67.3" class="st3" width="8.4" height="50"/>
		<path class="st3" d="M478.2,117.3v-4.1l-3.7,2c-3.2,1.7-6.3,2.6-9.3,2.6c-3.1,0-5.7-0.9-7.6-2.8c-1.9-1.9-2.9-4.3-2.9-7.3
			c0-3.5,1.2-6.2,3.7-8.1c2.4-1.8,5.6-2.8,9.4-2.8h10.6v-2.1c0-4.5-2.4-6.8-7.3-6.8c-5.1,0-7.7,2.1-7.7,6.2h-7.9v-0.5
			c0-3.9,1.4-7,4.2-9.2c2.8-2.2,6.6-3.3,11.3-3.3c4.8,0,8.6,1.2,11.3,3.5c2.7,2.3,4,5.6,4,9.8v22.8H478.2z M478.2,102.6h-9.4
			c-4,0-6.1,1.5-6.1,4.6c0,1.3,0.4,2.2,1.1,2.9c0.7,0.7,1.8,1,3.1,1c1.9,0,3.9-0.6,6.1-1.7l5.1-2.8V102.6z"/>
		<rect x="439" y="81.9" class="st3" width="8.3" height="35.4"/>
		<path class="st3" d="M447.8,72.3c0,1.2-0.4,2.2-1.3,2.8c-0.9,0.7-2,1-3.4,1c-1.3,0-2.5-0.3-3.3-1c-0.9-0.7-1.3-1.6-1.3-2.8v-1.5
			c0-1.3,0.4-2.2,1.3-2.9c0.9-0.7,2-1,3.3-1c1.4,0,2.5,0.3,3.4,1c0.9,0.7,1.3,1.6,1.3,2.9V72.3z"/>
		<path class="st3" d="M413.1,117.3V81.9h8.1v5l1.5-1.5c2.6-2.5,5.6-3.8,8.7-3.8h2.1v8.3h-2c-2.9,0-5.4,0.8-7.5,2.4l-2.8,2.3v22.7
			H413.1z"/>
		<path class="st3" d="M401.9,117.3c-4.2,0-7.5-1-9.9-3.1c-2.4-2.1-3.6-5.1-3.6-9V88.8H383v-6.9h5.4v-9.6h8.3v9.6h9.8v6.9h-9.8v15.9
			c0,2,0.5,3.5,1.4,4.3c0.9,0.9,2.4,1.3,4.4,1.3h4.2v7.1H401.9z"/>
		<path class="st3" d="M370.5,93.3c0-3.7-2.4-5.5-7.2-5.5c-2.2,0-3.9,0.4-5.1,1.2c-1.2,0.8-1.8,1.9-1.8,3.2c0,1.5,0.8,2.5,2.3,3.2
			c1.5,0.7,3.4,1.1,5.5,1.3c2.2,0.2,4.4,0.5,6.6,1c2.2,0.4,4.1,1.4,5.6,2.9c1.5,1.5,2.3,3.6,2.3,6.3c0,3.5-1.4,6.2-4.1,8.1
			c-2.8,2-6.5,2.9-11.2,2.9c-4.9,0-8.7-1-11.4-3.1c-2.7-2-4.1-4.9-4.1-8.5v-0.4h8.2c0,3.7,2.5,5.5,7.4,5.5c2.3,0,4.1-0.4,5.3-1.2
			c1.3-0.8,1.9-1.9,1.9-3.2c0-1.1-0.5-2-1.6-2.6c-1.1-0.6-2.5-1-4.1-1.1c-1.7-0.1-3.4-0.4-5.3-0.7c-1.9-0.4-3.7-0.8-5.3-1.4
			c-1.7-0.6-3-1.6-4.1-3.1c-1.1-1.5-1.6-3.4-1.6-5.6c0-3.5,1.3-6.2,4-8.1c2.7-2,6.4-3,11-3c4.8,0,8.5,1,11.1,3.1
			c2.6,2.1,3.9,4.9,3.9,8.5v0.4H370.5z"/>
		<path class="st3" d="M332.5,117.3v-4.1l-3.8,2.2c-2.5,1.5-5.1,2.3-7.9,2.3c-3.5,0-6.2-1.1-8.2-3.2c-2-2.1-3-4.9-3-8.3V81.9h8.2
			v23.3c0,1.6,0.4,2.8,1.3,3.8c0.9,0.9,2,1.4,3.4,1.4c1.3,0,2.9-0.5,4.6-1.5l5.2-3V81.9h8.1v35.4H332.5z"/>
		<path class="st3" d="M293.5,117.3v-3.8l-4.1,2.2c-2.5,1.4-5.1,2.1-7.9,2.1c-3.6,0-6.6-1.1-8.8-3.3c-2.2-2.2-3.4-5.1-3.4-8.8V93.7
			c0-3.6,1.1-6.5,3.4-8.8c2.3-2.3,5.2-3.4,8.9-3.4c2.7,0,5.3,0.7,7.8,2.1l4,2.2V67.3h8v50H293.5z M293.5,93.3l-5.6-3.2
			c-1.7-0.9-3.3-1.3-5-1.3c-1.7,0-3.1,0.5-4.1,1.6s-1.5,2.5-1.5,4.2v10.1c0,1.8,0.5,3.2,1.5,4.3c1,1.1,2.4,1.6,4.1,1.6
			c1.6,0,3.2-0.5,5-1.4l5.6-3.1V93.3z"/>
		<path class="st3" d="M253.6,117.3V94c0-1.5-0.4-2.7-1.2-3.7c-0.8-1-2-1.5-3.5-1.5c-1.3,0-2.9,0.5-4.6,1.5l-5.2,3.1v23.9H231V81.9
			h8.1V86l3.8-2.3c2.3-1.4,5-2.2,7.9-2.3c3.5,0,6.2,1.1,8.2,3.2c2,2.1,3,4.9,3,8.3v24.3H253.6z"/>
		<rect x="212.8" y="67.3" class="st3" width="9.2" height="50"/>
		<path class="st3" d="M506.6,40.4c0,4.4-1.5,7.9-4.4,10.5s-6.8,3.9-11.6,3.9c-4.7,0-8.6-1.3-11.6-3.9s-4.4-6.1-4.4-10.5v-7.7
			c0-4.4,1.5-8,4.4-10.6c3-2.6,6.8-3.9,11.6-3.9c4.8,0,8.6,1.3,11.6,3.9c3,2.6,4.4,6.2,4.4,10.6V40.4z M498.8,33.5
			c0-2.6-0.8-4.6-2.3-6.1c-1.5-1.5-3.5-2.2-5.9-2.2c-2.5,0-4.4,0.7-5.9,2.2c-1.5,1.5-2.3,3.5-2.3,6.1v6.1c0,2.6,0.8,4.6,2.3,6.1
			c1.5,1.5,3.5,2.2,5.9,2.2c2.5,0,4.4-0.7,5.9-2.2c1.5-1.5,2.3-3.5,2.3-6.1V33.5z"/>
		<path class="st3" d="M459.3,54.1V50l-3.7,2c-3.2,1.7-6.3,2.6-9.3,2.6c-3.1,0-5.7-0.9-7.6-2.8c-1.9-1.9-2.9-4.3-2.9-7.3
			c0-3.5,1.2-6.2,3.7-8.1c2.4-1.8,5.6-2.8,9.4-2.8h10.6v-2.1c0-4.5-2.4-6.8-7.3-6.8c-5.1,0-7.7,2.1-7.7,6.2h-7.9v-0.5
			c0-3.9,1.4-7,4.2-9.2S447.3,18,452,18c4.8,0,8.6,1.2,11.3,3.5s4,5.6,4,9.8v22.8H459.3z M459.3,39.5h-9.4c-4,0-6.1,1.5-6.1,4.6
			c0,1.3,0.4,2.2,1.1,2.9c0.7,0.7,1.8,1,3.1,1c1.9,0,3.9-0.6,6.1-1.7l5.1-2.8V39.5z"/>
		<path class="st3" d="M466.3,4.5c0,2.9-0.7,5.2-2.2,7c-1.4,1.8-3.5,2.7-6.1,2.7c-1.5,0-2.9-0.3-4.1-1c-1.2-0.7-2.3-1.4-3.2-2.1
			c-0.9-0.7-1.8-1-2.6-1c-1.8,0-2.7,1.3-2.7,3.9H439v-0.5c0-2.8,0.7-5.1,2.2-6.9s3.4-2.7,6-2.7c1.5,0,2.9,0.3,4.1,1
			c1.2,0.7,2.2,1.3,3.2,2c0.9,0.7,1.8,1,2.6,1c1.8,0,2.8-1.3,2.8-3.8h6.5V4.5z"/>
		<path class="st3" d="M409.3,59.6l2.8-5c-4-0.4-7.2-1.7-9.5-4.1s-3.5-5.6-3.5-9.6v-8.8c0-4.3,1.4-7.8,4.2-10.2
			c2.8-2.5,6.5-3.7,11.1-3.7c4.7,0,8.4,1.2,11.2,3.5s4.1,5.7,4.1,10v0.6h-7.9c0-4.8-2.5-7.1-7.5-7.1c-4.9,0-7.3,2.5-7.3,7.5v7.4
			c0,5,2.4,7.5,7.3,7.5c5,0,7.5-2.4,7.5-7.1h7.9v0.6c0,3.9-1.1,7-3.3,9.3c-2.2,2.3-5.3,3.7-9.2,4.1l-1.3,2.3c1.7,0,3.1,0.4,4,1.2
			c0.9,0.8,1.4,1.9,1.4,3.4c0,1.7-0.7,3.1-2,4.2c-1.3,1.1-3.2,1.6-5.7,1.6c-2.4,0-4.2-0.5-5.5-1.5c-1.3-1-1.9-2.3-1.9-4v-0.1h5
			c0,1.1,0.8,1.7,2.5,1.7c1.6,0,2.4-0.6,2.4-1.9c0-1.3-1.1-1.9-3.4-1.9H409.3z"/>
		<path class="st3" d="M383.2,54.1V50l-3.8,2.2c-2.5,1.5-5.1,2.3-7.9,2.3c-3.5,0-6.2-1.1-8.2-3.2c-2-2.1-3-4.9-3-8.3V18.7h8.2V42
			c0,1.6,0.4,2.8,1.3,3.8c0.9,0.9,2,1.4,3.4,1.4c1.3,0,2.9-0.5,4.6-1.5l5.2-3V18.7h8.1v35.4H383.2z"/>
		<path class="st3" d="M344.2,54.1v-3.8l-4.1,2.2c-2.5,1.4-5.1,2.1-7.9,2.1c-3.6,0-6.6-1.1-8.8-3.3c-2.2-2.2-3.4-5.1-3.4-8.8V30.6
			c0-3.6,1.1-6.5,3.4-8.8c2.3-2.3,5.2-3.4,8.9-3.4c2.7,0,5.3,0.7,7.8,2.1l4,2.2V4.1h8v50H344.2z M344.1,30.1l-5.6-3.2
			c-1.7-0.9-3.3-1.3-5-1.3c-1.7,0-3.1,0.5-4.1,1.6c-1,1.1-1.5,2.5-1.5,4.2v10.1c0,1.8,0.5,3.2,1.5,4.3c1,1.1,2.4,1.6,4.1,1.6
			c1.6,0,3.2-0.5,5-1.4l5.6-3.1V30.1z"/>
		<path class="st3" d="M313,40.4c0,4.4-1.5,7.9-4.4,10.5c-3,2.6-6.8,3.9-11.6,3.9c-4.7,0-8.6-1.3-11.6-3.9s-4.4-6.1-4.4-10.5v-7.7
			c0-4.4,1.5-8,4.4-10.6c3-2.6,6.8-3.9,11.6-3.9c4.8,0,8.6,1.3,11.6,3.9c3,2.6,4.4,6.2,4.4,10.6V40.4z M305.2,33.5
			c0-2.6-0.8-4.6-2.3-6.1c-1.5-1.5-3.5-2.2-5.9-2.2c-2.5,0-4.4,0.7-5.9,2.2c-1.5,1.5-2.3,3.5-2.3,6.1v6.1c0,2.6,0.8,4.6,2.3,6.1
			c1.5,1.5,3.5,2.2,5.9,2.2c2.5,0,4.4-0.7,5.9-2.2c1.5-1.5,2.3-3.5,2.3-6.1V33.5z"/>
		<path class="st3" d="M256,54.1V18.7h8.1v5l1.5-1.5c2.6-2.5,5.6-3.8,8.7-3.8h2.1v8.3h-2c-2.9,0-5.4,0.8-7.5,2.4l-2.8,2.3v22.7H256z
			"/>
		<path class="st3" d="M212.8,54.1v-50h21.1c4.6,0,8.3,1.4,11.3,4.1c2.9,2.7,4.4,6.5,4.4,11.4c0,4.8-1.6,8.6-4.8,11.4
			s-7,4.2-11.3,4.2h-11.7v18.9H212.8z M232.8,27.6c2.4,0,4.3-0.7,5.7-2.2c1.4-1.4,2.2-3.4,2.2-5.9c0-2.5-0.7-4.4-2-5.7
			c-1.3-1.3-3.2-2-5.6-2h-11.4v15.7H232.8z"/>
	</g>
	<g>
		<path class="st3" d="M184.8,142.1v-14.2h-42.6V99.5h-14.2L85.3,64v30.5l7.1,5.1h-7.1L42.6,64v30.5l7.1,5.1h-7.1L0,64v120.8h184.8
			v-14.2h-42.6v-7.1h42.6v-14.2h-42.6v-7.1H184.8z M42.6,167c0,2-1.6,3.6-3.6,3.6H17.8c-2,0-3.6-1.6-3.6-3.6v-14.2
			c0-2,1.6-3.6,3.6-3.6h21.3c2,0,3.6,1.6,3.6,3.6V167z M42.6,131.5c0,2-1.6,3.6-3.6,3.6H17.8c-2,0-3.6-1.6-3.6-3.6v-14.2
			c0-2,1.6-3.6,3.6-3.6h21.3c2,0,3.6,1.6,3.6,3.6V131.5z M85.3,167c0,2-1.6,3.6-3.6,3.6H60.4c-2,0-3.6-1.6-3.6-3.6v-14.2
			c0-2,1.6-3.6,3.6-3.6h21.3c2,0,3.6,1.6,3.6,3.6V167z M85.3,131.5c0,2-1.6,3.6-3.6,3.6H60.4c-2,0-3.6-1.6-3.6-3.6v-14.2
			c0-2,1.6-3.6,3.6-3.6h21.3c2,0,3.6,1.6,3.6,3.6V131.5z M127.9,167c0,2-1.6,3.6-3.6,3.6H103c-2,0-3.6-1.6-3.6-3.6v-14.2
			c0-2,1.6-3.6,3.6-3.6h21.3c2,0,3.6,1.6,3.6,3.6V167z M127.9,131.5c0,2-1.6,3.6-3.6,3.6H103c-2,0-3.6-1.6-3.6-3.6v-14.2
			c0-2,1.6-3.6,3.6-3.6h21.3c2,0,3.6,1.6,3.6,3.6V131.5z"/>
		<polygon class="st3" points="158,21.3 149.2,120.8 184.8,120.8 176,21.3 		"/>
		<polygon class="st3" points="133.6,35.5 127.9,92.4 149.2,92.4 143.5,35.5 		"/>
		<polygon class="st3" points="142.8,28.4 142.1,21.3 135,21.3 134.3,28.4 		"/>
		<polygon class="st3" points="175.3,14.2 174.1,0 159.9,0 158.6,14.2 		"/>
	</g>
</g>
</svg>
